<svg width="21" height="22" viewBox="0 0 21 22" fill="none" xmlns="http://www.w3.org/2000/svg">
<path fill-rule="evenodd" clip-rule="evenodd" d="M1.75 11C1.75 6.1855 5.6855 2.25 10.5 2.25C15.3145 2.25 19.25 6.1855 19.25 11C19.25 15.8145 15.3145 19.75 10.5 19.75C5.6855 19.75 1.75 15.8145 1.75 11ZM10.5 4C6.652 4 3.5 7.152 3.5 11C3.5 14.848 6.652 18 10.5 18C14.348 18 17.5 14.848 17.5 11C17.5 7.152 14.348 4 10.5 4Z" fill="#1E7791"/>
<path fill-rule="evenodd" clip-rule="evenodd" d="M10.5 7.0625C10.9832 7.0625 11.375 7.45425 11.375 7.9375L11.375 11C11.375 11.4832 10.9832 11.875 10.5 11.875C10.0168 11.875 9.625 11.4832 9.625 11L9.625 7.9375C9.625 7.45425 10.0168 7.0625 10.5 7.0625Z" fill="#1E7791"/>
<path fill-rule="evenodd" clip-rule="evenodd" d="M9.40161 14.0625C9.40161 13.4584 9.8913 12.9688 10.4954 12.9688H10.5032C11.1073 12.9688 11.597 13.4584 11.597 14.0625C11.597 14.6666 11.1073 15.1562 10.5032 15.1562H10.4954C9.8913 15.1562 9.40161 14.6666 9.40161 14.0625Z" fill="#1E7791"/>
</svg>
