<svg width="28" height="28" viewBox="0 0 28 28" fill="none" xmlns="http://www.w3.org/2000/svg">
<path d="M23.2663 14.3006C23.2663 14.6011 23.1469 14.8894 22.9344 15.1019C22.7218 15.3145 22.4336 15.4339 22.133 15.4339H15.333V22.2339C15.333 22.5345 15.2136 22.8227 15.0011 23.0353C14.7885 23.2478 14.5002 23.3672 14.1997 23.3672C13.8991 23.3672 13.6108 23.2478 13.3983 23.0353C13.1857 22.8227 13.0663 22.5345 13.0663 22.2339V15.4339H6.26633C5.96575 15.4339 5.67748 15.3145 5.46494 15.1019C5.2524 14.8894 5.133 14.6011 5.133 14.3006C5.133 14 5.2524 13.7117 5.46494 13.4992C5.67748 13.2866 5.96575 13.1672 6.26633 13.1672H13.0663V6.36722C13.0663 6.06664 13.1857 5.77837 13.3983 5.56583C13.6108 5.35329 13.8991 5.23389 14.1997 5.23389C14.5002 5.23389 14.7885 5.35329 15.0011 5.56583C15.2136 5.77837 15.333 6.06664 15.333 6.36722V13.1672H22.133C22.4336 13.1672 22.7218 13.2866 22.9344 13.4992C23.1469 13.7117 23.2663 14 23.2663 14.3006Z" fill="#ECF0FF"/>
</svg>
