<svg width="24" height="24" viewBox="0 0 24 24" fill="none" xmlns="http://www.w3.org/2000/svg">
<path d="M12.5547 5.53846C13.638 5.53846 14.9959 4.8061 15.8045 3.82962C16.5369 2.94469 17.0709 1.70884 17.0709 0.472982C17.0709 0.30515 17.0556 0.137317 17.0251 0C15.8198 0.0457724 14.3703 0.808646 13.5006 1.8309C12.8141 2.60903 12.1885 3.82963 12.1885 5.08074C12.1885 5.26383 12.219 5.44692 12.2343 5.50795C12.3106 5.5232 12.4326 5.53846 12.5547 5.53846ZM8.7403 24C10.2203 24 10.8764 23.0083 12.7225 23.0083C14.5992 23.0083 15.0111 23.9695 16.6589 23.9695C18.2762 23.9695 19.3595 22.4743 20.3818 21.0095C21.5261 19.3312 21.999 17.6834 22.0296 17.6071C21.9228 17.5766 18.8255 16.3102 18.8255 12.7552C18.8255 9.67324 21.2667 8.28481 21.404 8.178C19.7867 5.85887 17.3303 5.79784 16.6589 5.79784C14.8433 5.79784 13.3633 6.89638 12.4326 6.89638C11.4256 6.89638 10.0982 5.85887 8.5267 5.85887C5.53624 5.85887 2.5 8.33058 2.5 12.9994C2.5 15.8983 3.62905 18.965 5.01748 20.9485C6.20756 22.6268 7.24507 24 8.7403 24Z" fill="black"/>
</svg>
