<svg width="24" height="24" viewBox="0 0 24 24" fill="none" xmlns="http://www.w3.org/2000/svg">
<g opacity="0.5">
<path d="M9.16048 16.2418C8.87557 16.5178 8.87033 16.9705 9.14878 17.2529C9.42723 17.5353 9.88392 17.5405 10.1688 17.2645L11.9069 15.5808C12.5615 14.9466 13.0966 14.4283 13.4767 13.9659C13.8719 13.485 14.1591 12.996 14.239 12.4073C14.274 12.1492 14.2759 11.8877 14.2445 11.6291C14.1729 11.0393 13.8927 10.5464 13.5043 10.0601C13.1308 9.59236 12.6031 9.06669 11.9575 8.42351L10.2434 6.71577C9.96244 6.43583 9.50572 6.43468 9.22331 6.71319C8.9409 6.9917 8.93973 7.44442 9.22071 7.72435L10.9045 9.40186C11.5878 10.0827 12.0565 10.5512 12.3732 10.9476C12.6807 11.3327 12.7854 11.5795 12.8122 11.7999C12.829 11.9384 12.828 12.0783 12.8092 12.2165C12.7793 12.4366 12.6712 12.6819 12.3582 13.0627C12.036 13.4547 11.5607 13.9166 10.8678 14.5879L9.16048 16.2418Z" fill="#070707"/>
</g>
</svg>
