<svg width="16" height="17" viewBox="0 0 16 17" fill="none" xmlns="http://www.w3.org/2000/svg">
<path d="M9.8 4.16595L13.8 8.15162C13.863 8.21315 13.9131 8.28651 13.9474 8.36747C13.9818 8.44843 13.9996 8.53537 14 8.62326C13.9975 8.79848 13.9256 8.96561 13.8 9.08825L9.8 13.0739C9.67509 13.1976 9.50612 13.2671 9.33 13.2671C9.15388 13.2671 8.98491 13.1976 8.86 13.0739C8.73583 12.9495 8.66614 12.7811 8.66614 12.6056C8.66614 12.4301 8.73583 12.2618 8.86 12.1373L11.72 9.28754L2.66667 9.28754C2.48986 9.28754 2.32029 9.21755 2.19526 9.09298C2.07024 8.9684 2 8.79944 2 8.62326C2 8.44708 2.07024 8.27812 2.19526 8.15354C2.32029 8.02897 2.48986 7.95898 2.66667 7.95898L11.72 7.95898L8.86 5.10258C8.79021 5.04303 8.73353 4.96975 8.69352 4.88734C8.6535 4.80492 8.63101 4.71516 8.62747 4.62367C8.62392 4.53219 8.63939 4.44096 8.67291 4.35572C8.70643 4.27048 8.75726 4.19306 8.82223 4.12832C8.8872 4.06359 8.9649 4.01293 9.05045 3.97953C9.136 3.94613 9.22756 3.93072 9.31937 3.93425C9.41118 3.93779 9.50127 3.96019 9.58398 4.00007C9.66669 4.03994 9.74024 4.09642 9.8 4.16595Z" fill="white"/>
</svg>
