<svg width="32" height="32" viewBox="0 0 32 32" fill="none" xmlns="http://www.w3.org/2000/svg">
<rect width="32" height="32" rx="6" fill="#ECF0FF"/>
<path fill-rule="evenodd" clip-rule="evenodd" d="M10 6.3999C10.3183 6.3999 10.6235 6.52633 10.8486 6.75137C11.0736 6.97642 11.2 7.28164 11.2 7.5999V8.7999H12.4C12.7183 8.7999 13.0235 8.92633 13.2486 9.15137C13.4736 9.37642 13.6 9.68164 13.6 9.9999C13.6 10.3182 13.4736 10.6234 13.2486 10.8484C13.0235 11.0735 12.7183 11.1999 12.4 11.1999H11.2V12.3999C11.2 12.7182 11.0736 13.0234 10.8486 13.2484C10.6235 13.4735 10.3183 13.5999 10 13.5999C9.68176 13.5999 9.37654 13.4735 9.1515 13.2484C8.92645 13.0234 8.80002 12.7182 8.80002 12.3999V11.1999H7.60002C7.28176 11.1999 6.97654 11.0735 6.7515 10.8484C6.52645 10.6234 6.40002 10.3182 6.40002 9.9999C6.40002 9.68164 6.52645 9.37642 6.7515 9.15137C6.97654 8.92633 7.28176 8.7999 7.60002 8.7999H8.80002V7.5999C8.80002 7.28164 8.92645 6.97642 9.1515 6.75137C9.37654 6.52633 9.68176 6.3999 10 6.3999ZM10 18.3999C10.3183 18.3999 10.6235 18.5263 10.8486 18.7514C11.0736 18.9764 11.2 19.2816 11.2 19.5999V20.7999H12.4C12.7183 20.7999 13.0235 20.9263 13.2486 21.1514C13.4736 21.3764 13.6 21.6816 13.6 21.9999C13.6 22.3182 13.4736 22.6234 13.2486 22.8484C13.0235 23.0735 12.7183 23.1999 12.4 23.1999H11.2V24.3999C11.2 24.7182 11.0736 25.0234 10.8486 25.2484C10.6235 25.4735 10.3183 25.5999 10 25.5999C9.68176 25.5999 9.37654 25.4735 9.1515 25.2484C8.92645 25.0234 8.80002 24.7182 8.80002 24.3999V23.1999H7.60002C7.28176 23.1999 6.97654 23.0735 6.7515 22.8484C6.52645 22.6234 6.40002 22.3182 6.40002 21.9999C6.40002 21.6816 6.52645 21.3764 6.7515 21.1514C6.97654 20.9263 7.28176 20.7999 7.60002 20.7999H8.80002V19.5999C8.80002 19.2816 8.92645 18.9764 9.1515 18.7514C9.37654 18.5263 9.68176 18.3999 10 18.3999ZM18.4 6.3999C18.6649 6.39982 18.9223 6.48734 19.1322 6.64883C19.3421 6.81032 19.4926 7.0367 19.5604 7.2927L20.9752 12.6399L25 14.9607C25.1824 15.066 25.3339 15.2175 25.4392 15.3999C25.5445 15.5823 25.6 15.7893 25.6 15.9999C25.6 16.2105 25.5445 16.4175 25.4392 16.5999C25.3339 16.7823 25.1824 16.9338 25 17.0391L20.9752 19.3611L19.5592 24.7071C19.4913 24.9629 19.3408 25.189 19.131 25.3503C18.9212 25.5116 18.664 25.5991 18.3994 25.5991C18.1348 25.5991 17.8776 25.5116 17.6679 25.3503C17.4581 25.189 17.3075 24.9629 17.2396 24.7071L15.8248 19.3599L11.8 17.0391C11.6176 16.9338 11.4661 16.7823 11.3608 16.5999C11.2555 16.4175 11.2001 16.2105 11.2001 15.9999C11.2001 15.7893 11.2555 15.5823 11.3608 15.3999C11.4661 15.2175 11.6176 15.066 11.8 14.9607L15.8248 12.6387L17.2408 7.2927C17.3086 7.0369 17.459 6.81066 17.6686 6.64919C17.8783 6.48772 18.1354 6.40008 18.4 6.3999Z" fill="#1E7791"/>
</svg>
