<svg width="14" height="14" viewBox="0 0 14 14" fill="none" xmlns="http://www.w3.org/2000/svg">
<path d="M12.0244 6.17241V4.58059C12.0244 3.6358 11.2514 2.86279 10.3066 2.86279H8.01619C7.57529 2.86279 7.17447 3.03457 6.87099 3.30942C6.56751 3.03457 6.1667 2.86279 5.7258 2.86279H3.43541C2.49062 2.86279 1.71762 3.6358 1.71762 4.58059V6.17241C1.36833 6.48733 1.14502 6.93969 1.14502 7.44357V10.8792H2.29021V9.73396H11.4518V10.8792H12.597V7.44357C12.597 6.93969 12.3736 6.48733 12.0244 6.17241ZM8.01619 4.00799H10.3066C10.6215 4.00799 10.8792 4.26566 10.8792 4.58059V5.72578H7.44359V4.58059C7.44359 4.26566 7.70126 4.00799 8.01619 4.00799ZM2.86281 4.58059C2.86281 4.26566 3.12048 4.00799 3.43541 4.00799H5.7258C6.04073 4.00799 6.29839 4.26566 6.29839 4.58059V5.72578H2.86281V4.58059ZM2.29021 8.58877V7.44357C2.29021 7.12864 2.54788 6.87097 2.86281 6.87097H10.8792C11.1941 6.87097 11.4518 7.12864 11.4518 7.44357V8.58877H2.29021Z" fill="#1E7791"/>
</svg>
