<svg width="91" height="86" viewBox="0 0 91 86" fill="none" xmlns="http://www.w3.org/2000/svg">
<path d="M46.0938 60.4556C36.0023 60.4556 27.3646 61.2312 23.9335 62.3228C22.9012 62.6481 22.334 63.0046 22.334 63.3767C22.334 63.5925 22.5233 63.8021 22.8867 64.0022C24.4862 64.9 29.4448 65.6443 36.0755 66.0228C39.1148 66.198 42.5175 66.2949 46.0944 66.2949C57.4654 66.2949 66.9606 65.3129 69.2869 64.0022C69.651 63.8021 69.8396 63.5925 69.8396 63.3767C69.8396 61.7629 59.21 60.4556 46.0938 60.4556Z" fill="#CE8946"/>
<path d="M56.5818 58.3043C57.7037 58.8513 58.351 59.4931 58.351 60.1797C58.351 62.1947 52.7862 63.8302 45.9207 63.8302C39.0497 63.8302 33.4849 62.1947 33.4849 60.1797C33.4849 59.4597 34.1937 58.7899 35.4216 58.2261C35.1592 58.5778 35.0198 58.946 35.0198 59.3257C35.0198 61.5862 56.9277 61.5862 56.9277 59.3257C56.9278 58.9742 56.8105 58.6337 56.5818 58.3043Z" fill="#CE8946"/>
<path d="M50.1289 49.5762C52.7691 50.7259 50.2293 53.1317 50.2293 53.1317C50.1959 53.1484 50.1623 53.1596 50.1289 53.1763V49.5762Z" fill="#CE8946"/>
<path d="M50.1292 49.5765V53.1767C45.5523 55.108 42.4266 53.5451 41.8237 53.199V49.4648C46.0044 52.3841 49.9505 49.5039 49.9505 49.5039C50.012 49.5262 50.0734 49.5485 50.1292 49.5765Z" fill="#CE8946"/>
<path d="M41.7178 53.1316C39.6247 50.6701 41.8127 49.459 41.8127 49.459C41.8184 49.459 41.8184 49.4646 41.824 49.4646V53.1988C41.7512 53.1539 41.7178 53.1316 41.7178 53.1316Z" fill="#CE8946"/>
<path d="M50.1289 44.77C52.8415 45.9087 50.274 48.3422 50.274 48.3422C50.2237 48.3646 50.1736 48.3869 50.1289 48.4036V44.77Z" fill="#CE8946"/>
<path d="M50.1292 44.7695V48.4031C45.4517 50.3622 42.2982 48.6599 41.8237 48.3808V44.6913C41.8461 44.6746 41.8573 44.6689 41.8573 44.6689C46.0435 47.5993 49.9953 44.7136 49.9953 44.7136C50.0398 44.7305 50.0845 44.7472 50.1292 44.7695Z" fill="#CE8946"/>
<path d="M41.8238 44.6934V48.3829C41.7848 48.3549 41.7624 48.3438 41.7624 48.3438C39.8255 46.0608 41.5558 44.8551 41.8238 44.6934Z" fill="#CE8946"/>
<path d="M45.9203 56.5321C44.7146 56.5321 43.5481 56.5824 42.4428 56.6772C42.2195 56.3255 42.0521 55.9349 41.9517 55.5162C43.1964 55.3319 44.5528 55.2314 45.9704 55.2314C47.3938 55.2314 48.7556 55.3319 50.0003 55.5162C49.8999 55.9347 49.7269 56.3255 49.5035 56.6826C48.3705 56.588 47.1648 56.5321 45.9203 56.5321Z" fill="#CE8946"/>
<path d="M45.9708 55.2303C44.553 55.2303 43.1968 55.3307 41.9521 55.515C41.8684 55.1913 41.8237 54.8508 41.8237 54.4991V53.1986C42.4266 53.5447 45.5523 55.1075 50.1292 53.1763V54.4991C50.1292 54.8508 50.0845 55.1913 50.0008 55.515C48.7561 55.3307 47.3942 55.2303 45.9708 55.2303Z" fill="#CE8946"/>
<path d="M41.9519 55.5142C42.0523 55.9327 42.2197 56.3235 42.4431 56.6752C39.5071 56.9265 37.0233 57.4845 35.4214 58.227C36.3424 56.9821 38.7871 55.983 41.9519 55.5142Z" fill="#CE8946"/>
<path d="M56.9274 59.3282C56.9274 61.5887 35.0195 61.5887 35.0195 59.3282C35.0195 58.9487 35.159 58.5803 35.4214 58.2285C37.0233 57.4862 39.5071 56.9281 42.443 56.6768C43.1743 57.8656 44.4804 58.6527 45.9762 58.6527C47.4664 58.6527 48.7725 57.8657 49.5037 56.6824C52.49 56.9502 55.0072 57.5364 56.5812 58.3012V58.3068C56.8101 58.636 56.9274 58.9765 56.9274 59.3282Z" fill="#CE8946"/>
<path d="M56.5813 58.2994C55.0074 57.5348 52.49 56.9486 49.5039 56.6806C49.7273 56.3235 49.9003 55.9327 50.0007 55.5142C53.2266 55.9941 55.705 57.0267 56.5813 58.2994Z" fill="#CE8946"/>
<path d="M49.5041 56.682C48.7728 57.8653 47.4667 58.6523 45.9765 58.6523C44.4807 58.6523 43.1746 57.8653 42.4434 56.6763C43.5484 56.5815 44.7151 56.5312 45.9208 56.5312C47.1653 56.5312 48.371 56.5872 49.5041 56.682Z" fill="#CE8946"/>
<path d="M41.8237 49.4636V48.3809C42.2982 48.6599 45.4517 50.3622 50.1292 48.4032V49.5753C50.0732 49.5473 50.012 49.525 49.9505 49.5027C49.9505 49.5027 46.0044 52.3829 41.8237 49.4636Z" fill="#CE8946"/>
<path d="M41.8237 44.6927V42.7838C42.8618 42.9401 43.9224 43.0182 44.9997 43.0182C46.7636 43.0182 48.4826 42.8061 50.1294 42.4043V44.771C50.0847 44.7487 50.04 44.732 49.9953 44.7151C49.9953 44.7151 46.0435 47.6009 41.8573 44.6704C41.8573 44.6704 41.8461 44.676 41.8237 44.6927Z" fill="#CE8946"/>
<path d="M66.7625 10.8457C72.266 10.8457 76.7257 15.4785 76.7257 21.1941C76.7257 26.9097 72.266 31.5425 66.7625 31.5425C65.914 31.5425 65.0936 31.4308 64.3066 31.2243C64.9819 29.9293 65.529 28.5562 65.9309 27.1217C66.1932 27.172 66.4611 27.1944 66.7291 27.1944C69.7934 27.1944 72.2772 24.2081 72.2772 20.5242C72.2772 16.8404 69.7991 13.8597 66.7347 13.8541V12.9722C66.7347 12.2577 66.7011 11.549 66.6341 10.8511C66.6786 10.8457 66.7178 10.8457 66.7625 10.8457Z" fill="#CE8946"/>
<path d="M23.9903 26.8527C24.3755 28.3039 24.9113 29.6993 25.5755 31.011C24.9169 31.1561 24.2414 31.2287 23.5438 31.2287C18.0403 31.2287 13.5806 26.5959 13.5806 20.8804C13.5806 15.2151 17.9566 10.6159 23.3931 10.5376C23.3038 11.3358 23.2591 12.1508 23.2591 12.9711V13.5516C20.3121 13.708 17.9621 16.627 17.9621 20.2105C17.9621 23.8944 20.4459 26.8806 23.5102 26.8806C23.672 26.8806 23.834 26.8694 23.9903 26.8527Z" fill="#CE8946"/>
<path d="M66.6342 10.8504C66.6229 10.7443 66.6119 10.6383 66.5952 10.5322H23.544C23.4939 10.5322 23.4436 10.5322 23.3933 10.5379C23.304 11.3361 23.2593 12.151 23.2593 12.9714V13.5519V21.2768C23.2593 23.2025 23.5104 25.0724 23.9905 26.8529C24.3756 28.3041 24.9115 29.6996 25.5757 31.0113C28.7014 37.2126 34.7184 41.7335 41.8238 42.7829C42.862 42.9392 43.9224 43.0173 44.9998 43.0173C46.7636 43.0173 48.4828 42.8052 50.1294 42.4034C56.2971 40.8965 61.449 36.7436 64.3067 31.2234C64.9822 29.9285 65.5291 28.5554 65.9309 27.1209C66.4557 25.2623 66.7348 23.2976 66.7348 21.277V13.8533V12.9714C66.7346 12.2569 66.701 11.548 66.6342 10.8504Z" fill="#CE8946"/>
<path d="M64.0107 2.47266H25.9831H16.9072V10.5326H23.3987H23.5438H66.5951H72.8409V2.47266H64.0107Z" fill="#CE8946"/>
<path d="M52.8418 12.8697L52.025 9.00098L51.2082 12.8697C50.8253 14.6831 50.1301 16.2528 49.2153 17.3697C50.0924 17.8008 50.7849 18.9605 51.0588 20.4569L52.0252 25.7383L52.9916 20.4569C53.2654 18.9605 53.9579 17.8008 54.835 17.3697C53.9198 16.2529 53.2247 14.6831 52.8418 12.8697Z" fill="#F4F2ED"/>
<g clip-path="url(#clip0_1017_15637)">
<path d="M2.69243 64.7607C2.16157 64.1635 2.58553 63.2195 3.38457 63.2195H87.8051C88.6538 63.2195 89.0554 64.2661 88.4246 64.8338L79.8271 72.5716C79.127 73.2017 79.1592 74.3092 79.8946 74.8976L88.0834 81.4486C88.767 81.9955 88.3803 83.0978 87.5049 83.0978H3.6143C2.78927 83.0978 2.3761 82.1003 2.95948 81.5169L9.68587 74.7905C10.2572 74.2192 10.2842 73.3015 9.74737 72.6976L2.69243 64.7607Z" fill="#CE8946" stroke="white" stroke-width="0.600033"/>
<path d="M35.0677 73.4716H33.4085L33.3995 72.7747H34.9058C35.1546 72.7747 35.3719 72.7327 35.5578 72.6488C35.7436 72.5648 35.8875 72.4449 35.9894 72.2891C36.0944 72.1302 36.1468 71.9413 36.1468 71.7225C36.1468 71.4827 36.1004 71.2878 36.0074 71.138C35.9175 70.9851 35.7781 70.8742 35.5893 70.8052C35.4034 70.7333 35.1666 70.6973 34.8788 70.6973H33.6018V76.5337H32.734V69.9869H34.8788C35.2146 69.9869 35.5143 70.0213 35.7781 70.0903C36.0419 70.1562 36.2652 70.2612 36.4481 70.405C36.6339 70.5459 36.7748 70.7258 36.8707 70.9446C36.9667 71.1634 37.0146 71.4257 37.0146 71.7315C37.0146 72.0013 36.9457 72.2456 36.8078 72.4644C36.6699 72.6802 36.4781 72.8571 36.2322 72.995C35.9894 73.1329 35.7047 73.2213 35.3779 73.2603L35.0677 73.4716ZM35.0272 76.5337H33.0668L33.5569 75.8278H35.0272C35.303 75.8278 35.5368 75.7798 35.7286 75.6839C35.9235 75.5879 36.0719 75.453 36.1738 75.2792C36.2757 75.1023 36.3267 74.894 36.3267 74.6542C36.3267 74.4114 36.2832 74.2015 36.1963 74.0247C36.1093 73.8478 35.973 73.7114 35.7871 73.6155C35.6012 73.5196 35.3614 73.4716 35.0677 73.4716H33.8312L33.8401 72.7747H35.5308L35.7152 73.0265C36.0299 73.0534 36.2967 73.1434 36.5155 73.2963C36.7344 73.4461 36.9007 73.638 37.0146 73.8718C37.1315 74.1056 37.19 74.3634 37.19 74.6452C37.19 75.0529 37.1001 75.3976 36.9202 75.6794C36.7433 75.9581 36.493 76.171 36.1693 76.3179C35.8456 76.4617 35.4649 76.5337 35.0272 76.5337ZM39.2008 72.4329V76.5337H38.3689V71.6685H39.1783L39.2008 72.4329ZM40.7206 71.6416L40.7161 72.415C40.6471 72.4 40.5812 72.391 40.5182 72.388C40.4583 72.382 40.3893 72.379 40.3114 72.379C40.1195 72.379 39.9502 72.409 39.8033 72.4689C39.6564 72.5289 39.532 72.6128 39.4301 72.7207C39.3282 72.8286 39.2472 72.9575 39.1873 73.1074C39.1303 73.2543 39.0929 73.4162 39.0749 73.593L38.8411 73.7279C38.8411 73.4341 38.8695 73.1584 38.9265 72.9006C38.9864 72.6428 39.0779 72.415 39.2008 72.2171C39.3237 72.0163 39.4796 71.8604 39.6684 71.7495C39.8603 71.6356 40.0881 71.5786 40.3519 71.5786C40.4118 71.5786 40.4808 71.5861 40.5587 71.6011C40.6366 71.6131 40.6906 71.6266 40.7206 71.6416ZM41.2026 74.1551V74.0517C41.2026 73.7009 41.2535 73.3757 41.3554 73.0759C41.4574 72.7732 41.6042 72.5109 41.7961 72.2891C41.9879 72.0642 42.2203 71.8904 42.493 71.7675C42.7658 71.6416 43.0716 71.5786 43.4103 71.5786C43.752 71.5786 44.0593 71.6416 44.3321 71.7675C44.6079 71.8904 44.8417 72.0642 45.0335 72.2891C45.2284 72.5109 45.3768 72.7732 45.4787 73.0759C45.5806 73.3757 45.6316 73.7009 45.6316 74.0517V74.1551C45.6316 74.5058 45.5806 74.831 45.4787 75.1308C45.3768 75.4306 45.2284 75.6929 45.0335 75.9177C44.8417 76.1395 44.6094 76.3134 44.3366 76.4393C44.0668 76.5622 43.761 76.6236 43.4193 76.6236C43.0776 76.6236 42.7703 76.5622 42.4975 76.4393C42.2248 76.3134 41.9909 76.1395 41.7961 75.9177C41.6042 75.6929 41.4574 75.4306 41.3554 75.1308C41.2535 74.831 41.2026 74.5058 41.2026 74.1551ZM42.0344 74.0517V74.1551C42.0344 74.3979 42.0629 74.6272 42.1198 74.843C42.1768 75.0559 42.2622 75.2447 42.3761 75.4096C42.493 75.5745 42.6384 75.7048 42.8123 75.8008C42.9862 75.8937 43.1885 75.9402 43.4193 75.9402C43.6471 75.9402 43.8465 75.8937 44.0173 75.8008C44.1912 75.7048 44.3351 75.5745 44.449 75.4096C44.5629 75.2447 44.6483 75.0559 44.7053 74.843C44.7652 74.6272 44.7952 74.3979 44.7952 74.1551V74.0517C44.7952 73.8118 44.7652 73.5855 44.7053 73.3727C44.6483 73.1569 44.5614 72.9665 44.4445 72.8016C44.3306 72.6338 44.1867 72.5019 44.0128 72.406C43.842 72.31 43.6411 72.2621 43.4103 72.2621C43.1825 72.2621 42.9817 72.31 42.8078 72.406C42.6369 72.5019 42.493 72.6338 42.3761 72.8016C42.2622 72.9665 42.1768 73.1569 42.1198 73.3727C42.0629 73.5855 42.0344 73.8118 42.0344 74.0517ZM47.5299 72.7072V76.5337H46.6981V71.6685H47.485L47.5299 72.7072ZM47.3321 73.9168L46.9859 73.9033C46.9889 73.5705 47.0383 73.2633 47.1342 72.9815C47.2302 72.6967 47.3651 72.4494 47.5389 72.2396C47.7128 72.0298 47.9196 71.8679 48.1594 71.754C48.4022 71.6371 48.6705 71.5786 48.9643 71.5786C49.2041 71.5786 49.4199 71.6116 49.6118 71.6775C49.8036 71.7405 49.967 71.8424 50.1019 71.9833C50.2398 72.1242 50.3447 72.307 50.4166 72.5319C50.4886 72.7537 50.5246 73.025 50.5246 73.3457V76.5337H49.6882V73.3367C49.6882 73.0819 49.6508 72.8781 49.5758 72.7252C49.5009 72.5693 49.3915 72.4569 49.2476 72.388C49.1037 72.316 48.9268 72.2801 48.717 72.2801C48.5102 72.2801 48.3213 72.3235 48.1504 72.4105C47.9826 72.4974 47.8372 72.6173 47.7143 72.7702C47.5944 72.9231 47.5 73.0984 47.431 73.2963C47.3651 73.4911 47.3321 73.6979 47.3321 73.9168ZM55.4355 75.8502V76.5337H51.8968V75.8502H55.4355ZM55.3052 72.2576L52.0857 76.5337H51.5776V75.9222L54.7746 71.6685H55.3052V72.2576ZM54.9364 71.6685V72.3565H51.6136V71.6685H54.9364ZM58.3501 76.6236C58.0114 76.6236 57.7041 76.5667 57.4283 76.4528C57.1556 76.3358 56.9202 76.1725 56.7224 75.9626C56.5276 75.7528 56.3777 75.504 56.2728 75.2162C56.1678 74.9285 56.1154 74.6137 56.1154 74.272V74.0831C56.1154 73.6874 56.1738 73.3352 56.2907 73.0265C56.4077 72.7147 56.5665 72.4509 56.7674 72.2351C56.9682 72.0193 57.196 71.8559 57.4508 71.745C57.7056 71.6341 57.9694 71.5786 58.2422 71.5786C58.5899 71.5786 58.8897 71.6386 59.1415 71.7585C59.3963 71.8784 59.6046 72.0462 59.7665 72.2621C59.9284 72.4749 60.0483 72.7267 60.1262 73.0175C60.2041 73.3052 60.2431 73.62 60.2431 73.9617V74.3349H56.61V73.656H59.4113V73.593C59.3993 73.3772 59.3543 73.1674 59.2764 72.9635C59.2014 72.7597 59.0815 72.5918 58.9167 72.4599C58.7518 72.328 58.527 72.2621 58.2422 72.2621C58.0534 72.2621 57.8795 72.3025 57.7206 72.3835C57.5617 72.4614 57.4253 72.5783 57.3114 72.7342C57.1975 72.8901 57.1091 73.0804 57.0461 73.3052C56.9832 73.5301 56.9517 73.7894 56.9517 74.0831V74.272C56.9517 74.5028 56.9832 74.7201 57.0461 74.924C57.1121 75.1248 57.2065 75.3017 57.3294 75.4545C57.4553 75.6074 57.6067 75.7273 57.7836 75.8143C57.9634 75.9012 58.1673 75.9447 58.3951 75.9447C58.6888 75.9447 58.9377 75.8847 59.1415 75.7648C59.3453 75.6449 59.5237 75.4845 59.6766 75.2837L60.1802 75.6839C60.0753 75.8427 59.9419 75.9941 59.78 76.138C59.6181 76.2819 59.4188 76.3988 59.182 76.4887C58.9481 76.5787 58.6709 76.6236 58.3501 76.6236Z" fill="white"/>
</g>
<defs>
<clipPath id="clip0_1017_15637">
<rect width="90.3459" height="20.4784" fill="white" transform="translate(0.654297 62.9194)"/>
</clipPath>
</defs>
</svg>
