<svg width="21" height="22" viewBox="0 0 21 22" fill="none" xmlns="http://www.w3.org/2000/svg">
<path fill-rule="evenodd" clip-rule="evenodd" d="M7.09785 3.10317C6.17727 2.25728 4.76227 2.25728 3.84169 3.10317C3.80399 3.13781 3.76374 3.17807 3.71148 3.23034L2.92617 4.01565C2.13595 4.80587 1.80422 5.94505 2.04665 7.03599C3.42212 13.2256 8.25609 18.0596 14.4457 19.4351C15.5367 19.6775 16.6758 19.3458 17.4661 18.5555L18.2513 17.7703C18.3036 17.718 18.3439 17.6777 18.3785 17.64C19.2244 16.7194 19.2244 15.3044 18.3785 14.3838C18.3439 14.3461 18.3036 14.3059 18.2513 14.2536L16.9657 12.968C16.0731 12.0754 14.7251 11.8201 13.568 12.3245C12.9055 12.6133 12.1338 12.4671 11.6228 11.9561L9.52559 9.8589C9.01459 9.3479 8.86844 8.57619 9.15721 7.91373C9.66161 6.75657 9.40633 5.40861 8.51374 4.51602L7.22808 3.23036C7.17581 3.17808 7.13556 3.13781 7.09785 3.10317ZM4.72973 4.06962C5.14818 3.68513 5.79136 3.68513 6.20981 4.06962C6.22425 4.08289 6.24318 4.10162 6.30974 4.16818L7.58566 5.4441C8.09667 5.9551 8.24281 6.7268 7.95405 7.38927C7.44965 8.54643 7.70493 9.89439 8.59752 10.787L10.6947 12.8842C11.5873 13.7768 12.9353 14.0321 14.0924 13.5277C14.7549 13.2389 15.5266 13.385 16.0376 13.896L17.3135 15.172C17.3801 15.2385 17.3988 15.2574 17.4121 15.2719C17.7966 15.6903 17.7966 16.3335 17.4121 16.752C17.3988 16.7664 17.3801 16.7853 17.3135 16.8519L16.538 17.6275C16.0651 18.1004 15.3833 18.2989 14.7304 18.1538C9.03827 16.8889 4.59282 12.4434 3.32789 6.75126C3.18281 6.09839 3.38133 5.41664 3.85425 4.94373L4.6298 4.16818C4.69636 4.10162 4.71529 4.08289 4.72973 4.06962Z" fill="#1E7791"/>
</svg>
