<svg width="24" height="24" viewBox="0 0 24 24" fill="none" xmlns="http://www.w3.org/2000/svg">
<rect width="24" height="24" rx="12" fill="white" fill-opacity="0.97"/>
<path d="M11.82 10.8106C10.8482 10.8106 10.0605 11.5974 10.0605 12.568C10.0605 13.5385 10.8482 14.3253 11.82 14.3253C12.7918 14.3253 13.5795 13.5385 13.5795 12.568C13.5795 11.5974 12.7918 10.8106 11.82 10.8106Z" fill="#323450"/>
<path fill-rule="evenodd" clip-rule="evenodd" d="M13.7962 6.7504C12.6692 5.74987 10.9708 5.74987 9.84383 6.7504L9.72702 6.8541C9.40643 7.13872 8.99241 7.29593 8.56347 7.29593C7.1477 7.29593 6 8.44221 6 9.85621V12.5924C6 13.5855 5.99999 14.3639 6.06699 14.9815C6.13535 15.6117 6.27737 16.1224 6.59453 16.5584C6.78654 16.8223 7.01896 17.0544 7.28323 17.2462C7.71977 17.563 8.23106 17.7048 8.86207 17.7731C9.48041 17.84 10.2598 17.84 11.2541 17.84H12.3859C13.3802 17.84 14.1596 17.84 14.7779 17.7731C15.4089 17.7048 15.9202 17.563 16.3568 17.2462C16.621 17.0544 16.8535 16.8223 17.0455 16.5584C17.3626 16.1224 17.5046 15.6117 17.573 14.9815C17.64 14.3639 17.64 13.5855 17.64 12.5925V9.85621C17.64 8.44221 16.4923 7.29593 15.0765 7.29593C14.6476 7.29593 14.2336 7.13872 13.913 6.8541L13.7962 6.7504ZM9.24837 12.568C9.24837 11.1495 10.3997 9.99954 11.82 9.99954C13.2403 9.99954 14.3916 11.1495 14.3916 12.568C14.3916 13.9865 13.2403 15.1364 11.82 15.1364C10.3997 15.1364 9.24837 13.9865 9.24837 12.568ZM15.0684 10.4051C14.7694 10.4051 14.527 10.163 14.527 9.86439C14.527 9.56576 14.7694 9.32367 15.0684 9.32367C15.3674 9.32367 15.6098 9.56576 15.6098 9.86439C15.6098 10.163 15.3674 10.4051 15.0684 10.4051Z" fill="#323450"/>
</svg>
