<svg width="227" height="227" viewBox="0 0 227 227" fill="none" xmlns="http://www.w3.org/2000/svg">
<path opacity="0.3" d="M113.501 187.999C148.855 187.999 177.515 159.339 177.515 123.985C177.515 88.6308 148.855 59.9706 113.501 59.9706C78.1466 59.9706 49.4863 88.6308 49.4863 123.985C49.4863 159.339 78.1466 187.999 113.501 187.999Z" fill="#BA68C8"/>
<path d="M63.764 101.467C65.1182 101.755 67.0836 102.663 67.0836 102.663L60.5932 105.78C60.5932 105.78 59.4255 105.124 60.0884 103.176C60.7512 101.228 62.7175 101.149 63.764 101.467Z" fill="#BA68C8"/>
<path opacity="0.45" d="M63.764 101.467C65.1182 101.755 67.0836 102.663 67.0836 102.663L60.5932 105.78C60.5932 105.78 59.4255 105.124 60.0884 103.176C60.7512 101.228 62.7175 101.149 63.764 101.467Z" fill="black"/>
<path d="M96.8289 67.0388C96.7149 61.8782 97.4018 57.0858 98.0306 54.2796C98.8742 50.5118 102.918 50.4478 104.092 53.2476C104.852 55.0586 105.385 56.846 105.611 62.2863L96.8289 67.0388Z" fill="#BA68C8"/>
<path opacity="0.45" d="M96.8289 67.0388C96.7149 61.8782 97.4018 57.0858 98.0306 54.2796C98.8742 50.5118 102.918 50.4478 104.092 53.2476C104.852 55.0586 105.385 56.846 105.611 62.2863L96.8289 67.0388Z" fill="black"/>
<path d="M84.8047 76.4871C84.807 71.3255 85.359 67.057 85.991 64.2522C86.9262 60.1013 91.75 61.8002 92.8614 64.6254C93.5805 66.4527 93.5601 66.9285 93.664 72.3725L84.8047 76.4871Z" fill="#BA68C8"/>
<path opacity="0.45" d="M84.8047 76.4871C84.807 71.3255 85.359 67.057 85.991 64.2522C86.9262 60.1013 91.75 61.8002 92.8614 64.6254C93.5805 66.4527 93.5601 66.9285 93.664 72.3725L84.8047 76.4871Z" fill="black"/>
<path d="M109.273 68.0703C109.063 62.6169 109.695 60.2143 110.46 58.2598C111.293 56.1301 114.633 56.1001 115.688 58.2326C116.35 59.5719 117.641 62.6686 118.395 67.9023L109.273 68.0703Z" fill="#BA68C8"/>
<path opacity="0.45" d="M109.273 68.0703C109.063 62.6169 109.695 60.2143 110.46 58.2598C111.293 56.1301 114.633 56.1001 115.688 58.2326C116.35 59.5719 117.641 62.6686 118.395 67.9023L109.273 68.0703Z" fill="black"/>
<path d="M122.209 83.3514C123.457 78.8554 124.081 76.7707 125.017 75.0682C126.574 72.237 128.578 72.7455 129.505 74.8539C130.233 76.5114 130.533 80.1089 129.722 83.0749C126.186 85.4044 122.209 83.3514 122.209 83.3514Z" fill="#BA68C8"/>
<path opacity="0.45" d="M122.209 83.3514C123.457 78.8554 124.081 76.7707 125.017 75.0682C126.574 72.237 128.578 72.7455 129.505 74.8539C130.233 76.5114 130.533 80.1089 129.722 83.0749C126.186 85.4044 122.209 83.3514 122.209 83.3514Z" fill="black"/>
<path d="M130.623 75.8767C129.446 74.043 126.54 73.1599 125.156 74.7131C124.284 75.691 121.609 84.307 120.685 88.3045C120.124 91.4579 119.567 93.1196 118.583 97.9293C118.583 97.9293 118.78 92.4581 118.724 91.5882C119.098 87.0814 119.798 83.4548 119.52 76.8723C119.754 72.2669 119.849 70.2679 119.613 65.7729C119.288 59.579 114.497 57.4048 111.872 58.0199C109.755 58.5157 109.39 61.1879 109.166 66.2691C109.199 64.7319 108.952 61.8267 108.647 60.2096C107.464 53.9367 102.537 52.6677 100.01 53.6084C97.7001 54.4687 97.0241 58.2519 96.8493 61.9266C96.6709 65.6803 96.6282 69.8017 96.062 73.7701C96.062 73.7701 95.8904 67.4949 93.1882 64.948C91.5774 63.4298 88.5325 63.0217 87.4324 63.6436C86.2234 64.3274 85.7399 65.4551 85.0544 70.4986C84.7184 72.9697 84.2753 76.781 83.8254 79.9123C83.0935 85.0057 82.9837 90.3198 82.2523 93.8346C81.3692 98.0768 80.6115 104.562 80.5107 110.58C80.4286 115.504 80.3918 120.479 80.2737 125.376C80.0749 124.544 79.4447 123.163 79.1292 122.017C78.6625 120.322 78.0955 118.802 77.5824 117.101C76.5514 113.682 74.9206 110.442 72.7687 107.59C70.6848 104.829 67.8646 102.304 64.4278 101.913C63.0753 101.759 61.4995 102.068 60.8053 103.239C60.5048 103.745 60.4122 104.348 60.379 104.937C60.2646 106.981 60.7958 108.999 61.2725 110.989C61.5907 112.318 61.8831 113.59 62.1723 114.941C63.3137 120.271 63.1725 125.712 64.0137 131.068C64.7592 135.812 66.5993 140.231 67.5949 144.863C68.1837 147.601 69.2511 150.105 70.2553 152.701C70.6571 153.739 70.9922 154.754 71.4466 155.792C72.0019 157.061 72.4618 158.384 72.6157 159.767C73.086 163.995 70.8115 168.239 69.2883 172.062C67.8119 175.768 66.3918 179.496 64.9453 183.214C64.8391 183.486 63.641 186.112 63.7618 186.225C61.7333 191.024 63.9656 196.302 70.4592 200.051C80.3546 205.764 96.398 205.764 106.293 200.051C110.656 197.532 113.093 194.323 113.609 191.032C113.61 191.032 113.611 191.033 113.611 191.033C114.46 185.692 115.922 177.238 117.851 173.228C119.649 169.491 120.197 169.085 122.208 165.472C124.941 160.564 126.435 157.435 126.987 151.845C127.413 147.532 127.516 143.825 127.849 139.506C127.948 138.226 128.067 136.949 128.221 135.674C128.89 130.133 130.22 124.265 128.563 118.765C128.45 118.387 127.801 117.307 127.865 116.933C127.868 116.914 129.615 106.766 129.448 100.957C129.448 100.957 130.965 95.292 131.04 89.8417C132.426 83.6246 133.108 79.7497 130.623 75.8767Z" fill="#FFBDA7"/>
<path d="M83.3152 130.124C82.1992 127.255 82.0553 125.092 81.728 122.55C81.3507 119.622 81.0928 105.97 81.4597 98.8033C81.4592 98.8079 81.4583 98.8129 81.4579 98.8179C81.3997 99.4399 81.3121 100.094 81.2077 100.768C80.8304 103.964 80.5667 107.493 80.5104 110.874C80.4227 116.138 80.1467 121.813 80.2988 125.689C80.8563 126.613 81.4515 127.512 82.0285 128.424C82.1298 128.584 83.3311 130.164 83.3152 130.124Z" fill="#F0997A"/>
<path d="M121.053 113.13C111.192 107.799 94.6535 109.051 89.043 111.604C89.043 111.604 93.5249 107.691 105.664 108.051C118.087 108.42 121.053 113.13 121.053 113.13Z" fill="#F0997A"/>
<path d="M120.684 88.3046C120.123 91.4581 119.566 93.1198 118.582 97.9276C118.675 100.905 118.64 106.417 117.459 111.208L119.49 111.961C119.49 111.961 120.752 106.38 120.317 99.4549C119.859 92.1636 121.496 85.1852 121.5 85.1611C121.17 86.3438 120.885 87.4339 120.684 88.3046Z" fill="#F0997A"/>
<path d="M128.747 101.157C128.747 101.157 125.2 101.844 122.207 100.119C122.207 100.119 123.126 101.466 125.489 101.736C128.123 102.036 128.747 101.157 128.747 101.157Z" fill="#F0997A"/>
<path d="M117.85 91.5826C117.85 91.5826 114.338 92.4315 111.27 90.8444C111.27 90.8444 112.249 92.1483 114.622 92.3094C117.266 92.4892 117.85 91.5826 117.85 91.5826Z" fill="#F0997A"/>
<path d="M107.657 88.9199C107.657 88.9199 104.341 90.3555 101.047 89.3149C101.047 89.3149 102.235 90.4322 104.6 90.1866C107.236 89.9133 107.657 88.9199 107.657 88.9199Z" fill="#F0997A"/>
<path d="M130.829 89.8997C130.829 89.8997 127.288 90.6188 124.279 88.9199C124.279 88.9199 125.21 90.2588 127.575 90.5071C130.212 90.7845 130.829 89.8997 130.829 89.8997Z" fill="#F0997A"/>
<path d="M118.833 76.5511C118.833 76.5511 115.308 77.3456 112.264 75.7112C112.264 75.7112 113.223 77.03 115.593 77.228C118.235 77.4486 118.833 76.5511 118.833 76.5511Z" fill="#F0997A"/>
<path d="M107.663 72.3483C107.663 72.3483 104.284 73.6304 101.041 72.4404C101.041 72.4404 102.176 73.6108 104.55 73.4742C107.197 73.3212 107.663 72.3483 107.663 72.3483Z" fill="#F0997A"/>
<path d="M95.4664 80.4309C95.4664 80.4309 92.0977 81.7384 88.8457 80.5726C88.8457 80.5726 89.9862 81.6535 92.3624 81.58C95.0455 81.4969 95.4664 80.4309 95.4664 80.4309Z" fill="#F0997A"/>
<path d="M94.0452 93.484C94.0452 93.484 90.5711 94.4778 87.4395 93.0195C87.4395 93.0195 88.4759 94.1999 90.8494 94.3443C93.528 94.5068 94.0452 93.484 94.0452 93.484Z" fill="#F0997A"/>
<path d="M108.858 72.3484C109.468 76.5833 110.065 83.737 108.688 89.0665C109.357 93.3482 109.208 101.316 107.635 109.296L109.456 109.556C109.456 109.556 111.663 96.7414 110.139 89.1696C110.139 89.1696 112.265 81.9324 110.69 74.9744C110.734 74.4355 109.531 61.8016 109.539 61.7035C109.32 63.0001 109.182 65.3963 109.147 66.7234V66.722C108.954 70.917 108.858 72.3484 108.858 72.3484Z" fill="#F0997A"/>
<path d="M94.8398 93.7073C95.9117 97.4896 95.9975 104.706 95.5694 109.816L97.2851 109.667C97.3686 106.22 97.6083 98.5769 96.0906 93.5529C96.5265 91.8082 98.0242 85.0409 96.7802 80.1695C97.093 77.4909 97.266 74.8154 97.271 72.2944C97.276 69.7415 97 64.6018 96.8306 62.345C96.6677 65.9865 96.6068 69.9486 96.0616 73.7717V73.7712C96.0616 73.7712 96.0616 73.7712 96.0616 73.7717C96.1596 77.3488 95.7619 80.5354 95.7619 80.5354C96.2141 82.6379 95.9594 89.8528 94.8398 93.7073Z" fill="#F0997A"/>
<path d="M77.4762 119.247C77.4762 119.247 77.3232 120.419 70.5781 122.958C70.5781 122.958 76.2336 122.761 77.4762 119.247Z" fill="#F0997A"/>
<path d="M128.015 116.001C126.677 114.637 125.188 114.386 125.188 114.386C125.188 114.386 126.586 115.032 127.866 116.934C127.866 116.934 127.924 116.591 128.015 116.001Z" fill="#F0997A"/>
<path d="M87.1484 127.652C92.0466 129.618 101.793 134.811 106.425 144.153C111.058 153.495 107.956 167.566 107.956 167.566C111.19 162.412 114.502 151.193 109.411 141.685C104.364 132.258 94.2163 128.115 87.1484 127.652Z" fill="#F0997A"/>
<path opacity="0.4" d="M94.0471 174.775C89.435 173.35 84.5572 172.381 80.7962 169.182C76.8701 165.842 74.1374 161.194 71.807 156.667C72.1943 157.667 72.4971 158.7 72.6161 159.768C73.0864 163.996 70.8119 168.241 69.2887 172.064C68.254 174.661 67.2462 177.269 66.2383 179.876C67.1908 179.156 68.1873 178.495 69.2247 177.903C70.9113 176.942 72.7164 176.149 74.6255 175.797C77.4993 175.267 80.4344 175.721 83.2978 176.09C87.0151 176.567 90.7724 176.82 94.4113 175.72C94.5343 175.683 94.6659 175.637 94.7377 175.531C94.9365 175.235 94.5116 174.92 94.1711 174.814C94.1293 174.8 94.088 174.787 94.0471 174.775Z" fill="#F0997A"/>
<path d="M62.1727 114.942C62.1727 114.942 62.9944 115.657 63.9424 115.294C64.8903 114.93 64.054 107.545 61.4753 105.306C61.133 105.009 59.2435 103.997 60.575 102.436C61.809 100.991 63.5705 101.414 63.5705 101.414C63.5705 101.414 61.3968 100.828 60.0657 102.514C58.6669 104.285 59.5613 105.586 60.4071 108.691C61.2529 111.795 61.8975 114.207 62.1727 114.942Z" fill="#BA68C8"/>
<path opacity="0.2" d="M62.1727 114.942C62.1727 114.942 62.9944 115.657 63.9424 115.294C64.8903 114.93 64.054 107.545 61.4753 105.306C61.133 105.009 59.2435 103.997 60.575 102.436C61.809 100.991 63.5705 101.414 63.5705 101.414C63.5705 101.414 61.3968 100.828 60.0657 102.514C58.6669 104.285 59.5613 105.586 60.4071 108.691C61.2529 111.795 61.8975 114.207 62.1727 114.942Z" fill="black"/>
<path d="M170.957 191.809C170.957 191.807 170.958 191.801 170.958 191.801C170.574 191.1 168.81 188.434 167.737 186.75C162.385 178.358 157.261 172.412 157.137 162.459C157.079 157.836 158.259 153.298 158.863 148.714C159.669 142.599 159.471 136.804 159.051 130.692C158.615 124.332 158.511 117.904 159.532 111.592C159.87 109.504 160.535 105.874 158.082 104.735C155.664 103.611 153.072 104.323 151.172 106.143C149.537 107.707 148.47 109.015 147.533 111.074C146.915 112.433 146.251 114.08 145.893 116.399C144.818 109.142 143.904 103.905 143.4 97.8861C143.111 94.4266 143.587 94.2105 142.717 89.0667C141.847 83.9224 141.571 81.6924 141.319 78.2779C141.066 74.8633 140.111 68.9086 139.68 66.3717C139.248 63.8347 138.367 61.7663 136.481 61.2156C134.596 60.6649 132.952 61.2674 131.919 61.6437C131.919 61.6437 131.772 57.0152 131.464 53.7628C131.191 50.8721 128.634 49.4098 125.571 50.3119C122.507 51.214 120.578 54.2749 120.124 57.3584C116.347 56.549 113.392 58.1988 112.235 61.671C111.079 65.1432 110.275 70.277 110.155 72.1216C110.035 73.9662 110.29 76.9908 110.24 77.2069C109.932 78.5348 109.096 85.5042 108.868 88.8792C108.641 92.2547 108.706 94.1692 108.784 95.7696C108.863 97.3699 108.008 101.169 107.809 106.105C107.809 106.105 106.581 99.4856 106.359 98.213C106.136 96.9404 106.064 93.6857 105.698 91.8919C105.332 90.0982 104.921 85.4188 104.645 83.3853C104.312 80.9229 103.325 79.811 101.491 79.6031C98.6221 79.2785 95.0532 81.4931 94.4789 87.5417C93.9046 93.5899 94.6028 95.7496 94.7563 98.3002C94.1302 101.717 94.4734 107.895 94.9874 110.816C94.8997 118.61 96.8751 129.602 97.4621 132.059C98.0491 134.516 98.1749 140.469 99.9523 152.724C102.294 168.869 104.487 172.164 107.671 177.358C110.854 182.553 113.421 183.424 117.969 191.764C119.105 193.847 119.996 196.333 120.651 198.58C120.765 198.97 120.753 198.959 120.753 198.959C121.591 201.958 124.015 204.844 128.02 207.156C138.151 213.004 154.574 213.004 164.705 207.156C171.893 203.004 173.974 197.023 170.957 191.809Z" fill="#B16668"/>
<path d="M154.972 120.716C154.912 120.759 154.981 120.903 155.054 120.878C155.463 120.74 155.868 120.599 156.296 120.528C156.723 120.458 157.155 120.451 157.586 120.469C157.979 120.485 158.369 120.539 158.756 120.605C158.759 120.487 158.761 120.369 158.764 120.251C158.322 120.181 157.873 120.131 157.425 120.124C156.617 120.11 155.643 120.23 154.972 120.716Z" fill="#9A4A4D"/>
<path d="M158.736 122.297C158.478 122.368 158.217 122.426 157.952 122.466C156.935 122.619 155.902 122.527 154.884 122.446C154.738 122.434 154.824 122.66 154.931 122.677C156.002 122.849 157.09 122.978 158.172 122.822C158.363 122.794 158.552 122.753 158.739 122.706C158.738 122.57 158.736 122.433 158.736 122.297Z" fill="#9A4A4D"/>
<path d="M153.511 121.788C154.127 121.88 154.745 121.919 155.367 121.898C155.669 121.888 155.971 121.867 156.271 121.836C156.547 121.806 156.866 121.784 157.121 121.667C157.185 121.638 157.153 121.507 157.085 121.505C156.768 121.497 156.448 121.562 156.133 121.596C155.846 121.626 155.558 121.647 155.27 121.657C154.676 121.678 154.079 121.663 153.485 121.62C153.397 121.613 153.439 121.777 153.511 121.788Z" fill="#9A4A4D"/>
<path d="M131.92 61.6431C131.945 69.9172 132.236 72.7039 132.284 76.3767C132.333 80.0496 132.14 84.6164 132.273 88.0305C132.407 91.4445 132.654 94.8845 133.082 98.9759C133.509 103.067 133.976 108.6 134.132 111.159C134.288 113.719 136.475 118.602 139.206 119.059C136.783 117.46 135.321 113.977 135.026 109.017C134.731 104.058 134.469 99.4136 134.035 94.1931C133.601 88.972 133.419 84.0557 133.394 79.374C133.361 73.2873 131.92 61.6431 131.92 61.6431Z" fill="#9A4A4D"/>
<path d="M140.098 77.7087C139.601 77.784 139.113 77.9139 138.617 78.0006C138.135 78.085 137.647 78.1386 137.158 78.1663C136.146 78.224 135.156 78.1232 134.151 78.0237C134.09 78.0178 134.117 78.1341 134.159 78.1472C135.132 78.446 136.198 78.5118 137.21 78.4659C137.712 78.4432 138.213 78.3851 138.708 78.2966C139.202 78.2081 139.725 78.0996 140.174 77.8698C140.248 77.8326 140.164 77.6987 140.098 77.7087Z" fill="#9A4A4D"/>
<path d="M139.473 79.3302C139.148 79.4079 138.833 79.505 138.504 79.5613C138.207 79.6122 137.909 79.6399 137.608 79.6444C137.273 79.6499 136.937 79.6312 136.602 79.6063C136.323 79.5854 136.038 79.5382 135.758 79.569C135.677 79.5781 135.731 79.7111 135.782 79.7284C136.126 79.8455 136.504 79.8728 136.865 79.9077C137.174 79.9377 137.487 79.9459 137.798 79.9372C138.371 79.9214 139.078 79.8601 139.544 79.4878C139.599 79.4442 139.547 79.3125 139.473 79.3302Z" fill="#9A4A4D"/>
<path d="M141.754 90.8353C141.588 90.6128 141.328 90.5216 141.075 90.4303C140.813 90.3368 140.543 90.2642 140.271 90.2074C139.717 90.0917 139.147 90.0549 138.581 90.0708C137.34 90.1057 136.053 90.4063 134.906 90.8744C134.846 90.8989 134.897 91.0269 134.956 91.0165C136.15 90.8035 137.308 90.4689 138.528 90.4172C139.045 90.3954 139.564 90.4253 140.074 90.5184C140.337 90.5665 140.596 90.6337 140.849 90.7204C141.117 90.8122 141.365 90.937 141.645 90.9892C141.734 91.0065 141.817 90.9193 141.754 90.8353Z" fill="#9A4A4D"/>
<path d="M140.416 94.3516C140.084 94.1605 139.691 94.0669 139.321 93.9798C138.927 93.8872 138.53 93.8091 138.129 93.7505C137.702 93.6883 137.272 93.657 136.84 93.6465C136.417 93.6361 135.944 93.5934 135.531 93.701C135.471 93.7164 135.522 93.8213 135.565 93.8277C136.003 93.8912 136.456 93.8585 136.897 93.8976C137.281 93.9316 137.664 93.9784 138.046 94.0347C138.442 94.0928 138.836 94.1627 139.226 94.254C139.619 94.3461 140.016 94.4805 140.418 94.5255C140.526 94.5373 140.467 94.3806 140.416 94.3516Z" fill="#9A4A4D"/>
<path d="M141.501 96.6137C141.296 96.5597 141.071 96.6214 140.866 96.6532C140.63 96.69 140.394 96.7177 140.155 96.7295C139.677 96.7531 139.198 96.7335 138.725 96.6564C137.753 96.497 136.864 96.0966 136.017 95.609C135.976 95.5858 135.975 95.6639 135.995 95.683C136.668 96.3268 137.523 96.729 138.422 96.9497C138.94 97.0763 139.477 97.1453 140.01 97.1385C140.285 97.1353 140.561 97.1108 140.833 97.0695C141.069 97.0336 141.477 97.0032 141.61 96.7839C141.654 96.7131 141.562 96.6296 141.501 96.6137Z" fill="#9A4A4D"/>
<path d="M139.08 98.842C138.831 98.7798 138.557 98.7816 138.302 98.7398C138.001 98.6903 137.702 98.6245 137.41 98.5341C137.131 98.4474 136.856 98.3421 136.59 98.22C136.313 98.092 136.048 97.9362 135.766 97.8182C135.699 97.79 135.716 97.9067 135.742 97.9326C136.153 98.3407 136.728 98.5941 137.273 98.773C137.56 98.8669 137.853 98.9464 138.151 98.9954C138.312 99.0217 138.477 99.0472 138.64 99.0563C138.808 99.0658 138.991 99.0844 139.155 99.0444C139.273 99.0163 139.139 98.8569 139.08 98.842Z" fill="#9A4A4D"/>
<path d="M141.906 97.622C141.525 97.7106 141.134 97.7909 140.746 97.8377C140.563 97.8595 140.381 97.8763 140.197 97.884C140.016 97.8913 139.827 97.8854 139.648 97.9053C139.578 97.9135 139.615 98.032 139.666 98.0443C140.034 98.1305 140.451 98.1042 140.822 98.0465C141.213 97.9857 141.569 97.874 141.92 97.691C141.942 97.6792 141.935 97.6157 141.906 97.622Z" fill="#9A4A4D"/>
<path d="M120.123 57.3577C122.166 58.2843 122.786 59.2295 122.748 62.6023C122.709 65.975 122.665 69.2815 122.656 72.3188C122.648 75.356 122.592 79.1742 122.453 80.9611C122.314 82.7481 122.421 89.371 122.731 92.337C123.041 95.3025 123.356 99.5674 123.733 103.174C124.11 106.78 124.491 114.162 124.757 116.087C125.024 118.013 125.474 119.202 126.361 120.216C125.233 114.41 125.325 110.934 125.062 105.923C124.799 100.913 123.916 93.7135 123.62 90.8801C123.324 88.0463 123.608 82.6695 123.756 79.1102C123.905 75.5508 123.814 65.3385 123.62 62.2341C123.426 59.1287 122.797 57.9565 120.123 57.3577Z" fill="#9A4A4D"/>
<path d="M130.73 69.2207C130.506 69.2098 130.293 69.2833 130.079 69.341C129.844 69.4036 129.608 69.46 129.37 69.5072C128.935 69.5939 128.495 69.6602 128.052 69.7006C127.604 69.7419 127.152 69.7578 126.702 69.7578C126.251 69.7578 125.79 69.7482 125.397 69.499C125.315 69.4463 125.313 69.5971 125.366 69.6361C125.673 69.8636 126.037 69.9521 126.412 69.9957C126.923 70.0547 127.441 70.0606 127.954 70.032C128.467 70.0034 128.976 69.9416 129.48 69.8418C129.725 69.7932 129.969 69.7378 130.211 69.6742C130.416 69.6207 130.685 69.5707 130.841 69.4159C130.91 69.3478 130.806 69.2243 130.73 69.2207Z" fill="#9A4A4D"/>
<path d="M128.989 71.2461C128.689 71.2138 128.389 71.2774 128.088 71.2897C127.801 71.301 127.512 71.2942 127.225 71.2751C127.114 71.2679 127.178 71.444 127.262 71.454C127.554 71.4881 127.845 71.5003 128.138 71.4926C128.28 71.489 128.422 71.4808 128.563 71.4681C128.73 71.4536 128.874 71.4386 129.023 71.3555C129.062 71.3333 129.026 71.2502 128.989 71.2461Z" fill="#9A4A4D"/>
<path d="M129.009 88.9634C128.621 88.8934 128.214 88.927 127.823 88.952C127.491 88.9733 127.158 89.0006 126.828 89.0374C126.479 89.0764 126.132 89.1291 125.786 89.1876C125.437 89.2467 125.069 89.298 124.736 89.4205C124.666 89.446 124.737 89.5749 124.796 89.5708C125.169 89.5449 125.541 89.4677 125.912 89.4183C126.259 89.372 126.606 89.3361 126.954 89.3034C127.292 89.2716 127.631 89.2457 127.97 89.2285C128.333 89.2103 128.714 89.223 129.07 89.145C129.176 89.1218 129.072 88.9747 129.009 88.9634Z" fill="#9A4A4D"/>
<path d="M132.656 87.2604C132.409 86.9013 131.856 86.7828 131.45 86.736C130.985 86.6824 130.517 86.7029 130.052 86.7474C129.488 86.8009 128.926 86.8718 128.366 86.9639C127.795 87.0579 127.215 87.1709 126.687 87.4125C126.635 87.4365 126.672 87.5405 126.727 87.5305C127.246 87.4402 127.765 87.3453 128.289 87.2863C128.794 87.23 129.301 87.2014 129.807 87.1605C130.248 87.1246 130.696 87.0897 131.138 87.1169C131.63 87.1469 132.07 87.3012 132.546 87.4061C132.632 87.4252 132.713 87.3444 132.656 87.2604Z" fill="#9A4A4D"/>
<path d="M127.5 91.7717C127.122 91.6046 126.7 91.5397 126.306 91.4162C126.078 91.3444 125.85 91.2704 125.625 91.1892C125.437 91.1211 125.251 91.0403 125.059 90.984C124.942 90.9495 124.973 91.1143 125.041 91.1538C125.411 91.369 125.846 91.5115 126.251 91.6418C126.459 91.7081 126.667 91.7694 126.878 91.8252C127.088 91.8811 127.305 91.9442 127.524 91.9328C127.612 91.9287 127.543 91.7907 127.5 91.7717Z" fill="#9A4A4D"/>
<path d="M133.068 92.5022C132.745 92.5362 132.427 92.6484 132.115 92.7351C131.815 92.8186 131.512 92.8931 131.208 92.9603C130.587 93.0969 129.961 93.2045 129.327 93.2381C128.114 93.3021 126.829 93.067 125.779 92.4309C125.656 92.356 125.575 92.5067 125.678 92.593C126.664 93.4179 127.925 93.6803 129.188 93.6549C129.856 93.6417 130.53 93.5337 131.178 93.373C131.509 93.2908 131.838 93.1941 132.165 93.0946C132.508 92.9902 132.883 92.8999 133.192 92.7151C133.31 92.6447 133.163 92.4922 133.068 92.5022Z" fill="#9A4A4D"/>
<path d="M131.893 90.8124C131.212 90.6072 130.443 90.6398 129.738 90.6562C129.366 90.6653 128.995 90.6907 128.625 90.7247C128.249 90.7592 127.858 90.7869 127.491 90.8827C127.345 90.9209 127.474 91.102 127.582 91.0988C127.97 91.0879 128.358 91.0348 128.746 91.0117C129.116 90.9894 129.486 90.9822 129.856 90.9781C130.208 90.974 130.559 90.9799 130.91 90.9953C131.249 91.0103 131.6 91.0371 131.937 90.9912C132.034 90.9785 131.947 90.8287 131.893 90.8124Z" fill="#9A4A4D"/>
<path d="M123.463 75.3475C123.227 75.2667 122.897 75.4832 122.679 75.5645C122.396 75.6698 122.109 75.7651 121.82 75.8491C121.194 76.0307 120.557 76.1592 119.911 76.2437C118.551 76.4221 117.118 76.4098 115.767 76.1574C115.662 76.1374 115.723 76.3127 115.8 76.3317C117.108 76.6595 118.419 76.7853 119.764 76.6545C120.416 76.591 121.062 76.4711 121.696 76.3036C122.014 76.2192 122.33 76.1224 122.641 76.0126C122.796 75.9576 122.951 75.9009 123.104 75.8387C123.27 75.7711 123.484 75.7066 123.584 75.5495C123.639 75.4632 123.533 75.3715 123.463 75.3475Z" fill="#9A4A4D"/>
<path d="M122.001 77.4926C121.311 77.6664 120.648 77.8703 119.937 77.9502C119.612 77.9865 119.286 78.0042 118.96 78.0265C118.583 78.0519 118.189 78.0364 117.819 78.1177C117.722 78.1391 117.808 78.2943 117.872 78.3052C118.547 78.4219 119.284 78.3633 119.961 78.2961C120.346 78.258 120.729 78.2003 121.105 78.1095C121.461 78.0237 121.841 77.9193 122.145 77.7105C122.258 77.6315 122.105 77.4662 122.001 77.4926Z" fill="#9A4A4D"/>
<path d="M123.206 94.6213C122.965 94.5169 122.666 94.5197 122.406 94.5106C122.132 94.501 121.857 94.5069 121.583 94.5142C121.012 94.5287 120.441 94.5673 119.873 94.6322C119.31 94.6967 118.74 94.7825 118.188 94.9105C117.718 95.0195 117.035 95.1185 116.717 95.5216C116.647 95.6102 116.782 95.7595 116.88 95.7096C117.37 95.459 117.851 95.3536 118.39 95.2588C118.924 95.1648 119.458 95.0862 119.998 95.0272C120.507 94.9714 121.018 94.9355 121.53 94.9196C122.093 94.9019 122.71 94.9805 123.261 94.8565C123.403 94.8247 123.278 94.6522 123.206 94.6213Z" fill="#9A4A4D"/>
<path d="M123.217 93.286C122.918 93.0023 122.476 92.9364 122.078 92.8997C121.678 92.8629 121.275 92.8865 120.878 92.9419C120.448 93.0018 120.026 93.0908 119.603 93.1825C119.125 93.286 118.583 93.3419 118.133 93.5362C118.059 93.5679 118.14 93.691 118.199 93.6901C118.686 93.6855 119.184 93.5543 119.664 93.4717C120.034 93.4081 120.404 93.3405 120.777 93.2951C121.163 93.2483 121.554 93.2202 121.942 93.2488C122.334 93.2774 122.698 93.4068 123.08 93.489C123.196 93.5144 123.325 93.3886 123.217 93.286Z" fill="#9A4A4D"/>
<path d="M117.593 97.9536C117.42 97.8851 117.245 97.8388 117.078 97.7539C116.947 97.6876 116.816 97.6204 116.693 97.541C116.453 97.3852 116.243 97.1877 116.083 96.9498C115.75 96.4568 115.591 95.8239 115.659 95.2315C115.663 95.1951 115.611 95.1225 115.588 95.1824C115.451 95.5461 115.407 95.9029 115.474 96.2884C115.536 96.6466 115.682 96.9766 115.908 97.2622C116.107 97.5146 116.354 97.7289 116.636 97.8837C116.784 97.965 116.941 98.0213 117.105 98.0612C117.26 98.0985 117.463 98.142 117.621 98.1048C117.704 98.0853 117.644 97.9736 117.593 97.9536Z" fill="#9A4A4D"/>
<path d="M122.398 98.3077C122.092 98.3903 121.804 98.6 121.507 98.7181C121.222 98.8311 120.925 98.9138 120.624 98.971C120.298 99.0327 119.966 99.0586 119.635 99.0491C119.257 99.0382 118.897 98.9691 118.522 98.9242C118.396 98.9088 118.419 99.0767 118.502 99.119C118.823 99.2806 119.233 99.3378 119.588 99.3582C119.948 99.3791 120.31 99.3582 120.666 99.3024C121.015 99.2474 121.357 99.1526 121.685 99.0227C121.84 98.9614 121.992 98.8942 122.138 98.813C122.287 98.7308 122.492 98.6373 122.575 98.4834C122.624 98.3939 122.477 98.2863 122.398 98.3077Z" fill="#9A4A4D"/>
<path d="M121.552 100.535C120.94 100.608 120.333 100.744 119.714 100.775C119.189 100.801 118.662 100.769 118.143 100.69C117 100.514 115.972 100.084 114.991 99.481C114.964 99.4647 114.96 99.5173 114.976 99.531C115.885 100.316 117.071 100.814 118.25 101.015C118.853 101.117 119.473 101.139 120.082 101.088C120.377 101.063 120.679 101.025 120.967 100.954C121.207 100.894 121.416 100.816 121.624 100.693C121.691 100.652 121.619 100.527 121.552 100.535Z" fill="#9A4A4D"/>
<path d="M114.065 126.16C114.448 121.927 113.549 118.592 112.49 112.848C111.431 107.103 111.048 102.561 110.951 98.1184C110.854 93.6756 110.777 88.5617 111.162 84.3386C111.546 80.1155 112.068 78.087 111.882 74.5517C111.696 71.0164 111.728 67.6995 112.488 63.6744C113.239 59.7032 114.727 58.1442 116.022 57.5431C114.259 58.1819 112.925 59.5983 112.235 61.6704C111.078 65.1426 110.274 70.2764 110.154 72.121C110.035 73.9656 110.289 76.9902 110.239 77.2063C109.931 78.5342 109.096 85.5036 108.868 88.8786C108.64 92.2541 108.706 94.1686 108.784 95.769C108.862 97.3693 108.007 101.168 107.809 106.104C108.744 111.237 109.453 114.504 111.206 118.11C112.958 121.716 113.896 125.417 114.065 126.16Z" fill="#9A4A4D"/>
<path d="M105.275 165.982C103.297 158.578 102.245 139.092 101.509 132.047C100.919 126.402 98.9239 120.935 97.9242 116.607C96.9244 112.279 96.1799 108.302 96.3165 103.323C96.4532 98.3452 96.6384 96.9764 96.0246 93.2005C95.4122 89.4314 95.1788 83.0282 97.3149 81.007C95.9011 82.2573 94.7779 84.3725 94.4769 87.5414C93.9026 93.5896 94.6009 95.7493 94.7543 98.2998C94.1283 101.717 94.4715 107.895 94.9854 110.816C94.8978 118.61 96.8731 129.602 97.4597 132.059C98.0467 134.516 98.1725 140.469 99.9499 152.724C102.292 168.868 104.484 172.163 107.668 177.358C110.852 182.552 113.418 183.424 117.966 191.764C119.077 193.801 119.95 196.222 120.604 198.429L120.605 198.429C120.605 198.429 119.165 190.973 116.079 185.227C112.992 179.48 107.253 173.386 105.275 165.982Z" fill="#9A4A4D"/>
<path d="M101.249 96.5483C101.993 96.457 102.74 96.3866 103.486 96.3076C103.843 96.2695 104.202 96.2368 104.56 96.2009C104.877 96.1696 105.26 96.191 105.558 96.0761C105.693 96.0239 105.586 95.8618 105.486 95.8414C105.163 95.7751 104.767 95.8804 104.442 95.9167C104.057 95.9599 103.674 96.0084 103.29 96.0566C102.578 96.146 101.87 96.2586 101.161 96.3648C101.058 96.3803 101.157 96.5592 101.249 96.5483Z" fill="#9A4A4D"/>
<path d="M99.4724 97.7551C100.805 97.9308 102.17 98.0284 103.514 97.953C104.162 97.9167 104.807 97.8331 105.441 97.6888C105.717 97.6257 105.991 97.5489 106.261 97.4622C106.247 97.3238 106.233 97.1785 106.22 97.025C106.217 97.0259 106.214 97.0273 106.211 97.0282C105.899 97.1362 105.581 97.2248 105.259 97.297C104.663 97.4304 104.056 97.509 103.448 97.558C102.114 97.6652 100.779 97.603 99.4429 97.6016C99.3648 97.6016 99.4134 97.7473 99.4724 97.7551Z" fill="#9A4A4D"/>
<path d="M104.17 99.2083C103.966 99.2474 103.761 99.2823 103.556 99.3136C103.125 99.379 102.691 99.4162 102.261 99.4839C102.174 99.4975 102.239 99.6519 102.307 99.6532C102.756 99.6637 103.209 99.6092 103.652 99.5465C103.87 99.5157 104.087 99.4807 104.302 99.4412C104.494 99.4063 104.702 99.3826 104.872 99.28C104.933 99.2433 104.876 99.123 104.815 99.1207C104.596 99.1125 104.384 99.1674 104.17 99.2083Z" fill="#9A4A4D"/>
<path d="M109.279 111.793C108.951 111.926 108.659 112.174 108.348 112.348C108.065 112.507 107.772 112.648 107.472 112.773C106.79 113.059 106.07 113.261 105.339 113.379C103.893 113.611 102.446 113.526 101.038 113.129C100.954 113.106 100.989 113.249 101.046 113.271C102.427 113.818 103.97 113.982 105.438 113.765C106.17 113.657 106.888 113.461 107.574 113.182C107.912 113.045 108.243 112.887 108.564 112.711C108.89 112.532 109.273 112.341 109.524 112.063C109.659 111.913 109.433 111.73 109.279 111.793Z" fill="#9A4A4D"/>
<path d="M103.16 112.107C103.064 112.044 102.942 112.038 102.835 112.005C102.784 111.989 102.732 111.98 102.68 111.969C102.575 111.947 102.471 111.92 102.368 111.889C102.169 111.827 101.969 111.738 101.793 111.625C101.625 111.517 101.472 111.377 101.355 111.215C101.242 111.058 101.13 110.886 101.095 110.691C101.081 110.617 101.023 110.557 100.947 110.545C100.885 110.536 100.808 110.572 100.817 110.646C100.848 110.9 100.914 111.146 101.062 111.358C101.212 111.573 101.406 111.754 101.624 111.897C101.844 112.04 102.082 112.138 102.334 112.213C102.452 112.248 102.574 112.279 102.695 112.3C102.834 112.324 103.001 112.348 103.139 112.324C103.262 112.302 103.253 112.167 103.16 112.107Z" fill="#9A4A4D"/>
<path d="M108.613 109.322C108.288 109.503 107.989 109.718 107.649 109.875C107.284 110.044 106.909 110.191 106.526 110.314C106.086 110.455 105.634 110.567 105.178 110.643C104.744 110.715 104.303 110.722 103.87 110.789C103.783 110.803 103.849 110.946 103.911 110.954C104.358 111.014 104.823 110.971 105.269 110.917C105.747 110.858 106.218 110.766 106.68 110.632C107.129 110.502 107.567 110.337 107.988 110.132C108.16 110.049 108.339 109.96 108.493 109.845C108.644 109.731 108.714 109.634 108.758 109.454C108.776 109.38 108.688 109.28 108.613 109.322Z" fill="#9A4A4D"/>
<path d="M108.075 108.343C107.843 108.201 107.485 108.252 107.226 108.271C106.982 108.289 106.739 108.318 106.498 108.353C105.964 108.43 105.44 108.537 104.922 108.686C103.999 108.952 103.046 109.315 102.246 109.853C102.163 109.908 102.29 110.07 102.371 110.034C103.256 109.646 104.117 109.257 105.061 109.026C105.54 108.908 106.027 108.808 106.517 108.746C106.75 108.717 106.984 108.694 107.219 108.677C107.49 108.657 107.798 108.674 108.053 108.577C108.159 108.537 108.18 108.406 108.075 108.343Z" fill="#9A4A4D"/>
<path d="M106.251 106.622C105.85 106.574 105.452 106.657 105.061 106.735C104.614 106.824 104.172 106.94 103.739 107.079C102.884 107.354 102.016 107.723 101.286 108.253C101.216 108.304 101.312 108.461 101.388 108.427C102.181 108.061 102.958 107.685 103.792 107.417C104.188 107.289 104.59 107.179 104.998 107.092C105.437 106.998 105.911 106.976 106.333 106.817C106.446 106.774 106.323 106.631 106.251 106.622Z" fill="#9A4A4D"/>
<path d="M151.682 137.277C151.394 128.97 150.528 126.862 149.518 123.298C148.508 119.735 147.791 117.105 148.219 113.272C148.818 107.9 152.726 105.001 152.746 104.98C152.186 105.287 151.656 105.678 151.171 106.142C149.537 107.706 148.469 109.015 147.533 111.074C146.915 112.433 146.251 114.08 145.893 116.399C147.353 123.827 147.93 125.237 149.229 128.547C150.528 131.857 151.538 135.77 151.682 137.277Z" fill="#9A4A4D"/>
<path d="M158.958 115.939C156.857 117.467 153.668 116.234 153.668 116.234C153.668 116.234 153.819 112.334 154.702 109.798C155.594 107.239 158.367 105.543 159.406 106.05C160.594 106.629 159.973 109.482 159.561 112.181C159.218 114.427 158.958 115.939 158.958 115.939Z" fill="#B16668"/>
<path opacity="0.2" d="M158.958 115.939C156.857 117.467 153.668 116.234 153.668 116.234C153.668 116.234 153.819 112.334 154.702 109.798C155.594 107.239 158.367 105.543 159.406 106.05C160.594 106.629 159.973 109.482 159.561 112.181C159.218 114.427 158.958 115.939 158.958 115.939Z" fill="white"/>
<path opacity="0.3" d="M153.729 115.264C153.682 115.857 153.668 116.234 153.668 116.234C153.668 116.234 156.857 117.467 158.958 115.939C158.958 115.939 159.083 115.213 159.273 114.022C158.479 114.114 156.701 114.401 153.729 115.264Z" fill="white"/>
<path d="M133.722 70.1334C135.539 71.8173 139.805 70.424 139.368 68.7787C139.368 68.7787 138.927 65.4686 138.253 62.5807C137.373 58.812 133.018 60.4936 133.137 64.1878C133.247 67.601 133.722 70.1334 133.722 70.1334Z" fill="#B16668"/>
<path opacity="0.2" d="M133.722 70.1334C135.539 71.8173 139.805 70.424 139.368 68.7787C139.368 68.7787 138.927 65.4686 138.253 62.5807C137.373 58.812 133.018 60.4936 133.137 64.1878C133.247 67.601 133.722 70.1334 133.722 70.1334Z" fill="white"/>
<path opacity="0.3" d="M139.368 68.7787C139.368 68.7787 139.361 68.7215 139.347 68.6189C138.368 67.9025 135.338 68.6207 133.629 69.5727C133.685 69.9305 133.722 70.1334 133.722 70.1334C135.539 71.8173 139.805 70.424 139.368 68.7787Z" fill="white"/>
<path d="M98.8462 88.1195C100.496 89.9682 104.874 88.9858 104.596 87.3069C104.596 87.3069 104.566 84.8821 104.169 81.9433C103.651 78.1084 99.0115 79.3832 98.7795 83.072C98.5657 86.4801 98.8462 88.1195 98.8462 88.1195Z" fill="#B16668"/>
<path opacity="0.2" d="M98.8462 88.1195C100.496 89.9682 104.874 88.9858 104.596 87.3069C104.596 87.3069 104.566 84.8821 104.169 81.9433C103.651 78.1084 99.0115 79.3832 98.7795 83.072C98.5657 86.4801 98.8462 88.1195 98.8462 88.1195Z" fill="white"/>
<path opacity="0.3" d="M104.596 87.3069C104.596 87.3069 104.594 87.2492 104.589 87.1457C103.683 86.3394 100.599 86.7671 98.8066 87.553C98.828 87.9143 98.8461 88.12 98.8461 88.12C100.496 89.9687 104.874 88.9862 104.596 87.3069Z" fill="white"/>
<path d="M124.578 59.5793C126.416 61.4793 131.503 60.6344 131.242 58.9469C131.242 58.9469 131.216 55.6068 130.862 52.6558C130.4 48.8055 125.167 49.9246 124.769 53.6056C124.401 57.0065 124.578 59.5793 124.578 59.5793Z" fill="#B16668"/>
<path opacity="0.2" d="M124.578 59.5793C126.416 61.4793 131.503 60.6344 131.242 58.9469C131.242 58.9469 131.216 55.6068 130.862 52.6558C130.4 48.8055 125.167 49.9246 124.769 53.6056C124.401 57.0065 124.578 59.5793 124.578 59.5793Z" fill="white"/>
<path opacity="0.3" d="M131.242 58.947C131.242 58.947 131.242 58.8889 131.24 58.7854C130.223 57.951 126.648 58.2819 124.553 59.011C124.565 59.3733 124.578 59.579 124.578 59.579C126.416 61.4799 131.504 60.6346 131.242 58.947Z" fill="white"/>
<path d="M115.389 65.9757C117.058 68.025 122.2 67.6146 122.082 65.9112C122.082 65.9112 122.34 62.5807 122.238 59.6106C122.104 55.7348 116.796 56.4058 116.086 60.0401C115.431 63.397 115.389 65.9757 115.389 65.9757Z" fill="#B16668"/>
<path opacity="0.2" d="M115.389 65.9757C117.058 68.025 122.2 67.6146 122.082 65.9112C122.082 65.9112 122.34 62.5807 122.238 59.6106C122.104 55.7348 116.796 56.4058 116.086 60.0401C115.431 63.397 115.389 65.9757 115.389 65.9757Z" fill="white"/>
<path opacity="0.3" d="M122.082 65.9106C122.082 65.9106 122.087 65.8529 122.094 65.7494C121.151 64.8319 117.561 64.8577 115.411 65.4066C115.393 65.7685 115.389 65.975 115.389 65.975C117.058 68.0244 122.2 67.6144 122.082 65.9106Z" fill="white"/>
<path d="M113.499 40.9788C113.123 40.9788 112.818 40.6737 112.818 40.2978V26.1122C112.818 25.7362 113.123 25.4312 113.499 25.4312C113.875 25.4312 114.18 25.7362 114.18 26.1122V40.2978C114.18 40.6737 113.876 40.9788 113.499 40.9788Z" fill="#BA68C8"/>
<path d="M66.3141 58.3888C66.1203 58.3888 65.9278 58.3066 65.7929 58.1468L57.0394 47.7693C56.7969 47.4819 56.8332 47.0524 57.1211 46.81C57.4085 46.5671 57.8379 46.6034 58.0804 46.8917L66.834 57.2692C67.0764 57.5566 67.0401 57.9861 66.7522 58.2285C66.6247 58.3357 66.4689 58.3888 66.3141 58.3888Z" fill="#BA68C8"/>
<path d="M34.7512 111.095C34.7157 111.095 34.6794 111.092 34.6431 111.087L20.1128 108.772C19.7419 108.713 19.4886 108.364 19.5476 107.992C19.6071 107.622 19.9526 107.368 20.3276 107.427L34.8578 109.742C35.2288 109.801 35.4821 110.15 35.4231 110.522C35.3695 110.856 35.0803 111.095 34.7512 111.095Z" fill="#BA68C8"/>
<path d="M35.9474 180.018C35.7149 180.018 35.4879 179.899 35.3608 179.684C35.1692 179.361 35.2759 178.943 35.5996 178.751L47.4013 171.762C47.7246 171.571 48.1427 171.677 48.3348 172.001C48.5263 172.324 48.4197 172.742 48.096 172.934L36.2942 179.923C36.1853 179.987 36.0659 180.018 35.9474 180.018Z" fill="#BA68C8"/>
<path d="M160.185 58.9809C160.029 58.9809 159.874 58.9282 159.746 58.8202C159.458 58.5778 159.422 58.1483 159.664 57.8609L168.918 46.8909C169.161 46.6026 169.59 46.5667 169.878 46.8092C170.165 47.0516 170.202 47.4811 169.959 47.7685L160.705 58.7385C160.571 58.8992 160.378 58.9809 160.185 58.9809Z" fill="#BA68C8"/>
<path d="M193.155 110.951C192.826 110.951 192.537 110.712 192.483 110.377C192.424 110.006 192.677 109.656 193.048 109.597L206.671 107.427C207.046 107.368 207.392 107.622 207.451 107.992C207.51 108.364 207.257 108.713 206.886 108.772L193.263 110.942C193.227 110.948 193.19 110.951 193.155 110.951Z" fill="#BA68C8"/>
<path d="M191.053 180.018C190.935 180.018 190.816 179.988 190.706 179.923L179.283 173.158C178.96 172.966 178.853 172.548 179.044 172.225C179.236 171.901 179.655 171.796 179.978 171.986L191.401 178.751C191.725 178.943 191.831 179.361 191.64 179.684C191.512 179.899 191.285 180.018 191.053 180.018Z" fill="#BA68C8"/>
<path d="M214.077 163.26L211.631 162.989C211.37 162.96 211.164 162.75 211.141 162.489L210.859 159.368C210.854 159.31 210.805 159.266 210.747 159.266C210.689 159.266 210.64 159.31 210.635 159.368L210.354 162.489C210.33 162.75 210.124 162.961 209.863 162.989L207.417 163.26C207.36 163.266 207.317 163.314 207.317 163.372C207.317 163.429 207.36 163.478 207.417 163.484L209.863 163.754C210.123 163.782 210.33 163.993 210.354 164.255L210.635 167.375C210.64 167.433 210.689 167.477 210.747 167.477C210.805 167.477 210.854 167.433 210.859 167.375L211.141 164.255C211.164 163.993 211.37 163.783 211.631 163.754L214.077 163.484C214.134 163.478 214.177 163.429 214.177 163.372C214.177 163.314 214.134 163.266 214.077 163.26ZM211.606 163.53C211.239 163.57 210.949 163.867 210.916 164.234L210.747 166.11L210.578 164.234C210.545 163.867 210.255 163.57 209.888 163.53L208.456 163.372L209.888 163.214C210.255 163.173 210.545 162.877 210.578 162.509L210.747 160.633L210.916 162.509C210.949 162.877 211.239 163.173 211.606 163.214L213.038 163.372L211.606 163.53ZM199.256 146.39L194.863 145.904C194.395 145.853 194.024 145.474 193.982 145.005L193.477 139.399C193.467 139.295 193.38 139.215 193.275 139.215C193.171 139.215 193.083 139.295 193.074 139.399L192.569 145.005C192.526 145.474 192.155 145.853 191.688 145.904L187.294 146.39C187.192 146.401 187.114 146.488 187.114 146.591C187.114 146.694 187.191 146.781 187.294 146.792L191.688 147.277C192.156 147.329 192.527 147.707 192.569 148.176L193.074 153.782C193.083 153.887 193.171 153.966 193.275 153.966C193.38 153.966 193.467 153.887 193.477 153.782L193.982 148.176C194.024 147.707 194.395 147.329 194.863 147.277L199.256 146.792C199.359 146.781 199.437 146.694 199.437 146.591C199.437 146.488 199.359 146.401 199.256 146.39ZM194.818 146.875C194.159 146.948 193.638 147.48 193.578 148.14L193.275 151.508L192.972 148.14C192.912 147.48 192.391 146.948 191.732 146.875L189.159 146.591L191.732 146.307C192.391 146.234 192.912 145.702 192.972 145.042L193.275 141.673L193.578 145.042C193.638 145.702 194.159 146.234 194.818 146.307L197.391 146.591L194.818 146.875ZM215.137 58.6214L210.321 58.0889C209.808 58.0326 209.402 57.6181 209.357 57.1042L208.803 50.9597C208.792 50.8453 208.696 50.7572 208.582 50.7572C208.467 50.7572 208.371 50.8449 208.36 50.9597L207.807 57.1042C207.76 57.6181 207.354 58.0326 206.841 58.0889L202.025 58.6214C201.913 58.6337 201.827 58.729 201.827 58.8421C201.827 58.9551 201.913 59.05 202.025 59.0627L206.841 59.5943C207.354 59.6516 207.76 60.0656 207.807 60.5795L208.36 66.7244C208.371 66.8388 208.467 66.9264 208.582 66.9264C208.696 66.9264 208.792 66.8388 208.803 66.7244L209.357 60.5795C209.402 60.0661 209.808 59.6516 210.321 59.5943L215.137 59.0627C215.25 59.0505 215.335 58.9551 215.335 58.8421C215.335 58.729 215.25 58.6341 215.137 58.6214ZM210.273 59.1535C209.55 59.2339 208.979 59.8168 208.914 60.54L208.582 64.2324L208.249 60.54C208.183 59.8168 207.612 59.2339 206.89 59.1535L204.07 58.8421L206.89 58.5302C207.612 58.4503 208.183 57.8673 208.249 57.1437L208.582 53.4513L208.914 57.1437C208.979 57.8673 209.55 58.4503 210.273 58.5302L213.092 58.8421L210.273 59.1535ZM29.2806 58.8157L24.4646 58.2837C23.9516 58.2274 23.5457 57.8129 23.4998 57.2989L22.946 51.1545C22.9355 51.0396 22.8397 50.952 22.7249 50.952C22.61 50.952 22.5142 51.0396 22.5038 51.1545L21.9499 57.2989C21.9036 57.8129 21.4972 58.2274 20.9842 58.2837L16.1686 58.8157C16.0561 58.828 15.9707 58.9233 15.9707 59.0364C15.9707 59.1494 16.0561 59.2443 16.1686 59.257L20.9842 59.7887C21.4972 59.8459 21.9036 60.2599 21.9499 60.7734L22.5038 66.9183C22.5142 67.0327 22.61 67.1203 22.7249 67.1203C22.8397 67.1203 22.9355 67.0327 22.946 66.9183L23.4998 60.7734C23.5457 60.2599 23.9516 59.8454 24.4646 59.7887L29.2806 59.257C29.3932 59.2448 29.4786 59.1494 29.4786 59.0364C29.4781 58.9233 29.3932 58.828 29.2806 58.8157ZM24.416 59.3474C23.6937 59.4277 23.123 60.0107 23.0572 60.7339L22.7249 64.4263L22.3921 60.7339C22.3267 60.0107 21.7551 59.4277 21.0328 59.3474L18.213 59.0359L21.0328 58.724C21.7551 58.6441 22.3267 58.0612 22.3921 57.3375L22.7249 53.6451L23.0572 57.3375C23.1226 58.0612 23.6937 58.6441 24.416 58.724L27.2358 59.0359L24.416 59.3474ZM196.957 73.5503L194.01 73.2243C193.726 73.1935 193.501 72.9637 193.475 72.6791L193.136 68.9195C193.127 68.8164 193.041 68.7379 192.938 68.7379C192.835 68.7379 192.748 68.8164 192.739 68.9195L192.4 72.68C192.374 72.9642 192.149 73.1939 191.865 73.2248L188.919 73.5508C188.818 73.5626 188.741 73.6475 188.741 73.7492C188.741 73.8509 188.818 73.9362 188.919 73.9476L191.865 74.2735C192.149 74.3044 192.374 74.5341 192.4 74.8188L192.739 78.5784C192.748 78.6814 192.834 78.76 192.938 78.76C193.041 78.76 193.127 78.6819 193.136 78.5784L193.475 74.8179C193.501 74.5337 193.726 74.304 194.01 74.2731L196.957 73.9471C197.059 73.9353 197.134 73.8504 197.134 73.7487C197.134 73.6466 197.058 73.5617 196.957 73.5503ZM193.966 73.8758C193.494 73.928 193.121 74.3085 193.078 74.7816L192.938 76.3392L192.797 74.7825C192.755 74.3085 192.381 73.928 191.91 73.8758L190.756 73.7483L191.91 73.6207C192.381 73.5689 192.755 73.188 192.797 72.7149V72.714L192.938 71.1573L193.078 72.714C193.121 73.188 193.494 73.5689 193.966 73.6207L195.12 73.7483L193.966 73.8758ZM87.8584 41.0943L84.8938 40.7665L84.5633 37.1009C84.5556 37.0119 84.4811 36.9443 84.3921 36.9443C84.3031 36.9443 84.2287 37.0119 84.221 37.1009L83.8905 40.7665L80.9268 41.0943C80.8396 41.1043 80.7738 41.1774 80.7738 41.2655C80.7738 41.3531 80.8396 41.4266 80.9268 41.4366L83.8905 41.7644L84.221 45.43C84.2287 45.519 84.3031 45.5866 84.3921 45.5866C84.4811 45.5866 84.5556 45.519 84.5633 45.43L84.8938 41.7644L87.8584 41.4366C87.9456 41.4266 88.011 41.3531 88.011 41.2655C88.0114 41.1778 87.9456 41.1043 87.8584 41.0943ZM84.5774 41.453L84.3926 43.4996L84.2078 41.453L82.5108 41.2655L84.2714 41.0711V40.3738L84.3926 39.0313L84.5774 41.078L86.2744 41.2655L84.5774 41.453ZM39.6395 76.9658L36.6749 76.638L36.3444 72.9724C36.3367 72.8834 36.2622 72.8157 36.1733 72.8157C36.0843 72.8157 36.0098 72.8834 36.0021 72.9724L35.6716 76.638L32.7079 76.9658C32.6207 76.9757 32.5549 77.0488 32.5549 77.1369C32.5549 77.225 32.6207 77.2981 32.7079 77.3081L35.6716 77.6359L36.0021 81.3015C36.0098 81.3904 36.0843 81.4581 36.1733 81.4581C36.2622 81.4581 36.3367 81.3904 36.3444 81.3015L36.6749 77.6359L39.6395 77.3081C39.7267 77.2981 39.7921 77.2245 39.7921 77.1369C39.7921 77.0493 39.7267 76.9757 39.6395 76.9658ZM36.3585 77.324L36.1737 79.3706L35.9889 77.324L34.2919 77.1365L36.0525 76.9421V76.2448L36.1737 74.9023L36.3585 76.949L38.0555 77.1365L36.3585 77.324ZM149.767 31.2725L146.802 30.9447L146.472 27.2791C146.464 27.1901 146.389 27.1225 146.3 27.1225C146.212 27.1225 146.137 27.1901 146.129 27.2791L145.799 30.9447L142.835 31.2725C142.748 31.2825 142.682 31.3555 142.682 31.4436C142.682 31.5317 142.748 31.6048 142.835 31.6148L145.799 31.9426L146.129 35.6082C146.137 35.6971 146.212 35.7648 146.3 35.7648C146.389 35.7648 146.464 35.6971 146.472 35.6082L146.802 31.9426L149.767 31.6148C149.854 31.6048 149.919 31.5312 149.919 31.4436C149.919 31.356 149.854 31.2825 149.767 31.2725ZM146.486 31.6307L146.301 33.6773L146.116 31.6307L144.419 31.4432L146.18 31.2489V30.5515L146.301 29.209L146.486 31.2557L148.183 31.4432L146.486 31.6307ZM73.6146 29.8959L69.9899 29.4951C69.6035 29.4519 69.298 29.1405 69.2635 28.7537L68.8463 24.1283C68.8381 24.0421 68.7664 23.9767 68.6801 23.9767C68.5938 23.9767 68.5217 24.0425 68.5139 24.1283L68.0967 28.7537C68.0622 29.1405 67.7558 29.4528 67.3699 29.4951L63.7451 29.8959C63.6602 29.905 63.5967 29.9767 63.5967 30.0616C63.5967 30.147 63.6607 30.2183 63.7451 30.2274L67.3699 30.6278C67.7562 30.6705 68.0622 30.9824 68.0967 31.3696L68.5139 35.9945C68.5221 36.0808 68.5938 36.1466 68.6801 36.1466C68.7664 36.1466 68.8386 36.0808 68.8463 35.9945L69.2635 31.3696C69.298 30.9824 69.6035 30.6705 69.9899 30.6278L73.6146 30.2274C73.6986 30.2183 73.7631 30.1465 73.7631 30.0616C73.7631 29.9767 73.6995 29.905 73.6146 29.8959ZM69.9531 30.2964C69.4097 30.3563 68.9802 30.7953 68.9312 31.3401L68.6806 34.12L68.4299 31.3401C68.3809 30.7953 67.951 30.3567 67.4071 30.2964L65.2842 30.0616L67.4071 29.8265C67.9505 29.7665 68.3805 29.328 68.4299 28.7832L68.6806 26.0033L68.9312 28.7832C68.9802 29.328 69.4101 29.7661 69.9531 29.8265L72.076 30.0616L69.9531 30.2964ZM37.6188 143.171L34.7672 142.856C34.4925 142.826 34.2746 142.604 34.2501 142.328L33.9219 138.691C33.9132 138.591 33.8297 138.515 33.7298 138.515C33.6299 138.515 33.5464 138.591 33.5378 138.691L33.2095 142.329C33.1841 142.604 32.9671 142.826 32.6924 142.856L29.8418 143.171C29.7442 143.183 29.6702 143.265 29.6702 143.363C29.6702 143.462 29.7437 143.544 29.8418 143.555L32.6924 143.87C32.9676 143.9 33.185 144.123 33.2095 144.398L33.5378 148.035C33.5464 148.135 33.6299 148.211 33.7298 148.211C33.8297 148.211 33.9132 148.135 33.9219 148.035L34.2501 144.397C34.2751 144.123 34.4925 143.9 34.7672 143.87L37.6188 143.555C37.7164 143.544 37.7899 143.462 37.7899 143.363C37.7904 143.265 37.7169 143.183 37.6188 143.171ZM34.8816 143.506C34.3536 143.564 33.9355 143.991 33.8878 144.52L33.7303 146.264L33.5727 144.521C33.5255 143.991 33.1069 143.564 32.5789 143.506L31.2864 143.363L32.5789 143.221C33.1069 143.163 33.5255 142.736 33.5727 142.206V142.206L33.7303 140.462L33.8878 142.206C33.9355 142.736 34.3536 143.163 34.8816 143.221L36.1737 143.363L34.8816 143.506ZM214.006 133.318L211.154 133.003C210.879 132.973 210.661 132.751 210.637 132.475L210.309 128.838C210.3 128.738 210.216 128.662 210.117 128.662C210.017 128.662 209.933 128.738 209.924 128.838L209.596 132.476C209.571 132.751 209.354 132.973 209.079 133.003L206.228 133.318C206.131 133.329 206.057 133.412 206.057 133.51C206.057 133.609 206.13 133.691 206.228 133.702L209.079 134.017C209.354 134.047 209.572 134.27 209.596 134.545L209.924 138.182C209.933 138.282 210.017 138.358 210.117 138.358C210.216 138.358 210.3 138.282 210.309 138.182L210.637 134.544C210.662 134.27 210.879 134.047 211.154 134.017L214.006 133.702C214.103 133.691 214.177 133.609 214.177 133.51C214.177 133.412 214.103 133.329 214.006 133.318ZM211.268 133.653C210.74 133.711 210.322 134.138 210.274 134.667L210.117 136.412L209.959 134.668C209.912 134.138 209.493 133.711 208.965 133.653L207.673 133.511L208.965 133.368C209.493 133.31 209.912 132.884 209.959 132.354V132.353L210.117 130.609L210.274 132.353C210.322 132.884 210.74 133.31 211.268 133.368L212.56 133.511L211.268 133.653ZM30.3834 159.187L25.9896 158.701C25.5215 158.649 25.151 158.271 25.1093 157.802L24.6044 152.196C24.5949 152.092 24.5077 152.011 24.4028 152.011C24.298 152.011 24.2104 152.091 24.2008 152.196L23.696 157.802C23.6537 158.271 23.2828 158.649 22.8152 158.701L18.4218 159.187C18.3192 159.198 18.2416 159.285 18.2416 159.388C18.2416 159.491 18.3192 159.577 18.4218 159.589L22.8152 160.074C23.2833 160.126 23.6542 160.504 23.696 160.973L24.2008 166.579C24.2104 166.683 24.2975 166.763 24.4028 166.763C24.5077 166.763 24.5949 166.683 24.6044 166.579L25.1093 160.973C25.1515 160.504 25.522 160.126 25.9896 160.074L30.3834 159.589C30.486 159.577 30.5636 159.491 30.5636 159.388C30.5636 159.285 30.486 159.198 30.3834 159.187ZM25.9451 159.672C25.2863 159.745 24.7651 160.277 24.7057 160.937L24.4024 164.305L24.0987 160.937C24.0392 160.277 23.5175 159.745 22.8588 159.672L20.286 159.388L22.8588 159.103C23.5175 159.031 24.0392 158.499 24.0987 157.839L24.4024 154.47L24.7057 157.839C24.7651 158.499 25.2863 159.031 25.9451 159.103L28.5179 159.388L25.9451 159.672Z" fill="#EBEBEB"/>
</svg>
