<svg width="101" height="101" viewBox="0 0 101 101" fill="none" xmlns="http://www.w3.org/2000/svg">
<path fill-rule="evenodd" clip-rule="evenodd" d="M50.4999 17.2353C32.0904 17.2353 17.1666 32.1592 17.1666 50.5686C17.1666 68.9781 32.0904 83.902 50.4999 83.902C68.9094 83.902 83.8333 68.9781 83.8333 50.5686C83.8333 32.1592 68.9094 17.2353 50.4999 17.2353ZM8.83325 50.5686C8.83325 27.5568 27.4881 8.90198 50.4999 8.90198C73.5118 8.90198 92.1666 27.5568 92.1666 50.5686C92.1666 73.5805 73.5118 92.2353 50.4999 92.2353C27.4881 92.2353 8.83325 73.5805 8.83325 50.5686Z" fill="#1E7791"/>
<path fill-rule="evenodd" clip-rule="evenodd" d="M68.0328 37.9172C69.6582 39.5461 69.6554 42.1843 68.0265 43.8097L48.5681 63.2264C46.9404 64.8506 44.3047 64.8492 42.6787 63.2232L32.9704 53.5149C31.3432 51.8877 31.3432 49.2495 32.9704 47.6224C34.5976 45.9952 37.2358 45.9952 38.8629 47.6224L45.6282 54.3876L62.1402 37.9109C63.7691 36.2854 66.4073 36.2883 68.0328 37.9172Z" fill="#1E7791"/>
</svg>
