<svg width="12" height="12" viewBox="0 0 12 12" fill="none" xmlns="http://www.w3.org/2000/svg">
<path d="M0.90625 2.24219C0.78125 2.11719 0.695312 1.96615 0.648438 1.78906C0.606771 1.61198 0.606771 1.4349 0.648438 1.25781C0.690104 1.07552 0.778646 0.916667 0.914062 0.78125C1.04427 0.651042 1.19792 0.565104 1.375 0.523438C1.55729 0.476562 1.73698 0.476562 1.91406 0.523438C2.09635 0.565104 2.25 0.648438 2.375 0.773438L11.0938 9.49219C11.224 9.6224 11.3099 9.77604 11.3516 9.95312C11.3932 10.1302 11.3906 10.3099 11.3438 10.4922C11.3021 10.6693 11.2135 10.8229 11.0781 10.9531C10.9479 11.0885 10.7943 11.1797 10.6172 11.2266C10.4401 11.2682 10.263 11.2682 10.0859 11.2266C9.90885 11.1797 9.75521 11.0938 9.625 10.9688L0.90625 2.24219ZM0.90625 9.5L9.625 0.78125C9.75521 0.651042 9.90885 0.565104 10.0859 0.523438C10.263 0.476562 10.4401 0.476562 10.6172 0.523438C10.7943 0.565104 10.9479 0.653646 11.0781 0.789062C11.2135 0.919271 11.3021 1.07552 11.3438 1.25781C11.3906 1.4349 11.3932 1.61198 11.3516 1.78906C11.3099 1.96615 11.224 2.11979 11.0938 2.25L2.375 10.9688C2.25 11.0938 2.09635 11.1797 1.91406 11.2266C1.73698 11.2682 1.55729 11.2682 1.375 11.2266C1.19792 11.1797 1.04427 11.0911 0.914062 10.9609C0.778646 10.8255 0.690104 10.6693 0.648438 10.4922C0.606771 10.3099 0.606771 10.1302 0.648438 9.95312C0.695312 9.77604 0.78125 9.625 0.90625 9.5Z" fill="#7F7F7F" fill-opacity="0.5" style="mix-blend-mode:luminosity"/>
<path d="M0.90625 2.24219C0.78125 2.11719 0.695312 1.96615 0.648438 1.78906C0.606771 1.61198 0.606771 1.4349 0.648438 1.25781C0.690104 1.07552 0.778646 0.916667 0.914062 0.78125C1.04427 0.651042 1.19792 0.565104 1.375 0.523438C1.55729 0.476562 1.73698 0.476562 1.91406 0.523438C2.09635 0.565104 2.25 0.648438 2.375 0.773438L11.0938 9.49219C11.224 9.6224 11.3099 9.77604 11.3516 9.95312C11.3932 10.1302 11.3906 10.3099 11.3438 10.4922C11.3021 10.6693 11.2135 10.8229 11.0781 10.9531C10.9479 11.0885 10.7943 11.1797 10.6172 11.2266C10.4401 11.2682 10.263 11.2682 10.0859 11.2266C9.90885 11.1797 9.75521 11.0938 9.625 10.9688L0.90625 2.24219ZM0.90625 9.5L9.625 0.78125C9.75521 0.651042 9.90885 0.565104 10.0859 0.523438C10.263 0.476562 10.4401 0.476562 10.6172 0.523438C10.7943 0.565104 10.9479 0.653646 11.0781 0.789062C11.2135 0.919271 11.3021 1.07552 11.3438 1.25781C11.3906 1.4349 11.3932 1.61198 11.3516 1.78906C11.3099 1.96615 11.224 2.11979 11.0938 2.25L2.375 10.9688C2.25 11.0938 2.09635 11.1797 1.91406 11.2266C1.73698 11.2682 1.55729 11.2682 1.375 11.2266C1.19792 11.1797 1.04427 11.0911 0.914062 10.9609C0.778646 10.8255 0.690104 10.6693 0.648438 10.4922C0.606771 10.3099 0.606771 10.1302 0.648438 9.95312C0.695312 9.77604 0.78125 9.625 0.90625 9.5Z" fill="#3D3D3D" style="mix-blend-mode:overlay"/>
</svg>
