<svg width="121" height="120" viewBox="0 0 121 120" fill="none" xmlns="http://www.w3.org/2000/svg">
<rect x="0.5" width="120" height="120" rx="60" fill="#F0EEEE"/>
<mask id="mask0_1007_12123" style="mask-type:alpha" maskUnits="userSpaceOnUse" x="24" y="25" width="71" height="70">
<rect x="24.8242" y="25" width="70" height="70" fill="#D9D9D9"/>
</mask>
<g mask="url(#mask0_1007_12123)">
<path d="M70.0325 57.0835C71.2477 57.0835 72.2807 56.6581 73.1314 55.8075C73.9821 54.9568 74.4075 53.9238 74.4075 52.7085C74.4075 51.4932 73.9821 50.4602 73.1314 49.6095C72.2807 48.7588 71.2477 48.3335 70.0325 48.3335C68.8172 48.3335 67.7842 48.7588 66.9335 49.6095C66.0828 50.4602 65.6575 51.4932 65.6575 52.7085C65.6575 53.9238 66.0828 54.9568 66.9335 55.8075C67.7842 56.6581 68.8172 57.0835 70.0325 57.0835ZM49.6158 57.0835C50.8311 57.0835 51.8641 56.6581 52.7148 55.8075C53.5655 54.9568 53.9908 53.9238 53.9908 52.7085C53.9908 51.4932 53.5655 50.4602 52.7148 49.6095C51.8641 48.7588 50.8311 48.3335 49.6158 48.3335C48.4005 48.3335 47.3675 48.7588 46.5168 49.6095C45.6662 50.4602 45.2408 51.4932 45.2408 52.7085C45.2408 53.9238 45.6662 54.9568 46.5168 55.8075C47.3675 56.6581 48.4005 57.0835 49.6158 57.0835ZM59.8241 76.0418C63.1297 76.0418 66.1314 75.1061 68.8293 73.2345C71.5273 71.363 73.4839 68.896 74.6991 65.8335H44.9491C46.1644 68.896 48.121 71.363 50.8189 73.2345C53.5168 75.1061 56.5186 76.0418 59.8241 76.0418ZM59.8241 89.1668C55.7894 89.1668 51.9977 88.4012 48.4491 86.8699C44.9005 85.3387 41.8137 83.2606 39.1887 80.6356C36.5637 78.0106 34.4856 74.9238 32.9543 71.3752C31.4231 67.8265 30.6575 64.0349 30.6575 60.0002C30.6575 55.9654 31.4231 52.1738 32.9543 48.6252C34.4856 45.0766 36.5637 41.9897 39.1887 39.3647C41.8137 36.7397 44.9005 34.6616 48.4491 33.1304C51.9977 31.5991 55.7894 30.8335 59.8241 30.8335C63.8589 30.8335 67.6505 31.5991 71.1991 33.1304C74.7477 34.6616 77.8346 36.7397 80.4596 39.3647C83.0846 41.9897 85.1627 45.0766 86.6939 48.6252C88.2252 52.1738 88.9908 55.9654 88.9908 60.0002C88.9908 64.0349 88.2252 67.8265 86.6939 71.3752C85.1627 74.9238 83.0846 78.0106 80.4596 80.6356C77.8346 83.2606 74.7477 85.3387 71.1991 86.8699C67.6505 88.4012 63.8589 89.1668 59.8241 89.1668ZM59.8241 83.3335C66.338 83.3335 71.8554 81.0731 76.3762 76.5522C80.8971 72.0314 83.1575 66.514 83.1575 60.0002C83.1575 53.4863 80.8971 47.9689 76.3762 43.4481C71.8554 38.9272 66.338 36.6668 59.8241 36.6668C53.3102 36.6668 47.7929 38.9272 43.2721 43.4481C38.7512 47.9689 36.4908 53.4863 36.4908 60.0002C36.4908 66.514 38.7512 72.0314 43.2721 76.5522C47.7929 81.0731 53.3102 83.3335 59.8241 83.3335Z" fill="#1E7791"/>
</g>
</svg>
