<svg width="245" height="170" viewBox="0 0 245 170" fill="none" xmlns="http://www.w3.org/2000/svg">
<rect x="62.5" width="120" height="120" rx="60" fill="#F0EEEE"/>
<mask id="mask0_1007_12122" style="mask-type:alpha" maskUnits="userSpaceOnUse" x="86" y="25" width="71" height="70">
<rect x="86.8242" y="25" width="70" height="70" fill="#D9D9D9"/>
</mask>
<g mask="url(#mask0_1007_12122)">
<path d="M132.032 57.0835C133.248 57.0835 134.281 56.6581 135.131 55.8075C135.982 54.9568 136.407 53.9238 136.407 52.7085C136.407 51.4932 135.982 50.4602 135.131 49.6095C134.281 48.7588 133.248 48.3335 132.032 48.3335C130.817 48.3335 129.784 48.7588 128.934 49.6095C128.083 50.4602 127.657 51.4932 127.657 52.7085C127.657 53.9238 128.083 54.9568 128.934 55.8075C129.784 56.6581 130.817 57.0835 132.032 57.0835ZM111.616 57.0835C112.831 57.0835 113.864 56.6581 114.715 55.8075C115.565 54.9568 115.991 53.9238 115.991 52.7085C115.991 51.4932 115.565 50.4602 114.715 49.6095C113.864 48.7588 112.831 48.3335 111.616 48.3335C110.401 48.3335 109.368 48.7588 108.517 49.6095C107.666 50.4602 107.241 51.4932 107.241 52.7085C107.241 53.9238 107.666 54.9568 108.517 55.8075C109.368 56.6581 110.401 57.0835 111.616 57.0835ZM121.824 76.0418C125.13 76.0418 128.131 75.1061 130.829 73.2345C133.527 71.363 135.484 68.896 136.699 65.8335H106.949C108.164 68.896 110.121 71.363 112.819 73.2345C115.517 75.1061 118.519 76.0418 121.824 76.0418ZM121.824 89.1668C117.789 89.1668 113.998 88.4012 110.449 86.8699C106.901 85.3387 103.814 83.2606 101.189 80.6356C98.5637 78.0106 96.4856 74.9238 94.9543 71.3752C93.4231 67.8265 92.6575 64.0349 92.6575 60.0002C92.6575 55.9654 93.4231 52.1738 94.9543 48.6252C96.4856 45.0766 98.5637 41.9897 101.189 39.3647C103.814 36.7397 106.901 34.6616 110.449 33.1304C113.998 31.5991 117.789 30.8335 121.824 30.8335C125.859 30.8335 129.651 31.5991 133.199 33.1304C136.748 34.6616 139.835 36.7397 142.46 39.3647C145.085 41.9897 147.163 45.0766 148.694 48.6252C150.225 52.1738 150.991 55.9654 150.991 60.0002C150.991 64.0349 150.225 67.8265 148.694 71.3752C147.163 74.9238 145.085 78.0106 142.46 80.6356C139.835 83.2606 136.748 85.3387 133.199 86.8699C129.651 88.4012 125.859 89.1668 121.824 89.1668ZM121.824 83.3335C128.338 83.3335 133.855 81.0731 138.376 76.5522C142.897 72.0314 145.157 66.514 145.157 60.0002C145.157 53.4863 142.897 47.9689 138.376 43.4481C133.855 38.9272 128.338 36.6668 121.824 36.6668C115.31 36.6668 109.793 38.9272 105.272 43.4481C100.751 47.9689 98.4908 53.4863 98.4908 60.0002C98.4908 66.514 100.751 72.0314 105.272 76.5522C109.793 81.0731 115.31 83.3335 121.824 83.3335Z" fill="#1E7791"/>
</g>
<path d="M65.0656 163.24C60.8056 163.24 58.0456 160.28 58.0456 155.7C58.0456 151.16 60.9056 148.14 65.1856 148.14C68.6456 148.14 71.2256 150.16 71.7256 153.3H69.0256C68.5256 151.6 67.0656 150.6 65.1256 150.6C62.4256 150.6 60.7256 152.56 60.7256 155.68C60.7256 158.78 62.4456 160.78 65.1256 160.78C67.1056 160.78 68.6256 159.74 69.1056 158.12H71.7656C71.2056 161.2 68.5256 163.24 65.0656 163.24ZM73.1214 158.04C73.1214 154.96 75.3414 152.84 78.4014 152.84C81.4614 152.84 83.6814 154.96 83.6814 158.04C83.6814 161.12 81.4614 163.24 78.4014 163.24C75.3414 163.24 73.1214 161.12 73.1214 158.04ZM75.5614 158.04C75.5614 159.84 76.7214 161.06 78.4014 161.06C80.0814 161.06 81.2414 159.84 81.2414 158.04C81.2414 156.24 80.0814 155.02 78.4014 155.02C76.7214 155.02 75.5614 156.24 75.5614 158.04ZM88.0555 163H85.6155V153.12H87.8555L88.0555 154.28C88.5555 153.46 89.5555 152.82 90.9755 152.82C92.4755 152.82 93.5155 153.56 94.0355 154.7C94.5355 153.56 95.6955 152.82 97.1955 152.82C99.5955 152.82 100.915 154.26 100.915 156.54V163H98.4955V157.18C98.4955 155.76 97.7355 155.02 96.5755 155.02C95.3955 155.02 94.4955 155.78 94.4955 157.4V163H92.0555V157.16C92.0555 155.78 91.3155 155.04 90.1555 155.04C88.9955 155.04 88.0555 155.8 88.0555 157.4V163ZM104.531 151.14C103.691 151.14 103.031 150.48 103.031 149.66C103.031 148.84 103.691 148.2 104.531 148.2C105.331 148.2 105.991 148.84 105.991 149.66C105.991 150.48 105.331 151.14 104.531 151.14ZM103.311 163V153.12H105.751V163H103.311ZM110.712 163H108.272V153.12H110.532L110.732 154.4C111.352 153.4 112.552 152.82 113.892 152.82C116.372 152.82 117.652 154.36 117.652 156.92V163H115.212V157.5C115.212 155.84 114.392 155.04 113.132 155.04C111.632 155.04 110.712 156.08 110.712 157.68V163ZM119.489 157.84C119.489 154.96 121.369 152.8 124.189 152.8C125.669 152.8 126.829 153.42 127.409 154.48L127.549 153.12H129.809V162.5C129.809 165.8 127.829 167.86 124.629 167.86C121.789 167.86 119.849 166.24 119.549 163.6H121.989C122.149 164.88 123.129 165.64 124.629 165.64C126.309 165.64 127.389 164.58 127.389 162.94V161.3C126.769 162.22 125.549 162.8 124.129 162.8C121.329 162.8 119.489 160.7 119.489 157.84ZM121.949 157.78C121.949 159.44 123.009 160.68 124.609 160.68C126.289 160.68 127.329 159.5 127.329 157.78C127.329 156.1 126.309 154.94 124.609 154.94C122.989 154.94 121.949 156.16 121.949 157.78ZM136.965 160H139.285C139.305 160.86 139.945 161.4 141.065 161.4C142.205 161.4 142.825 160.94 142.825 160.22C142.825 159.72 142.565 159.36 141.685 159.16L139.905 158.74C138.125 158.34 137.265 157.5 137.265 155.92C137.265 153.98 138.905 152.82 141.185 152.82C143.405 152.82 144.905 154.1 144.925 156.02H142.605C142.585 155.18 142.025 154.64 141.085 154.64C140.125 154.64 139.565 155.08 139.565 155.82C139.565 156.38 140.005 156.74 140.845 156.94L142.625 157.36C144.285 157.74 145.125 158.5 145.125 160.02C145.125 162.02 143.425 163.26 140.985 163.26C138.525 163.26 136.965 161.94 136.965 160ZM146.403 158.04C146.403 154.96 148.623 152.84 151.683 152.84C154.743 152.84 156.963 154.96 156.963 158.04C156.963 161.12 154.743 163.24 151.683 163.24C148.623 163.24 146.403 161.12 146.403 158.04ZM148.843 158.04C148.843 159.84 150.003 161.06 151.683 161.06C153.363 161.06 154.523 159.84 154.523 158.04C154.523 156.24 153.363 155.02 151.683 155.02C150.003 155.02 148.843 156.24 148.843 158.04ZM158.317 158.04C158.317 154.96 160.537 152.84 163.597 152.84C166.657 152.84 168.877 154.96 168.877 158.04C168.877 161.12 166.657 163.24 163.597 163.24C160.537 163.24 158.317 161.12 158.317 158.04ZM160.757 158.04C160.757 159.84 161.917 161.06 163.597 161.06C165.277 161.06 166.437 159.84 166.437 158.04C166.437 156.24 165.277 155.02 163.597 155.02C161.917 155.02 160.757 156.24 160.757 158.04ZM173.251 163H170.811V153.12H173.071L173.271 154.4C173.891 153.4 175.091 152.82 176.431 152.82C178.911 152.82 180.191 154.36 180.191 156.92V163H177.751V157.5C177.751 155.84 176.931 155.04 175.671 155.04C174.171 155.04 173.251 156.08 173.251 157.68V163ZM185.488 158.62H183.528C183.268 157.02 183.088 154.34 183.088 151.74V148.38H185.968V151.74C185.968 154.4 185.768 157.08 185.488 158.62ZM184.528 163.26C183.628 163.26 182.888 162.54 182.888 161.68C182.888 160.8 183.628 160.08 184.528 160.08C185.388 160.08 186.128 160.8 186.128 161.68C186.128 162.54 185.388 163.26 184.528 163.26Z" fill="#0F0F0F"/>
</svg>
