<svg width="24" height="24" viewBox="0 0 24 24" fill="none" xmlns="http://www.w3.org/2000/svg">
<g opacity="0.6">
<path fill-rule="evenodd" clip-rule="evenodd" d="M14 2C11.7909 2 10 3.79086 10 6V8H6C3.79086 8 2 9.79086 2 12V18C2 20.2091 3.79086 22 6 22H10C12.2091 22 14 20.2091 14 18V16H18C20.2091 16 22 14.2091 22 12V6C22 3.79086 20.2091 2 18 2H14ZM14 14H18C19.1046 14 20 13.1046 20 12V6C20 4.89543 19.1046 4 18 4H14C12.8954 4 12 4.89543 12 6V8.53513C13.1956 9.22675 14 10.5194 14 12V14ZM4 12C4 10.8954 4.89543 10 6 10H10C11.1046 10 12 10.8954 12 12V18C12 19.1046 11.1046 20 10 20H6C4.89543 20 4 19.1046 4 18V12Z" fill="black"/>
</g>
</svg>
