<svg width="21" height="22" viewBox="0 0 21 22" fill="none" xmlns="http://www.w3.org/2000/svg">
<path fill-rule="evenodd" clip-rule="evenodd" d="M8.68598 3.125H12.314C13.9095 3.12498 15.1956 3.12496 16.207 3.26094C17.2572 3.40213 18.1414 3.70417 18.8436 4.40641C19.5458 5.10865 19.8479 5.99283 19.9891 7.04296C20.125 8.05443 20.125 9.34047 20.125 10.936V11.064C20.125 12.6595 20.125 13.9456 19.9891 14.957C19.8479 16.0072 19.5458 16.8914 18.8436 17.5936C18.1414 18.2958 17.2572 18.5979 16.207 18.7391C15.1956 18.875 13.9095 18.875 12.314 18.875H8.68601C7.09047 18.875 5.80442 18.875 4.79296 18.7391C3.74283 18.5979 2.85865 18.2958 2.15641 17.5936C1.45417 16.8914 1.15213 16.0072 1.01094 14.957C0.874957 13.9456 0.874977 12.6595 0.875001 11.064V10.936C0.874977 9.34046 0.874957 8.05442 1.01094 7.04296C1.15213 5.99283 1.45417 5.10865 2.15641 4.40641C2.85865 3.70417 3.74283 3.40213 4.79296 3.26094C5.80442 3.12496 7.09046 3.12498 8.68598 3.125ZM5.02614 4.99534C4.17007 5.11044 3.71674 5.32096 3.39385 5.64385C3.07096 5.96674 2.86044 6.42007 2.74534 7.27614C2.62686 8.15738 2.625 9.32535 2.625 11C2.625 12.6747 2.62686 13.8426 2.74534 14.7239C2.86044 15.5799 3.07096 16.0333 3.39385 16.3562C3.71674 16.679 4.17007 16.8896 5.02614 17.0047C5.90738 17.1231 7.07535 17.125 8.75 17.125H12.25C13.9247 17.125 15.0926 17.1231 15.9739 17.0047C16.8299 16.8896 17.2833 16.679 17.6062 16.3562C17.929 16.0333 18.1396 15.5799 18.2547 14.7239C18.3731 13.8426 18.375 12.6747 18.375 11C18.375 9.32535 18.3731 8.15738 18.2547 7.27614C18.1396 6.42007 17.929 5.96674 17.6062 5.64385C17.2833 5.32096 16.8299 5.11044 15.9739 4.99534C15.0926 4.87686 13.9247 4.875 12.25 4.875H8.75C7.07535 4.875 5.90738 4.87686 5.02614 4.99534ZM10.5 6.625C10.9833 6.625 11.375 7.01675 11.375 7.5V7.59467C11.5627 7.64438 11.7454 7.71328 11.9203 7.80072C12.3336 8.00739 12.6906 8.3114 12.9604 8.68658C13.0674 8.83543 13.125 9.01413 13.125 9.19747V9.24997C13.125 9.73322 12.7333 10.125 12.25 10.125C11.889 10.125 11.5791 9.90634 11.4454 9.59426C11.3572 9.50106 11.2531 9.42369 11.1377 9.36597C10.9779 9.28609 10.8011 9.24622 10.6225 9.24979L10.605 9.24997H10.5075C10.505 9.24999 10.5025 9.25 10.5 9.25C10.4975 9.25 10.495 9.24999 10.4925 9.24997H9.97503C9.88221 9.24997 9.79318 9.28685 9.72754 9.35248C9.66191 9.41812 9.62503 9.50714 9.62503 9.59997V9.6061C9.62449 9.68292 9.64987 9.75767 9.6971 9.81827C9.74433 9.87886 9.81062 9.92175 9.88524 9.93998L9.88975 9.94108L11.5397 10.3536C11.9918 10.4694 12.3926 10.732 12.6795 11.1C12.9664 11.4681 13.1231 11.9209 13.125 12.3876L13.125 12.3912C13.125 12.9479 12.9049 13.482 12.5127 13.877C12.2022 14.1898 11.8037 14.3953 11.375 14.4693V14.5C11.375 14.9833 10.9833 15.375 10.5 15.375C10.0168 15.375 9.625 14.9833 9.625 14.5V14.3931C9.42744 14.3376 9.23569 14.2609 9.05319 14.1638C8.64079 13.9445 8.28817 13.6278 8.02593 13.2412C7.75463 12.8413 7.8589 12.2972 8.25881 12.0259C8.65872 11.7546 9.20284 11.8588 9.47413 12.2587C9.57647 12.4096 9.71408 12.5332 9.87502 12.6188C10.0356 12.7042 10.2146 12.7492 10.3965 12.75H11.021C11.1149 12.7487 11.2046 12.7107 11.2709 12.644C11.3372 12.5772 11.3746 12.4871 11.375 12.3931C11.3743 12.3143 11.3477 12.238 11.2992 12.1758C11.2508 12.1137 11.1833 12.0692 11.1071 12.0493L9.46982 11.64L9.4673 11.6393C9.011 11.5272 8.60571 11.2647 8.31683 10.8941C8.02798 10.5235 7.87236 10.0664 7.87503 9.5966C7.87592 9.04086 8.09707 8.50808 8.49011 8.11505C8.80044 7.80471 9.19791 7.60154 9.625 7.52934V7.5C9.625 7.01675 10.0168 6.625 10.5 6.625ZM4.375 11C4.375 10.5168 4.76675 10.125 5.25 10.125H5.25875C5.742 10.125 6.13375 10.5168 6.13375 11C6.13375 11.4833 5.742 11.875 5.25875 11.875H5.25C4.76675 11.875 4.375 11.4833 4.375 11ZM14.875 11C14.875 10.5168 15.2668 10.125 15.75 10.125H15.7588C16.242 10.125 16.6338 10.5168 16.6338 11C16.6338 11.4833 16.242 11.875 15.7588 11.875H15.75C15.2668 11.875 14.875 11.4833 14.875 11Z" fill="#1E7791"/>
</svg>
