<svg width="15" height="14" viewBox="0 0 15 14" fill="none" xmlns="http://www.w3.org/2000/svg">
<g opacity="0.7">
<path fill-rule="evenodd" clip-rule="evenodd" d="M12.0385 4.00945C12.0385 3.06044 11.2692 2.29112 10.3202 2.29112L4.59244 2.29112C3.64344 2.29112 2.87411 3.06044 2.87411 4.00945V9.73721C2.87411 10.6862 3.64344 11.4555 4.59244 11.4555H10.3202C11.2692 11.4555 12.0385 10.6862 12.0385 9.73721V4.00945ZM10.3202 1.14557C11.9019 1.14557 13.1841 2.42777 13.1841 4.00945V9.73721C13.1841 11.3189 11.9019 12.6011 10.3202 12.6011H4.59244C3.01076 12.6011 1.72856 11.3189 1.72856 9.73721V4.00945C1.72856 2.42777 3.01076 1.14557 4.59244 1.14557L10.3202 1.14557Z" fill="#1E7791"/>
<path fill-rule="evenodd" clip-rule="evenodd" d="M4.59229 6.87337C4.59229 6.55704 4.84873 6.3006 5.16506 6.3006H9.74727C10.0636 6.3006 10.32 6.55704 10.32 6.87337C10.32 7.18971 10.0636 7.44615 9.74727 7.44615H5.16506C4.84873 7.44615 4.59229 7.18971 4.59229 6.87337Z" fill="#1E7791"/>
<path fill-rule="evenodd" clip-rule="evenodd" d="M4.59229 4.5823C4.59229 4.26596 4.84873 4.00952 5.16506 4.00952H8.60172C8.91805 4.00952 9.17449 4.26596 9.17449 4.5823C9.17449 4.89863 8.91805 5.15507 8.60172 5.15507H5.16506C4.84873 5.15507 4.59229 4.89863 4.59229 4.5823Z" fill="#1E7791"/>
<path fill-rule="evenodd" clip-rule="evenodd" d="M4.59229 9.16445C4.59229 8.84812 4.84873 8.59167 5.16506 8.59167H7.45617C7.7725 8.59167 8.02894 8.84812 8.02894 9.16445C8.02894 9.48079 7.7725 9.73723 7.45617 9.73723H5.16506C4.84873 9.73723 4.59229 9.48079 4.59229 9.16445Z" fill="#1E7791"/>
</g>
</svg>
