<svg width="24" height="24" viewBox="0 0 24 24" fill="none" xmlns="http://www.w3.org/2000/svg">
<path d="M21.0003 4.60582L19.3603 2.99582C19.0454 2.68016 18.6713 2.42971 18.2595 2.25884C17.8477 2.08796 17.4062 2 16.9603 2C16.5144 2 16.0729 2.08796 15.6611 2.25884C15.2493 2.42971 14.8752 2.68016 14.5603 2.99582L3.43029 14.1258C2.9702 14.5903 2.60689 15.1415 2.36142 15.7475C2.11595 16.3534 1.9932 17.0021 2.00029 17.6558V19.9958C2.00029 20.5263 2.211 21.035 2.58608 21.41C2.96115 21.7851 3.46986 21.9958 4.00029 21.9958H6.35029C7.00685 21.9977 7.65719 21.8686 8.26329 21.6162C8.8694 21.3638 9.41911 20.9931 9.88029 20.5258L21.0003 9.40582C21.3206 9.09212 21.5743 8.71696 21.7462 8.30284C21.918 7.88872 22.0044 7.44416 22.0003 6.99582C22.0017 6.55084 21.914 6.11008 21.7422 5.69958C21.5705 5.28908 21.3182 4.91717 21.0003 4.60582ZM8.43029 19.1258C7.86659 19.6849 7.10424 19.9978 6.31029 19.9958H4.00029V17.6558C4.00099 16.8604 4.31752 16.0979 4.88029 15.5358L13.5003 6.91582L17.0903 10.5058L8.43029 19.1258ZM19.5603 7.99582L18.4703 9.09582L14.8803 5.50582L16.0003 4.40582C16.2666 4.14268 16.6259 3.99533 17.0003 3.99582C17.1858 3.99449 17.3698 4.03004 17.5415 4.10043C17.7131 4.17082 17.8691 4.27462 18.0003 4.40582L19.5603 5.99582C19.6965 6.12485 19.8055 6.27976 19.8811 6.45147C19.9566 6.62318 19.9972 6.80825 20.0003 6.99582C19.9918 7.37425 19.8335 7.73386 19.5603 7.99582Z" fill="#3C3C3C"/>
</svg>
