<svg width="21" height="22" viewBox="0 0 21 22" fill="none" xmlns="http://www.w3.org/2000/svg">
<path fill-rule="evenodd" clip-rule="evenodd" d="M6.45336 7.69292C6.83072 7.38918 7.38135 7.45074 7.68323 7.83042L8.87323 9.32708C9.06832 9.5726 9.31599 9.77103 9.59756 9.90725C9.87913 10.0435 10.1875 10.1142 10.5 10.1142C10.8124 10.1142 11.1208 10.0435 11.4024 9.90725C11.6839 9.77103 11.9314 9.57282 12.1265 9.32729L13.3167 7.83042C13.6186 7.45074 14.1692 7.38918 14.5466 7.69292C14.9239 7.99666 14.9851 8.55069 14.6832 8.93036L13.4934 10.4268C13.4933 10.4269 13.4935 10.4267 13.4934 10.4268C13.1344 10.8786 12.6788 11.2435 12.1607 11.4941C11.6425 11.7448 11.0749 11.875 10.5 11.875C9.92501 11.875 9.35741 11.7448 8.83923 11.4941C8.32114 11.2435 7.86572 10.8788 7.50671 10.427C7.50665 10.427 7.50677 10.4271 7.50671 10.427L6.31671 8.93036C6.01483 8.55069 6.07601 7.99666 6.45336 7.69292Z" fill="#1E7791"/>
<path fill-rule="evenodd" clip-rule="evenodd" d="M7 4.875C5.067 4.875 3.5 6.442 3.5 8.375V13.625C3.5 15.558 5.067 17.125 7 17.125H14C15.933 17.125 17.5 15.558 17.5 13.625V8.375C17.5 6.442 15.933 4.875 14 4.875H7ZM1.75 8.375C1.75 5.47551 4.10051 3.125 7 3.125H14C16.8995 3.125 19.25 5.47551 19.25 8.375V13.625C19.25 16.5245 16.8995 18.875 14 18.875H7C4.10051 18.875 1.75 16.5245 1.75 13.625V8.375Z" fill="#1E7791"/>
</svg>
