<svg width="32" height="32" viewBox="0 0 32 32" fill="none" xmlns="http://www.w3.org/2000/svg">
<rect width="32" height="32" rx="6" fill="#ECF0FF"/>
<path fill-rule="evenodd" clip-rule="evenodd" d="M25.8617 15.6536L25.2288 23.2491C25.0992 24.804 23.7994 26 22.2391 26H9.75994C8.19968 26 6.89988 24.804 6.7703 23.2491L6.13734 15.6536C6.0516 14.6246 6.50098 13.6239 7.32698 13.0044L14.1995 7.85C15.2662 7.05 16.7329 7.05 17.7995 7.85L24.6721 13.0044C25.4981 13.6239 25.9475 14.6246 25.8617 15.6536ZM13.9996 24.5L13.7072 20.9914C13.5954 19.6502 14.6538 18.5 15.9996 18.5C17.3454 18.5 18.4037 19.6502 18.292 20.9914L17.9996 24.5H13.9996Z" fill="#1E7791"/>
</svg>
