<svg width="61" height="62" viewBox="0 0 61 62" fill="none" xmlns="http://www.w3.org/2000/svg">
<path fill-rule="evenodd" clip-rule="evenodd" d="M57.9559 37.3516C59.6408 37.3516 61.0066 38.7174 61.0066 40.4022V46.5036C61.0066 50.549 59.3995 54.4288 56.539 57.2894C53.6784 60.1499 49.7987 61.757 45.7532 61.757H42.7025C41.0177 61.757 39.6519 60.3911 39.6519 58.7063C39.6519 57.0215 41.0177 55.6556 42.7025 55.6556H45.7532C48.1805 55.6556 50.5083 54.6914 52.2247 52.975C53.941 51.2587 54.9052 48.9309 54.9052 46.5036V40.4022C54.9052 38.7174 56.2711 37.3516 57.9559 37.3516Z" fill="#0F0F0F"/>
<path fill-rule="evenodd" clip-rule="evenodd" d="M15.2465 6.84452C12.8193 6.84452 10.4914 7.80874 8.77508 9.52508C7.05874 11.2414 6.09452 13.5693 6.09452 15.9965V22.0979C6.09452 23.7827 4.72868 25.1486 3.04384 25.1486C1.359 25.1486 -0.00683594 23.7827 -0.00683594 22.0979V15.9965C-0.00683594 11.9511 1.60021 8.07134 4.46077 5.21077C7.32134 2.35021 11.2011 0.743164 15.2465 0.743164H21.3479C23.0327 0.743164 24.3986 2.109 24.3986 3.79384C24.3986 5.47868 23.0327 6.84452 21.3479 6.84452H15.2465Z" fill="#0F0F0F"/>
<path fill-rule="evenodd" clip-rule="evenodd" d="M36.6013 3.79384C36.6013 2.109 37.9672 0.743164 39.652 0.743164H45.7533C49.7988 0.743164 53.6785 2.35021 56.5391 5.21077C59.3997 8.07134 61.0067 11.9511 61.0067 15.9965V22.0979C61.0067 23.7827 59.6409 25.1486 57.956 25.1486C56.2712 25.1486 54.9054 23.7827 54.9054 22.0979V15.9965C54.9054 13.5693 53.9411 11.2414 52.2248 9.52508C50.5085 7.80874 48.1806 6.84452 45.7533 6.84452H39.652C37.9672 6.84452 36.6013 5.47868 36.6013 3.79384Z" fill="#0F0F0F"/>
<path fill-rule="evenodd" clip-rule="evenodd" d="M3.04384 37.3516C4.72868 37.3516 6.09452 38.7174 6.09452 40.4022V46.5036C6.09452 48.9309 7.05874 51.2587 8.77508 52.975C10.4914 54.6914 12.8193 55.6556 15.2465 55.6556H18.2972C19.9821 55.6556 21.3479 57.0215 21.3479 58.7063C21.3479 60.3911 19.9821 61.757 18.2972 61.757H15.2465C11.2011 61.757 7.32134 60.1499 4.46077 57.2894C1.60021 54.4288 -0.00683594 50.549 -0.00683594 46.5036V40.4022C-0.00683594 38.7174 1.359 37.3516 3.04384 37.3516Z" fill="#0F0F0F"/>
<path fill-rule="evenodd" clip-rule="evenodd" d="M18.297 15.9971C19.9819 15.9971 21.3477 17.3629 21.3477 19.0477V22.0984C21.3477 23.7833 19.9819 25.1491 18.297 25.1491C16.6122 25.1491 15.2463 23.7833 15.2463 22.0984V19.0477C15.2463 17.3629 16.6122 15.9971 18.297 15.9971Z" fill="#0F0F0F"/>
<path fill-rule="evenodd" clip-rule="evenodd" d="M42.7025 15.9971C44.3874 15.9971 45.7532 17.3629 45.7532 19.0477V22.0984C45.7532 23.7833 44.3874 25.1491 42.7025 25.1491C41.0177 25.1491 39.6519 23.7833 39.6519 22.0984V19.0477C39.6519 17.3629 41.0177 15.9971 42.7025 15.9971Z" fill="#0F0F0F"/>
<path fill-rule="evenodd" clip-rule="evenodd" d="M30.4999 15.9971C32.1848 15.9971 33.5506 17.3629 33.5506 19.0477V28.5048C33.5506 30.4467 32.7792 32.3089 31.4061 33.682C30.0331 35.0551 28.1708 35.8265 26.229 35.8265H24.3986C22.7137 35.8265 21.3479 34.4606 21.3479 32.7758C21.3479 31.0909 22.7137 29.7251 24.3986 29.7251H26.229C26.5526 29.7251 26.863 29.5965 27.0918 29.3677C27.3207 29.1389 27.4493 28.8285 27.4493 28.5048V19.0477C27.4493 17.3629 28.8151 15.9971 30.4999 15.9971Z" fill="#0F0F0F"/>
<path fill-rule="evenodd" clip-rule="evenodd" d="M16.0052 39.9142C17.1172 38.6485 19.0447 38.5238 20.3105 39.6358C23.0941 42.0812 26.6726 43.4298 30.3777 43.4298C34.0829 43.4298 37.6614 42.0812 40.445 39.6358C41.7107 38.5238 43.6383 38.6485 44.7503 39.9142C45.8623 41.18 45.7376 43.1075 44.4719 44.2195C40.5749 47.6431 35.565 49.5312 30.3777 49.5312C25.1905 49.5312 20.1806 47.6431 16.2836 44.2195C15.0178 43.1075 14.8932 41.18 16.0052 39.9142Z" fill="#0F0F0F"/>
</svg>
