<svg width="21" height="22" viewBox="0 0 21 22" fill="none" xmlns="http://www.w3.org/2000/svg">
<path fill-rule="evenodd" clip-rule="evenodd" d="M10.5 4C6.63401 4 3.5 7.13401 3.5 11C3.5 14.866 6.63401 18 10.5 18C14.366 18 17.5 14.866 17.5 11C17.5 7.13401 14.366 4 10.5 4ZM1.75 11C1.75 6.16751 5.66751 2.25 10.5 2.25C15.3325 2.25 19.25 6.16751 19.25 11C19.25 15.8325 15.3325 19.75 10.5 19.75C5.66751 19.75 1.75 15.8325 1.75 11Z" fill="#1E7791"/>
<path fill-rule="evenodd" clip-rule="evenodd" d="M10.7561 8.40022C10.5015 8.34958 10.2376 8.37557 9.99773 8.47491C9.7579 8.57425 9.55292 8.74248 9.4087 8.95832C9.26448 9.17415 9.1875 9.42791 9.1875 9.6875C9.1875 10.1708 8.79575 10.5625 8.3125 10.5625C7.82925 10.5625 7.4375 10.1708 7.4375 9.6875C7.4375 9.0818 7.61711 8.48969 7.95362 7.98607C8.29014 7.48244 8.76843 7.08991 9.32803 6.85812C9.88763 6.62633 10.5034 6.56568 11.0975 6.68385C11.6915 6.80201 12.2372 7.09369 12.6655 7.52199C13.0938 7.95028 13.3855 8.49597 13.5037 9.09004C13.6218 9.6841 13.5612 10.2999 13.3294 10.8595C13.0976 11.4191 12.7051 11.8974 12.2014 12.2339C11.6978 12.5704 11.1057 12.75 10.5 12.75C10.0168 12.75 9.625 12.3583 9.625 11.875C9.625 11.3918 10.0168 11 10.5 11C10.7596 11 11.0133 10.923 11.2292 10.7788C11.445 10.6346 11.6133 10.4296 11.7126 10.1898C11.8119 9.94995 11.8379 9.68605 11.7873 9.43145C11.7366 9.17685 11.6116 8.94298 11.4281 8.75942C11.2445 8.57587 11.0107 8.45086 10.7561 8.40022Z" fill="#1E7791"/>
<path fill-rule="evenodd" clip-rule="evenodd" d="M9.625 14.5C9.625 14.0168 10.0168 13.625 10.5 13.625H10.5088C10.992 13.625 11.3837 14.0168 11.3837 14.5C11.3837 14.9832 10.992 15.375 10.5088 15.375H10.5C10.0168 15.375 9.625 14.9832 9.625 14.5Z" fill="#1E7791"/>
</svg>
