<svg width="20" height="20" viewBox="0 0 20 20" fill="none" xmlns="http://www.w3.org/2000/svg">
<path d="M4.99984 9.16667C6.84079 9.16667 8.33317 7.67428 8.33317 5.83333C8.33317 3.99238 6.84079 2.5 4.99984 2.5C3.15889 2.5 1.6665 3.99238 1.6665 5.83333C1.6665 7.67428 3.15889 9.16667 4.99984 9.16667Z" fill="#303037"/>
<path d="M14.9998 17.5C16.8408 17.5 18.3332 16.0076 18.3332 14.1667C18.3332 12.3257 16.8408 10.8333 14.9998 10.8333C13.1589 10.8333 11.6665 12.3257 11.6665 14.1667C11.6665 16.0076 13.1589 17.5 14.9998 17.5Z" fill="#303037"/>
<path d="M17.5 6.66667H10.8333C10.6123 6.66667 10.4004 6.57887 10.2441 6.42259C10.0878 6.26631 10 6.05435 10 5.83333C10 5.61232 10.0878 5.40036 10.2441 5.24408C10.4004 5.0878 10.6123 5 10.8333 5H17.5C17.721 5 17.933 5.0878 18.0893 5.24408C18.2455 5.40036 18.3333 5.61232 18.3333 5.83333C18.3333 6.05435 18.2455 6.26631 18.0893 6.42259C17.933 6.57887 17.721 6.66667 17.5 6.66667Z" fill="#303037"/>
<path d="M9.1665 15H2.49984C2.27882 15 2.06687 14.9122 1.91059 14.7559C1.75431 14.5996 1.6665 14.3877 1.6665 14.1667C1.6665 13.9456 1.75431 13.7337 1.91059 13.5774C2.06687 13.4211 2.27882 13.3333 2.49984 13.3333H9.1665C9.38752 13.3333 9.59948 13.4211 9.75576 13.5774C9.91204 13.7337 9.99984 13.9456 9.99984 14.1667C9.99984 14.3877 9.91204 14.5996 9.75576 14.7559C9.59948 14.9122 9.38752 15 9.1665 15Z" fill="#303037"/>
</svg>
