<svg width="108" height="120" viewBox="0 0 108 120" fill="none" xmlns="http://www.w3.org/2000/svg">
<path d="M53.6487 14.6633C64.1751 14.6633 74.1056 16.9225 83.4403 21.441C92.7751 25.9594 100.571 32.4887 106.827 41.029C107.522 41.9227 107.745 42.7172 107.497 43.4123C107.249 44.1074 106.827 44.7033 106.231 45.1998C105.635 45.6963 104.94 45.9198 104.146 45.8701C103.351 45.8205 102.656 45.3984 102.06 44.604C96.5983 36.8581 89.5725 30.9246 80.9825 26.8034C72.3926 22.6823 63.2813 20.6217 53.6487 20.6217C44.016 20.6217 34.9792 22.6823 26.5383 26.8034C18.0973 30.9246 11.0962 36.8581 5.53513 44.604C4.9393 45.4977 4.24416 45.9942 3.44972 46.0936C2.65527 46.1929 1.96013 45.9942 1.3643 45.4977C0.669161 45.0012 0.247113 44.3805 0.0981543 43.6357C-0.050804 42.8909 0.172633 42.1213 0.768467 41.3269C6.92541 32.8859 14.6464 26.3317 23.9315 21.6644C33.2166 16.997 43.1223 14.6633 53.6487 14.6633ZM53.6487 28.6654C67.0549 28.6654 78.5744 33.1342 88.207 42.0717C97.8397 51.0092 102.656 62.0817 102.656 75.2894C102.656 80.2547 100.893 84.4007 97.368 87.7274C93.8426 91.0541 89.5476 92.7175 84.4831 92.7175C79.4185 92.7175 75.0739 91.0541 71.4492 87.7274C67.8246 84.4007 66.0122 80.2547 66.0122 75.2894C66.0122 72.0123 64.7957 69.2566 62.3627 67.0222C59.9298 64.7878 57.0251 63.6706 53.6487 63.6706C50.2723 63.6706 47.3676 64.7878 44.9346 67.0222C42.5016 69.2566 41.2851 72.0123 41.2851 75.2894C41.2851 84.922 44.1402 92.9658 49.8502 99.4206C55.5603 105.876 62.9338 110.394 71.9706 112.976C72.8643 113.274 73.4601 113.77 73.7581 114.465C74.056 115.161 74.1056 115.905 73.907 116.7C73.7084 117.395 73.3112 117.991 72.7153 118.487C72.1195 118.984 71.3747 119.133 70.481 118.934C60.1532 116.352 51.7122 111.213 45.1581 103.517C38.6039 95.8208 35.3268 86.4116 35.3268 75.2894C35.3268 70.3241 37.1143 66.1533 40.6893 62.7769C44.2643 59.4005 48.5841 57.7123 53.6487 57.7123C58.7133 57.7123 63.0331 59.4005 66.6081 62.7769C70.1831 66.1533 71.9706 70.3241 71.9706 75.2894C71.9706 78.5665 73.2119 81.3222 75.6945 83.5566C78.1772 85.7909 81.1067 86.9081 84.4831 86.9081C87.8595 86.9081 90.7393 85.7909 93.1226 83.5566C95.506 81.3222 96.6976 78.5665 96.6976 75.2894C96.6976 63.7699 92.4772 54.0877 84.0362 46.2425C75.5952 38.3974 65.5157 34.4748 53.7976 34.4748C42.0796 34.4748 32.0001 38.3974 23.5591 46.2425C15.1181 54.0877 10.8976 63.7203 10.8976 75.1404C10.8976 77.5238 11.1211 80.5029 11.5679 84.0779C12.0148 87.6529 13.0824 91.8238 14.7706 96.5904C15.0685 97.4842 15.0436 98.2786 14.6961 98.9738C14.3485 99.6689 13.7775 100.165 12.9831 100.463C12.1886 100.761 11.419 100.736 10.6742 100.389C9.92941 100.041 9.40805 99.4703 9.11013 98.6758C7.62055 94.8029 6.55302 90.9548 5.90753 87.1316C5.26204 83.3083 4.9393 79.3609 4.9393 75.2894C4.9393 62.0817 9.73079 51.0092 19.3138 42.0717C28.8968 33.1342 40.3417 28.6654 53.6487 28.6654ZM53.6487 0.0654297C60.0042 0.0654297 66.2108 0.835048 72.2685 2.37428C78.3261 3.91352 84.1851 6.12307 89.8456 9.00293C90.7393 9.49946 91.2607 10.0953 91.4096 10.7904C91.5586 11.4856 91.4841 12.1807 91.1862 12.8758C90.8883 13.571 90.3917 14.1172 89.6966 14.5144C89.0015 14.9116 88.1574 14.862 87.1643 14.3654C81.9011 11.6842 76.4641 9.62359 70.8534 8.18366C65.2426 6.74373 59.5077 6.02376 53.6487 6.02376C47.889 6.02376 42.2285 6.69408 36.6674 8.0347C31.1063 9.37533 25.7935 11.4856 20.7289 14.3654C19.9344 14.862 19.14 14.9861 18.3456 14.7378C17.5511 14.4896 16.9553 13.9682 16.5581 13.1738C16.1608 12.3793 16.0615 11.6594 16.2601 11.0139C16.4587 10.3684 16.9553 9.79737 17.7497 9.30085C23.3108 6.32168 29.1202 4.03765 35.1778 2.44876C41.2355 0.859874 47.3924 0.0654297 53.6487 0.0654297ZM53.6487 43.1144C62.8841 43.1144 70.8285 46.2177 77.482 52.4243C84.1355 58.6309 87.4622 66.2526 87.4622 75.2894C87.4622 76.1831 87.1891 76.9031 86.643 77.4493C86.0968 77.9955 85.3768 78.2685 84.4831 78.2685C83.6886 78.2685 82.9935 77.9955 82.3976 77.4493C81.8018 76.9031 81.5039 76.1831 81.5039 75.2894C81.5039 67.8415 78.7482 61.61 73.2367 56.5951C67.7252 51.5802 61.1959 49.0727 53.6487 49.0727C46.1015 49.0727 39.6218 51.5802 34.2096 56.5951C28.7975 61.61 26.0914 67.8415 26.0914 75.2894C26.0914 83.3331 27.4817 90.1604 30.2622 95.7712C33.0428 101.382 37.1143 107.018 42.4768 112.678C43.0726 113.274 43.3706 113.969 43.3706 114.763C43.3706 115.558 43.0726 116.253 42.4768 116.849C41.881 117.445 41.1858 117.743 40.3914 117.743C39.5969 117.743 38.9018 117.445 38.306 116.849C32.4469 110.692 27.9534 104.411 24.8252 98.0055C21.6971 91.6003 20.1331 84.0283 20.1331 75.2894C20.1331 66.2526 23.4101 58.6309 29.9643 52.4243C36.5185 46.2177 44.4133 43.1144 53.6487 43.1144ZM53.4997 72.3102C54.3935 72.3102 55.1134 72.6081 55.6596 73.204C56.2058 73.7998 56.4789 74.4949 56.4789 75.2894C56.4789 82.7373 59.1601 88.8446 64.5226 93.6113C69.8851 98.3779 76.1414 100.761 83.2914 100.761C83.8872 100.761 84.7313 100.712 85.8237 100.612C86.916 100.513 88.0581 100.364 89.2497 100.165C90.1435 99.9668 90.9131 100.091 91.5586 100.538C92.2041 100.985 92.6261 101.655 92.8247 102.549C93.0233 103.343 92.8744 104.038 92.3778 104.634C91.8813 105.23 91.2358 105.627 90.4414 105.826C88.6539 106.322 87.0898 106.595 85.7492 106.645C84.4086 106.695 83.5893 106.72 83.2914 106.72C74.4532 106.72 66.7818 103.74 60.2773 97.7821C53.7728 91.8238 50.5206 84.3262 50.5206 75.2894C50.5206 74.4949 50.7936 73.7998 51.3398 73.204C51.886 72.6081 52.606 72.3102 53.4997 72.3102Z" fill="#0F0F0F"/>
</svg>
