<svg width="18" height="18" viewBox="0 0 18 18" fill="none" xmlns="http://www.w3.org/2000/svg">
<path fill-rule="evenodd" clip-rule="evenodd" d="M10.2131 3.0571C9.93285 3.17319 9.75012 3.44667 9.75012 3.75001L9.75012 6.0313C7.63786 6.20785 5.64631 7.12591 4.13616 8.63605C2.44833 10.3239 1.50012 12.6131 1.50012 15C1.50012 15.3185 1.70126 15.6022 2.00177 15.7077C2.30228 15.8132 2.63663 15.7173 2.83565 15.4687C3.70154 14.3869 4.79947 13.5136 6.04828 12.9132C7.20676 12.3562 8.4676 12.0474 9.75012 12.005V14.25C9.75012 14.5534 9.93285 14.8268 10.2131 14.9429C10.4934 15.059 10.816 14.9948 11.0305 14.7803L16.2805 9.53034C16.5733 9.23745 16.5733 8.76258 16.2805 8.46968L11.0305 3.21968C10.816 3.00519 10.4934 2.94102 10.2131 3.0571ZM14.6895 9.00001L11.2501 12.4394L11.2501 11.25C11.2501 11.0511 11.1711 10.8603 11.0305 10.7197C10.8898 10.579 10.699 10.5 10.5001 10.5H10.0501C8.43972 10.5008 6.84971 10.8635 5.39834 11.5613C4.64943 11.9214 3.94721 12.3659 3.30464 12.8846C3.65557 11.691 4.30126 10.5923 5.19682 9.69671C6.60334 8.29019 8.511 7.50001 10.5001 7.50001C10.699 7.50001 10.8898 7.421 11.0305 7.28034C11.1711 7.13969 11.2501 6.94893 11.2501 6.75001L11.2501 5.56067L14.6895 9.00001Z" fill="#303037"/>
</svg>
