<svg width="16" height="16" viewBox="0 0 16 16" fill="none" xmlns="http://www.w3.org/2000/svg">
<path d="M7.99968 1.3335C6.68114 1.3335 5.3922 1.72449 4.29588 2.45703C3.19955 3.18957 2.34506 4.23077 1.84048 5.44894C1.33589 6.66711 1.20387 8.00756 1.46111 9.30077C1.71834 10.594 2.35328 11.7819 3.28563 12.7142C4.21798 13.6466 5.40587 14.2815 6.69908 14.5387C7.99228 14.796 9.33273 14.6639 10.5509 14.1594C11.7691 13.6548 12.8103 12.8003 13.5428 11.704C14.2754 10.6076 14.6663 9.31871 14.6663 8.00016C14.6663 6.23205 13.964 4.53636 12.7137 3.28612C11.4635 2.03588 9.76779 1.3335 7.99968 1.3335ZM13.293 7.3335H11.033C10.895 5.74982 10.3733 4.2236 9.51301 2.88683C10.507 3.18054 11.3939 3.75753 12.0652 4.54725C12.7365 5.33696 13.1632 6.30517 13.293 7.3335ZM9.69968 7.3335H6.32634C6.47919 5.77586 7.05815 4.29041 7.99968 3.04016C8.94774 4.2892 9.53566 5.77401 9.69968 7.3335ZM6.32634 8.66683H9.71301C9.55067 10.2267 8.96257 11.712 8.01301 12.9602C7.06671 11.7114 6.4831 10.2258 6.32634 8.66683ZM6.49968 2.88683C5.64165 4.22367 5.12434 5.75043 4.99301 7.3335H2.70634C2.83617 6.30517 3.26283 5.33696 3.93415 4.54725C4.60546 3.75753 5.49234 3.18054 6.48634 2.88683H6.49968ZM2.70634 8.66683H4.99301C5.12707 10.2483 5.64171 11.7739 6.49301 13.1135C5.49777 12.8209 4.60947 12.2444 3.93689 11.4546C3.26432 10.6648 2.83668 9.69598 2.70634 8.66683ZM9.51968 13.1135C10.3769 11.7758 10.8962 10.2498 11.033 8.66683H13.293C13.1637 9.69433 12.738 10.662 12.068 11.4516C11.3979 12.2412 10.5124 12.8187 9.51968 13.1135Z" fill="#1E7791"/>
</svg>
