<svg width="91" height="86" viewBox="0 0 91 86" fill="none" xmlns="http://www.w3.org/2000/svg">
<path d="M46.0938 60.4556C36.0023 60.4556 27.3646 61.2312 23.9335 62.3228C22.9012 62.6481 22.334 63.0046 22.334 63.3767C22.334 63.5925 22.5233 63.8021 22.8867 64.0022C24.4862 64.9 29.4448 65.6443 36.0755 66.0228C39.1148 66.198 42.5175 66.2949 46.0944 66.2949C57.4654 66.2949 66.9606 65.3129 69.2869 64.0022C69.651 63.8021 69.8396 63.5925 69.8396 63.3767C69.8396 61.7629 59.21 60.4556 46.0938 60.4556Z" fill="#E8C405"/>
<path d="M56.5818 58.3043C57.7037 58.8513 58.351 59.4931 58.351 60.1797C58.351 62.1947 52.7862 63.8302 45.9207 63.8302C39.0497 63.8302 33.4849 62.1947 33.4849 60.1797C33.4849 59.4597 34.1937 58.7899 35.4216 58.2261C35.1592 58.5778 35.0198 58.946 35.0198 59.3257C35.0198 61.5862 56.9277 61.5862 56.9277 59.3257C56.9278 58.9742 56.8105 58.6337 56.5818 58.3043Z" fill="#E8C405"/>
<path d="M50.1289 49.5762C52.7691 50.7259 50.2293 53.1317 50.2293 53.1317C50.1959 53.1484 50.1623 53.1596 50.1289 53.1763V49.5762Z" fill="#E8C405"/>
<path d="M50.1292 49.5765V53.1767C45.5523 55.108 42.4266 53.5451 41.8237 53.199V49.4648C46.0044 52.3841 49.9505 49.5039 49.9505 49.5039C50.012 49.5262 50.0734 49.5485 50.1292 49.5765Z" fill="#E8C405"/>
<path d="M41.7178 53.1316C39.6247 50.6701 41.8127 49.459 41.8127 49.459C41.8184 49.459 41.8184 49.4646 41.824 49.4646V53.1988C41.7512 53.1539 41.7178 53.1316 41.7178 53.1316Z" fill="#E8C405"/>
<path d="M50.1289 44.77C52.8415 45.9087 50.274 48.3422 50.274 48.3422C50.2237 48.3646 50.1736 48.3869 50.1289 48.4036V44.77Z" fill="#E8C405"/>
<path d="M50.1292 44.7695V48.4031C45.4517 50.3622 42.2982 48.6599 41.8237 48.3808V44.6913C41.8461 44.6746 41.8573 44.6689 41.8573 44.6689C46.0435 47.5993 49.9953 44.7136 49.9953 44.7136C50.0398 44.7305 50.0845 44.7472 50.1292 44.7695Z" fill="#E8C405"/>
<path d="M41.8238 44.6934V48.3829C41.7848 48.3549 41.7624 48.3438 41.7624 48.3438C39.8255 46.0608 41.5558 44.8551 41.8238 44.6934Z" fill="#E8C405"/>
<path d="M45.9203 56.5321C44.7146 56.5321 43.5481 56.5824 42.4428 56.6772C42.2195 56.3255 42.0521 55.9349 41.9517 55.5162C43.1964 55.3319 44.5528 55.2314 45.9704 55.2314C47.3938 55.2314 48.7556 55.3319 50.0003 55.5162C49.8999 55.9347 49.7269 56.3255 49.5035 56.6826C48.3705 56.588 47.1648 56.5321 45.9203 56.5321Z" fill="#E8C405"/>
<path d="M45.9708 55.2303C44.553 55.2303 43.1968 55.3307 41.9521 55.515C41.8684 55.1913 41.8237 54.8508 41.8237 54.4991V53.1986C42.4266 53.5447 45.5523 55.1075 50.1292 53.1763V54.4991C50.1292 54.8508 50.0845 55.1913 50.0008 55.515C48.7561 55.3307 47.3942 55.2303 45.9708 55.2303Z" fill="#E8C405"/>
<path d="M41.9519 55.5142C42.0523 55.9327 42.2197 56.3235 42.4431 56.6752C39.5071 56.9265 37.0233 57.4845 35.4214 58.227C36.3424 56.9821 38.7871 55.983 41.9519 55.5142Z" fill="#E8C405"/>
<path d="M56.9274 59.3282C56.9274 61.5887 35.0195 61.5887 35.0195 59.3282C35.0195 58.9487 35.159 58.5803 35.4214 58.2285C37.0233 57.4862 39.5071 56.9281 42.443 56.6768C43.1743 57.8656 44.4804 58.6527 45.9762 58.6527C47.4664 58.6527 48.7725 57.8657 49.5037 56.6824C52.49 56.9502 55.0072 57.5364 56.5812 58.3012V58.3068C56.8101 58.636 56.9274 58.9765 56.9274 59.3282Z" fill="#E8C405"/>
<path d="M56.5813 58.2994C55.0074 57.5348 52.49 56.9486 49.5039 56.6806C49.7273 56.3235 49.9003 55.9327 50.0007 55.5142C53.2266 55.9941 55.705 57.0267 56.5813 58.2994Z" fill="#E8C405"/>
<path d="M49.5041 56.682C48.7728 57.8653 47.4667 58.6523 45.9765 58.6523C44.4807 58.6523 43.1746 57.8653 42.4434 56.6763C43.5484 56.5815 44.7151 56.5312 45.9208 56.5312C47.1653 56.5312 48.371 56.5872 49.5041 56.682Z" fill="#E8C405"/>
<path d="M41.8237 49.4636V48.3809C42.2982 48.6599 45.4517 50.3622 50.1292 48.4032V49.5753C50.0732 49.5473 50.012 49.525 49.9505 49.5027C49.9505 49.5027 46.0044 52.3829 41.8237 49.4636Z" fill="#E8C405"/>
<path d="M41.8237 44.6927V42.7838C42.8618 42.9401 43.9224 43.0182 44.9997 43.0182C46.7636 43.0182 48.4826 42.8061 50.1294 42.4043V44.771C50.0847 44.7487 50.04 44.732 49.9953 44.7151C49.9953 44.7151 46.0435 47.6009 41.8573 44.6704C41.8573 44.6704 41.8461 44.676 41.8237 44.6927Z" fill="#E8C405"/>
<path d="M66.7625 10.8457C72.266 10.8457 76.7257 15.4785 76.7257 21.1941C76.7257 26.9097 72.266 31.5425 66.7625 31.5425C65.914 31.5425 65.0936 31.4308 64.3066 31.2243C64.9819 29.9293 65.529 28.5562 65.9309 27.1217C66.1932 27.172 66.4611 27.1944 66.7291 27.1944C69.7934 27.1944 72.2772 24.2081 72.2772 20.5242C72.2772 16.8404 69.7991 13.8597 66.7347 13.8541V12.9722C66.7347 12.2577 66.7011 11.549 66.6341 10.8511C66.6786 10.8457 66.7178 10.8457 66.7625 10.8457Z" fill="#E8C405"/>
<path d="M23.9903 26.8527C24.3755 28.3039 24.9113 29.6993 25.5755 31.011C24.9169 31.1561 24.2414 31.2287 23.5438 31.2287C18.0403 31.2287 13.5806 26.5959 13.5806 20.8804C13.5806 15.2151 17.9566 10.6159 23.3931 10.5376C23.3038 11.3358 23.2591 12.1508 23.2591 12.9711V13.5516C20.3121 13.708 17.9621 16.627 17.9621 20.2105C17.9621 23.8944 20.4459 26.8806 23.5102 26.8806C23.672 26.8806 23.834 26.8694 23.9903 26.8527Z" fill="#E8C405"/>
<path d="M66.6342 10.8504C66.6229 10.7443 66.6119 10.6383 66.5952 10.5322H23.544C23.4939 10.5322 23.4436 10.5322 23.3933 10.5379C23.304 11.3361 23.2593 12.151 23.2593 12.9714V13.5519V21.2768C23.2593 23.2025 23.5104 25.0724 23.9905 26.8529C24.3756 28.3041 24.9115 29.6996 25.5757 31.0113C28.7014 37.2126 34.7184 41.7335 41.8238 42.7829C42.862 42.9392 43.9224 43.0173 44.9998 43.0173C46.7636 43.0173 48.4828 42.8052 50.1294 42.4034C56.2971 40.8965 61.449 36.7436 64.3067 31.2234C64.9822 29.9285 65.5291 28.5554 65.9309 27.1209C66.4557 25.2623 66.7348 23.2976 66.7348 21.277V13.8533V12.9714C66.7346 12.2569 66.701 11.548 66.6342 10.8504Z" fill="#E8C405"/>
<path d="M64.0107 2.47266H25.9831H16.9072V10.5326H23.3987H23.5438H66.5951H72.8409V2.47266H64.0107Z" fill="#E8C405"/>
<path d="M52.8418 12.8697L52.025 9.00098L51.2082 12.8697C50.8253 14.6831 50.1301 16.2528 49.2153 17.3697C50.0924 17.8008 50.7849 18.9605 51.0588 20.4569L52.0252 25.7383L52.9916 20.4569C53.2654 18.9605 53.9579 17.8008 54.835 17.3697C53.9198 16.2529 53.2247 14.6831 52.8418 12.8697Z" fill="#F4F2ED"/>
<g clip-path="url(#clip0_1023_12007)">
<path d="M2.69243 64.7607C2.16157 64.1635 2.58553 63.2195 3.38457 63.2195H87.8051C88.6538 63.2195 89.0554 64.2661 88.4246 64.8338L79.8271 72.5716C79.127 73.2017 79.1592 74.3092 79.8946 74.8976L88.0834 81.4486C88.767 81.9955 88.3803 83.0978 87.5049 83.0978H3.6143C2.78927 83.0978 2.3761 82.1003 2.95948 81.5169L9.68587 74.7905C10.2572 74.2192 10.2842 73.3015 9.74737 72.6976L2.69243 64.7607Z" fill="#E8C405" stroke="white" stroke-width="0.600033"/>
<path d="M41.5981 73.2738V75.6704C41.5171 75.7903 41.3882 75.9252 41.2114 76.0751C41.0345 76.2219 40.7902 76.3508 40.4785 76.4617C40.1697 76.5697 39.771 76.6236 39.2824 76.6236C38.8837 76.6236 38.5165 76.5547 38.1808 76.4168C37.848 76.2759 37.5588 76.0721 37.313 75.8053C37.0702 75.5355 36.8813 75.2087 36.7464 74.825C36.6145 74.4384 36.5486 74.0007 36.5486 73.5121V73.004C36.5486 72.5154 36.6055 72.0792 36.7194 71.6955C36.8363 71.3118 37.0072 70.9866 37.232 70.7198C37.4568 70.45 37.7326 70.2462 38.0594 70.1083C38.3861 69.9674 38.7608 69.8969 39.1835 69.8969C39.6841 69.8969 40.1023 69.9839 40.438 70.1577C40.7767 70.3286 41.0405 70.5654 41.2294 70.8682C41.4212 71.1709 41.5441 71.5157 41.5981 71.9024H40.7303C40.6913 71.6655 40.6133 71.4497 40.4964 71.2549C40.3825 71.06 40.2192 70.9041 40.0063 70.7872C39.7935 70.6673 39.5192 70.6074 39.1835 70.6074C38.8807 70.6074 38.6184 70.6628 38.3966 70.7738C38.1748 70.8847 37.9919 71.0435 37.848 71.2504C37.7042 71.4572 37.5962 71.7075 37.5243 72.0013C37.4553 72.295 37.4209 72.6263 37.4209 72.995V73.5121C37.4209 73.8898 37.4643 74.227 37.5513 74.5238C37.6412 74.8205 37.7686 75.0738 37.9335 75.2837C38.0983 75.4905 38.2947 75.6479 38.5225 75.7558C38.7533 75.8637 39.0081 75.9177 39.2869 75.9177C39.5957 75.9177 39.846 75.8922 40.0378 75.8412C40.2297 75.7873 40.3795 75.7243 40.4874 75.6524C40.5954 75.5774 40.6778 75.507 40.7348 75.4411V73.9752H39.2195V73.2738H41.5981ZM42.7141 74.1551V74.0517C42.7141 73.7009 42.765 73.3757 42.8669 73.0759C42.9689 72.7732 43.1157 72.5109 43.3076 72.2891C43.4994 72.0642 43.7318 71.8904 44.0045 71.7675C44.2773 71.6416 44.5831 71.5786 44.9218 71.5786C45.2635 71.5786 45.5708 71.6416 45.8436 71.7675C46.1194 71.8904 46.3532 72.0642 46.545 72.2891C46.7399 72.5109 46.8883 72.7732 46.9902 73.0759C47.0921 73.3757 47.1431 73.7009 47.1431 74.0517V74.1551C47.1431 74.5058 47.0921 74.831 46.9902 75.1308C46.8883 75.4306 46.7399 75.6929 46.545 75.9177C46.3532 76.1395 46.1209 76.3134 45.8481 76.4393C45.5783 76.5622 45.2725 76.6236 44.9308 76.6236C44.5891 76.6236 44.2818 76.5622 44.009 76.4393C43.7363 76.3134 43.5024 76.1395 43.3076 75.9177C43.1157 75.6929 42.9689 75.4306 42.8669 75.1308C42.765 74.831 42.7141 74.5058 42.7141 74.1551ZM43.5459 74.0517V74.1551C43.5459 74.3979 43.5744 74.6272 43.6313 74.843C43.6883 75.0559 43.7737 75.2447 43.8876 75.4096C44.0045 75.5745 44.1499 75.7048 44.3238 75.8008C44.4976 75.8937 44.7 75.9402 44.9308 75.9402C45.1586 75.9402 45.358 75.8937 45.5288 75.8008C45.7027 75.7048 45.8466 75.5745 45.9605 75.4096C46.0744 75.2447 46.1598 75.0559 46.2168 74.843C46.2767 74.6272 46.3067 74.3979 46.3067 74.1551V74.0517C46.3067 73.8118 46.2767 73.5855 46.2168 73.3727C46.1598 73.1569 46.0729 72.9665 45.956 72.8016C45.8421 72.6338 45.6982 72.5019 45.5243 72.406C45.3535 72.31 45.1526 72.2621 44.9218 72.2621C44.694 72.2621 44.4932 72.31 44.3193 72.406C44.1484 72.5019 44.0045 72.6338 43.8876 72.8016C43.7737 72.9665 43.6883 73.1569 43.6313 73.3727C43.5744 73.5855 43.5459 73.8118 43.5459 74.0517ZM49.1134 69.6272V76.5337H48.277V69.6272H49.1134ZM53.5387 75.5894V69.6272H54.3751V76.5337H53.6107L53.5387 75.5894ZM50.2653 74.1551V74.0606C50.2653 73.6889 50.3103 73.3517 50.4002 73.049C50.4932 72.7432 50.6235 72.4809 50.7914 72.2621C50.9623 72.0432 51.1646 71.8754 51.3984 71.7585C51.6352 71.6386 51.899 71.5786 52.1898 71.5786C52.4956 71.5786 52.7624 71.6326 52.9902 71.7405C53.221 71.8454 53.4158 71.9998 53.5747 72.2036C53.7366 72.4045 53.864 72.6473 53.9569 72.932C54.0498 73.2168 54.1143 73.5391 54.1503 73.8988V74.3125C54.1173 74.6692 54.0528 74.9899 53.9569 75.2747C53.864 75.5595 53.7366 75.8023 53.5747 76.0031C53.4158 76.204 53.221 76.3583 52.9902 76.4662C52.7594 76.5712 52.4896 76.6236 52.1808 76.6236C51.896 76.6236 51.6352 76.5622 51.3984 76.4393C51.1646 76.3164 50.9623 76.144 50.7914 75.9222C50.6235 75.7004 50.4932 75.4396 50.4002 75.1398C50.3103 74.837 50.2653 74.5088 50.2653 74.1551ZM51.1017 74.0606V74.1551C51.1017 74.3979 51.1257 74.6257 51.1736 74.8385C51.2246 75.0514 51.3025 75.2387 51.4074 75.4006C51.5123 75.5625 51.6457 75.6899 51.8076 75.7828C51.9695 75.8727 52.1628 75.9177 52.3877 75.9177C52.6634 75.9177 52.8898 75.8592 53.0666 75.7423C53.2465 75.6254 53.3904 75.471 53.4983 75.2792C53.6062 75.0873 53.6901 74.879 53.7501 74.6542V73.5705C53.7141 73.4057 53.6616 73.2468 53.5927 73.0939C53.5268 72.938 53.4398 72.8001 53.3319 72.6802C53.227 72.5573 53.0966 72.4599 52.9407 72.388C52.7878 72.316 52.6065 72.2801 52.3966 72.2801C52.1688 72.2801 51.9725 72.328 51.8076 72.4239C51.6457 72.5169 51.5123 72.6458 51.4074 72.8106C51.3025 72.9725 51.2246 73.1614 51.1736 73.3772C51.1257 73.59 51.1017 73.8178 51.1017 74.0606Z" fill="white"/>
</g>
<defs>
<clipPath id="clip0_1023_12007">
<rect width="90.3459" height="20.4784" fill="white" transform="translate(0.654297 62.9194)"/>
</clipPath>
</defs>
</svg>
