<svg width="18" height="18" viewBox="0 0 18 18" fill="none" xmlns="http://www.w3.org/2000/svg">
<path fill-rule="evenodd" clip-rule="evenodd" d="M6.8945 3.88646C6.2935 3.69872 5.64865 3.70484 5.05132 3.90395C4.45398 4.10306 3.93443 4.48507 3.56627 4.99587C3.19811 5.50667 3 6.12035 3 6.75C3 8.87071 3.97398 10.5675 5.21729 11.8395C6.46055 13.1115 7.93069 13.9119 8.81069 14.226C8.93453 14.2606 9.06547 14.2606 9.18931 14.226C10.0693 13.9119 11.5394 13.1115 12.7827 11.8395C14.026 10.5675 15 8.87071 15 6.75C15 6.12035 14.8019 5.50667 14.4337 4.99587C14.0656 4.48507 13.546 4.10306 12.9487 3.90395C12.3513 3.70484 11.7065 3.69872 11.1055 3.88646C10.5045 4.0742 9.97779 4.44628 9.6 4.95C9.45836 5.13885 9.23607 5.25 9 5.25C8.76393 5.25 8.54164 5.13885 8.4 4.95C8.02221 4.44628 7.49551 4.0742 6.8945 3.88646ZM4.57698 2.48093C5.47298 2.18226 6.44024 2.17308 7.34175 2.45469C7.95865 2.64739 8.52335 2.96957 9 3.39589C9.47666 2.96957 10.0414 2.64739 10.6582 2.45469C11.5598 2.17308 12.527 2.18226 13.423 2.48093C14.319 2.77959 15.0983 3.35261 15.6506 4.1188C16.2028 4.885 16.5 5.80553 16.5 6.75C16.5 9.36929 15.2877 11.4225 13.8554 12.888C12.4319 14.3444 10.7491 15.2667 9.66933 15.6473C9.65847 15.6512 9.64752 15.6547 9.6365 15.6581C9.22139 15.7832 8.77861 15.7832 8.3635 15.6581C8.35248 15.6547 8.34153 15.6512 8.33067 15.6473C7.25094 15.2667 5.56812 14.3444 4.14458 12.888C2.71227 11.4225 1.5 9.36929 1.5 6.75C1.5 5.80553 1.79717 4.885 2.34941 4.1188C2.90165 3.35261 3.68097 2.77959 4.57698 2.48093Z" fill="#0F0F0F"/>
</svg>
