<svg width="32" height="32" viewBox="0 0 32 32" fill="none" xmlns="http://www.w3.org/2000/svg">
<rect width="32" height="32" rx="6" fill="#ECF0FF"/>
<path fill-rule="evenodd" clip-rule="evenodd" d="M11.1825 5.43655C11.3691 5.16338 11.6785 5 12.0093 5H16.4657C16.7461 5 17.0137 5.11763 17.2033 5.32428C17.393 5.53093 17.4874 5.80767 17.4635 6.08719L17.4404 6.35662L19.8806 6.01167C20.251 5.95931 20.6197 6.11783 20.8366 6.42271C21.0535 6.72758 21.0825 7.12798 20.9118 7.46093L19.3114 10.5814C20.8858 11.469 22.235 12.7084 23.2531 14.2039C24.3015 15.7437 24.9689 17.5109 25.2002 19.3595L25.2005 19.3621L25.4607 21.3646C25.5499 22.073 25.4868 22.7923 25.2754 23.4743C25.0641 24.1562 24.7094 24.7851 24.2352 25.3188C23.7611 25.8524 23.1783 26.2785 22.5261 26.5684C21.8751 26.8578 21.1699 27.0049 20.4576 26.9999H11.5424C10.8301 27.0049 10.1249 26.8578 9.47389 26.5684C8.82167 26.2785 8.23894 25.8524 7.76477 25.3188C7.2906 24.7851 6.93594 24.1562 6.72459 23.4743C6.51323 22.7923 6.45006 22.073 6.53929 21.3646L6.53978 21.3607L6.79974 19.3604L6.79995 19.3587C7.03463 17.5067 7.70701 15.7372 8.76143 14.1968C9.78484 12.7018 11.1395 11.4644 12.719 10.5806L11.0763 6.36575C10.9561 6.05747 10.9959 5.70973 11.1825 5.43655ZM14.7757 12.0127C14.4425 12.0145 14.1151 12.0995 13.823 12.2598L13.8177 12.2628C12.4557 12.9997 11.2889 14.0508 10.414 15.3289C9.53906 16.607 8.98125 18.0753 8.78674 19.6121L8.78632 19.6154L8.52645 21.6151L8.52622 21.6169C8.47301 22.0414 8.51099 22.4723 8.63762 22.8809C8.76444 23.2901 8.97723 23.6674 9.26173 23.9876C9.54623 24.3078 9.89587 24.5635 10.2872 24.7374C10.6785 24.9114 11.1025 24.9996 11.5307 24.9963L11.5386 24.9962L20.4692 24.9962C20.8975 24.9996 21.3215 24.9114 21.7128 24.7374C22.1041 24.5635 22.4538 24.3078 22.7383 23.9876C23.0228 23.6674 23.2356 23.2901 23.3624 22.8809C23.489 22.4723 23.527 22.0413 23.4738 21.6169L23.4736 21.6151L23.213 19.6105C23.0214 18.0763 22.4678 16.6097 21.5977 15.3318C20.7277 14.0539 19.5663 13.0013 18.2094 12.2611L18.207 12.2598C17.915 12.0995 17.5875 12.0145 17.2544 12.0127H14.7757ZM17.3539 10.0091L17.3572 10.0026L18.2478 8.26602L16.4756 8.51654C16.1736 8.55923 15.8686 8.46192 15.6471 8.2522C15.4256 8.04248 15.3117 7.7432 15.3377 7.43921L15.3749 7.00363H13.4746L14.646 10.0091L14.771 10.0091L14.7732 10.0091L17.3539 10.0091ZM16.015 13.5154C16.5681 13.5154 17.0165 13.964 17.0165 14.5173V14.626C17.2428 14.686 17.4628 14.7703 17.6725 14.8781C18.132 15.1142 18.529 15.4561 18.8308 15.8756C18.9534 16.0461 19.0193 16.2508 19.0193 16.4608V16.5209C19.0193 17.0742 18.571 17.5227 18.0179 17.5227C17.6048 17.5227 17.2501 17.2725 17.097 16.9153C16.9993 16.812 16.8845 16.7257 16.7573 16.6603C16.58 16.5692 16.3835 16.5214 16.1841 16.5209H15.4142C15.3079 16.5209 15.206 16.5631 15.1309 16.6383C15.0558 16.7134 15.0136 16.8153 15.0136 16.9216L15.0136 16.9245C15.0133 17.0159 15.0435 17.1048 15.0994 17.1771C15.1546 17.2484 15.2316 17.2995 15.3186 17.3227L17.205 17.7844C17.7252 17.9178 18.1861 18.2209 18.5147 18.6458C18.843 19.0703 19.0206 19.5922 19.0193 20.1289C19.0189 20.766 18.7658 21.377 18.3154 21.8276C17.9602 22.1829 17.5053 22.4155 17.0165 22.4982V22.5418C17.0165 23.0951 16.5681 23.5436 16.015 23.5436C15.4619 23.5436 15.0136 23.0951 15.0136 22.5418V22.4116C14.787 22.3484 14.5671 22.2606 14.3579 22.1493C13.8842 21.8972 13.4799 21.5322 13.1808 21.0867C12.8724 20.6274 12.9947 20.0049 13.4538 19.6965C13.913 19.388 14.5352 19.5103 14.8435 19.9696C14.9591 20.1418 15.1154 20.2829 15.2985 20.3803C15.4815 20.4777 15.6858 20.5285 15.8932 20.5281L15.8948 20.5281L16.6159 20.5281C16.7221 20.5281 16.824 20.4859 16.8991 20.4108C16.9743 20.3356 17.0165 20.2337 17.0165 20.1274L17.0165 20.1245C17.0167 20.0331 16.9865 19.9442 16.9306 19.8719C16.8755 19.8007 16.7985 19.7495 16.7115 19.7264L14.8251 19.2646C14.3049 19.1313 13.844 18.8281 13.5154 18.4032C13.187 17.9787 13.0095 17.4569 13.0107 16.9201C13.0111 16.283 13.2643 15.672 13.7147 15.2215C14.0699 14.8661 14.5248 14.6335 15.0136 14.5509V14.5173C15.0136 13.964 15.4619 13.5154 16.015 13.5154Z" fill="#1E7791"/>
</svg>
