<svg width="28" height="28" viewBox="0 0 28 28" fill="none" xmlns="http://www.w3.org/2000/svg">
<path d="M7.12915 25.2988L2.59714 20.7668C2.49213 20.6609 2.40905 20.5354 2.35267 20.3973C2.29628 20.2593 2.2677 20.1115 2.26857 19.9623C2.26982 19.6651 2.38782 19.3803 2.59714 19.1692C2.70246 19.063 2.82778 18.9788 2.96584 18.9212C3.10391 18.8637 3.252 18.8341 3.40157 18.8341C3.55114 18.8341 3.69923 18.8637 3.8373 18.9212C3.97536 18.9788 4.10067 19.063 4.206 19.1692L6.80058 21.7638L6.80058 4.10029C6.80058 3.7998 6.91995 3.51161 7.13243 3.29913C7.34491 3.08665 7.6331 2.96728 7.93359 2.96728C8.23408 2.96728 8.52226 3.08665 8.73474 3.29913C8.94722 3.51161 9.06659 3.7998 9.06659 4.10029L9.06659 21.7638L11.6612 19.1692C11.7661 19.0636 11.8907 18.9797 12.0281 18.9222C12.1654 18.8647 12.3127 18.8349 12.4616 18.8344C12.7623 18.8333 13.051 18.9517 13.2644 19.1636C13.37 19.2685 13.454 19.3931 13.5114 19.5305C13.5689 19.6678 13.5987 19.8151 13.5992 19.964C13.6003 20.2647 13.4819 20.5534 13.27 20.7668L8.73802 25.2988C8.63269 25.405 8.50738 25.4893 8.36931 25.5468C8.23124 25.6043 8.08316 25.6339 7.93359 25.6339C7.78402 25.6339 7.63593 25.6043 7.49786 25.5468C7.35979 25.4893 7.23448 25.405 7.12915 25.2988Z" fill="#ECF0FF"/>
<path d="M19.2637 25.6274C19.1149 25.6274 18.9676 25.5981 18.8301 25.5411C18.6926 25.4842 18.5677 25.4007 18.4625 25.2955C18.3573 25.1903 18.2739 25.0654 18.2169 24.928C18.16 24.7905 18.1307 24.6432 18.1307 24.4944L18.1307 6.84218L15.5361 9.43676C15.4308 9.54295 15.3055 9.62724 15.1674 9.68476C15.0293 9.74228 14.8812 9.7719 14.7317 9.7719C14.5821 9.7719 14.434 9.74228 14.296 9.68476C14.1579 9.62724 14.0326 9.54295 13.9272 9.43676C13.8222 9.33089 13.7392 9.20533 13.6828 9.06729C13.6264 8.92925 13.5978 8.78144 13.5987 8.63232C13.5978 8.48321 13.6264 8.3354 13.6828 8.19736C13.7392 8.05931 13.8222 7.93376 13.9272 7.82789L18.4593 3.29587C18.5651 3.19087 18.6907 3.10779 18.8287 3.05141C18.9668 2.99502 19.1146 2.96644 19.2637 2.9673C19.7282 2.9673 19.7282 2.9673 24.6001 7.82789C24.8135 8.04124 24.9333 8.3306 24.9333 8.63233C24.9333 8.93405 24.8135 9.22341 24.6001 9.43676C24.3868 9.65011 24.0974 9.76996 23.7957 9.76996C23.494 9.76996 23.2046 9.65011 22.9913 9.43676L20.3967 6.83085L20.3967 24.4944C20.3967 24.7949 20.2773 25.0831 20.0648 25.2955C19.8524 25.508 19.5642 25.6274 19.2637 25.6274Z" fill="#ECF0FF"/>
</svg>
