<svg width="24" height="25" viewBox="0 0 24 25" fill="none" xmlns="http://www.w3.org/2000/svg">
<path d="M16.92 4.68108C16.5847 4.4153 16.1924 4.23157 15.7741 4.14446C15.3557 4.05736 14.9229 4.06927 14.51 4.17926L5.12 6.58799C4.23463 6.78839 3.4435 7.28502 2.87653 7.99632C2.30955 8.70761 2.00045 9.59128 2 10.5022V11.6865C2.00066 12.576 2.29565 13.4401 2.83864 14.1431C3.38163 14.8461 4.14187 15.3482 5 15.5705V16.5742C5 17.5058 5.36875 18.3993 6.02513 19.0581C6.68151 19.7168 7.57174 20.0869 8.5 20.0869C9.29957 20.0867 10.075 19.8118 10.6972 19.3078C11.3194 18.8038 11.7509 18.1012 11.92 17.3169L14.51 17.9793C14.7386 18.0389 14.9738 18.0692 15.21 18.0696C15.8292 18.0653 16.4299 17.8573 16.92 17.4775C17.2522 17.2198 17.5219 16.8901 17.709 16.5129C17.896 16.1357 17.9955 15.7209 18 15.2996V6.89912C18.0023 6.4709 17.9061 6.04793 17.7188 5.66319C17.5314 5.27844 17.2581 4.94234 16.92 4.68108ZM8.5 18.1198C8.10218 18.1198 7.72065 17.9612 7.43935 17.6788C7.15804 17.3965 7 17.0136 7 16.6143V16.0924L10 16.8552C9.9425 17.2114 9.75941 17.5351 9.48409 17.7672C9.20876 17.9993 8.85954 18.1244 8.5 18.1198Z" fill="#1E7791"/>
<path d="M19.9997 14.7577C19.7567 14.7573 19.522 14.6681 19.3397 14.5068C19.2399 14.4196 19.1583 14.3134 19.0996 14.1943C19.041 14.0752 19.0065 13.9456 18.9981 13.8131C18.9897 13.6805 19.0077 13.5476 19.0509 13.422C19.0941 13.2965 19.1617 13.1807 19.2497 13.0816C19.7366 12.5275 20.0036 11.8131 19.9997 11.0743C20.0036 10.3356 19.7366 9.62114 19.2497 9.06706C19.0749 8.86731 18.9862 8.60612 19.0031 8.34081C19.02 8.0755 19.1411 7.82775 19.3397 7.65193C19.5375 7.47527 19.797 7.38451 20.0613 7.39956C20.3256 7.41461 20.5732 7.53424 20.7497 7.73222C21.5651 8.66 22.0102 9.85735 21.9997 11.0944C22.0004 12.3176 21.5559 13.499 20.7497 14.4164C20.656 14.5235 20.5407 14.6093 20.4114 14.6681C20.282 14.727 20.1417 14.7575 19.9997 14.7577Z" fill="#1E7791"/>
</svg>
