<svg width="21" height="22" viewBox="0 0 21 22" fill="none" xmlns="http://www.w3.org/2000/svg">
<path fill-rule="evenodd" clip-rule="evenodd" d="M10.5 8.39252C9.53837 8.39252 8.75879 9.1721 8.75879 10.1338C8.75879 11.0954 9.53837 11.875 10.5 11.875C11.4617 11.875 12.2413 11.0954 12.2413 10.1338C12.2413 9.1721 11.4617 8.39252 10.5 8.39252ZM7.00879 10.1338C7.00879 8.2056 8.57188 6.64252 10.5 6.64252C12.4282 6.64252 13.9913 8.2056 13.9913 10.1338C13.9913 12.0619 12.4282 13.625 10.5 13.625C8.57188 13.625 7.00879 12.0619 7.00879 10.1338Z" fill="#1E7791"/>
<path fill-rule="evenodd" clip-rule="evenodd" d="M10.5 4C8.87555 4 7.31763 4.64531 6.16897 5.79397C5.02031 6.94263 4.375 8.50055 4.375 10.125C4.375 12.2168 5.52573 14.1977 6.97323 15.6969C7.68894 16.4382 8.44993 17.0321 9.11917 17.4349C9.82834 17.8617 10.3119 18 10.5 18C10.6876 18 11.1709 17.8616 11.8803 17.434C12.5496 17.0305 13.3107 16.4358 14.0266 15.6939C15.4745 14.1932 16.625 12.2122 16.625 10.125C16.625 8.50055 15.9797 6.94263 14.831 5.79397C13.6824 4.64531 12.1245 4 10.5 4ZM4.93153 4.55653C6.40838 3.07969 8.41142 2.25 10.5 2.25C12.5886 2.25 14.5916 3.07969 16.0685 4.55653C17.5453 6.03338 18.375 8.03642 18.375 10.125C18.375 12.8415 16.9005 15.2356 15.2859 16.909C14.4705 17.7541 13.591 18.4461 12.7837 18.9327C12.0166 19.3952 11.1874 19.75 10.5 19.75C9.81307 19.75 8.98416 19.3961 8.21676 18.9343C7.40944 18.4484 6.52981 17.7571 5.71427 16.9125C4.09927 15.2398 2.625 12.8457 2.625 10.125C2.625 8.03642 3.45469 6.03338 4.93153 4.55653Z" fill="#1E7791"/>
</svg>
