<svg width="21" height="22" viewBox="0 0 21 22" fill="none" xmlns="http://www.w3.org/2000/svg">
<path d="M1.75 15.375L1.75 6.625C1.75 5.46468 2.21094 4.35188 3.03141 3.53141C3.85188 2.71094 4.96468 2.25 6.125 2.25L8.75 2.25C9.91032 2.25 11.0231 2.71094 11.8436 3.53141C12.6641 4.35188 13.125 5.46468 13.125 6.625L13.125 7.5C13.125 7.73206 13.0328 7.95462 12.8687 8.11872C12.7046 8.28281 12.4821 8.375 12.25 8.375C12.0179 8.375 11.7954 8.28281 11.6313 8.11872C11.4672 7.95462 11.375 7.73206 11.375 7.5L11.375 6.625C11.375 5.92881 11.0984 5.26113 10.6062 4.76884C10.1139 4.27656 9.44619 4 8.75 4L6.125 4C5.42881 4 4.76113 4.27656 4.26884 4.76884C3.77656 5.26113 3.5 5.92881 3.5 6.625L3.5 15.375C3.5 16.0712 3.77656 16.7389 4.26884 17.2312C4.76113 17.7234 5.42881 18 6.125 18L8.75 18C9.44619 18 10.1139 17.7234 10.6062 17.2312C11.0984 16.7389 11.375 16.0712 11.375 15.375L11.375 14.5C11.375 14.2679 11.4672 14.0454 11.6313 13.8813C11.7954 13.7172 12.0179 13.625 12.25 13.625C12.4821 13.625 12.7046 13.7172 12.8687 13.8813C13.0328 14.0454 13.125 14.2679 13.125 14.5L13.125 15.375C13.125 16.5353 12.6641 17.6481 11.8436 18.4686C11.0231 19.2891 9.91032 19.75 8.75 19.75L6.125 19.75C4.96468 19.75 3.85188 19.2891 3.03141 18.4686C2.21094 17.6481 1.75 16.5353 1.75 15.375Z" fill="#1E7791"/>
<path d="M15.1288 14.2463C15.0477 14.1646 14.9835 14.0676 14.94 13.961C14.8964 13.8544 14.8743 13.7402 14.875 13.6251C14.8743 13.5099 14.8964 13.3958 14.94 13.2892C14.9835 13.1826 15.0477 13.0856 15.1288 13.0038L16.2575 11.8751L7.00001 11.8751C6.76795 11.8751 6.54539 11.7829 6.3813 11.6188C6.2172 11.4547 6.12501 11.2321 6.12501 11.0001C6.12501 10.768 6.2172 10.5455 6.3813 10.3814C6.54539 10.2173 6.76795 10.1251 7.00001 10.1251L16.2575 10.1251L15.1288 8.99633C15.0468 8.91499 14.9817 8.81821 14.9372 8.71159C14.8928 8.60496 14.8699 8.49059 14.8699 8.37508C14.8699 8.25957 14.8928 8.14521 14.9372 8.03858C14.9817 7.93195 15.0468 7.83518 15.1288 7.75383C15.2927 7.59086 15.5145 7.49939 15.7456 7.49939C15.9768 7.49939 16.1986 7.59086 16.3625 7.75383L18.9875 10.3788C19.0695 10.4602 19.1346 10.557 19.179 10.6636C19.2235 10.7702 19.2463 10.8846 19.2463 11.0001C19.2463 11.1156 19.2235 11.23 19.179 11.3366C19.1346 11.4432 19.0695 11.54 18.9875 11.6213L16.3625 14.2463C16.1986 14.4093 15.9768 14.5008 15.7456 14.5008C15.5145 14.5008 15.2927 14.4093 15.1288 14.2463Z" fill="#1E7791"/>
</svg>
