<svg width="24" height="24" viewBox="0 0 24 24" fill="none" xmlns="http://www.w3.org/2000/svg">
<path fill-rule="evenodd" clip-rule="evenodd" d="M9.19267 5.18195C8.39133 4.93163 7.53154 4.93978 6.73509 5.20527C5.93864 5.47075 5.24591 5.9801 4.75503 6.66116C4.26415 7.34222 4 8.16047 4 9C4 11.8276 5.29864 14.0899 6.95639 15.786C8.61407 17.482 10.5742 18.5492 11.7476 18.9681C11.9127 19.0141 12.0873 19.0141 12.2524 18.9681C13.4258 18.5492 15.3859 17.482 17.0436 15.786C18.7014 14.0899 20 11.8276 20 9C20 8.16047 19.7359 7.34222 19.245 6.66116C18.7541 5.9801 18.0614 5.47075 17.2649 5.20527C16.4685 4.93978 15.6087 4.93163 14.8073 5.18195C14.006 5.43227 13.3037 5.92838 12.8 6.6C12.6111 6.85181 12.3148 7 12 7C11.6852 7 11.3889 6.85181 11.2 6.6C10.6963 5.92838 9.99401 5.43227 9.19267 5.18195ZM6.10263 3.3079C7.29731 2.90968 8.58699 2.89744 9.78901 3.27292C10.6115 3.52986 11.3645 3.95943 12 4.52786C12.6355 3.95943 13.3885 3.52986 14.211 3.27292C15.413 2.89744 16.7027 2.90968 17.8974 3.3079C19.092 3.70612 20.1311 4.47014 20.8675 5.49174C21.6038 6.51333 22 7.74071 22 9C22 12.4924 20.3836 15.2301 18.4739 17.184C16.5758 19.1259 14.3321 20.3557 12.8924 20.8631C12.878 20.8682 12.8634 20.873 12.8487 20.8774C12.2952 21.0443 11.7048 21.0443 11.1513 20.8774C11.1366 20.873 11.122 20.8682 11.1076 20.8631C9.66792 20.3557 7.42416 19.1259 5.52611 17.184C3.61636 15.2301 2 12.4924 2 9C2 7.74071 2.39622 6.51333 3.13255 5.49174C3.86887 4.47014 4.90796 3.70612 6.10263 3.3079Z" fill="#303037"/>
</svg>
