<svg width="18" height="18" viewBox="0 0 18 18" fill="none" xmlns="http://www.w3.org/2000/svg">
<path d="M9.89251 15.5625C9.61071 15.6843 9.30698 15.7471 9.00001 15.7471C8.69303 15.7471 8.3893 15.6843 8.10751 15.5625C5.78251 14.5575 1.50001 11.3625 1.50001 6.435C1.49902 5.8864 1.6061 5.34298 1.81513 4.83577C2.02416 4.32855 2.33104 3.86748 2.71826 3.47886C3.10548 3.09025 3.56546 2.78171 4.07192 2.57086C4.57838 2.36001 5.12141 2.25098 5.67001 2.25C6.3178 2.24998 6.95656 2.40197 7.53491 2.69376C8.11327 2.98554 8.61509 3.40897 9.00001 3.93C9.52361 3.22744 10.2556 2.70803 11.0916 2.44576C11.9276 2.18349 12.8251 2.19173 13.6562 2.46931C14.4873 2.7469 15.2096 3.27966 15.7202 3.99171C16.2308 4.70377 16.5037 5.5588 16.5 6.435C16.5 11.3625 12.2175 14.5575 9.89251 15.5625Z" fill="#F5F5F5"/>
</svg>
