<svg width="16" height="17" viewBox="0 0 16 17" fill="none" xmlns="http://www.w3.org/2000/svg">
<path fill-rule="evenodd" clip-rule="evenodd" d="M6.61791 2.21045H9.38213C10.5978 2.21043 11.5776 2.21042 12.3482 2.31403C13.1483 2.4216 13.822 2.65172 14.357 3.18676C14.8921 3.7218 15.1222 4.39546 15.2298 5.19556C15.3334 5.9662 15.3334 6.94605 15.3334 8.16169V8.25921C15.3334 9.47485 15.3334 10.4547 15.2298 11.2253C15.1222 12.0254 14.8921 12.6991 14.357 13.2341C13.822 13.7692 13.1483 13.9993 12.3482 14.1069C11.5776 14.2105 10.5978 14.2105 9.38211 14.2105H6.61793C5.40229 14.2105 4.42244 14.2105 3.6518 14.1069C2.8517 13.9993 2.17804 13.7692 1.643 13.2341C1.10796 12.6991 0.877834 12.0254 0.770264 11.2253C0.666654 10.4547 0.666669 9.47486 0.666687 8.25923V8.16167C0.666669 6.94604 0.666654 5.9662 0.770264 5.19556C0.877834 4.39546 1.10796 3.7218 1.643 3.18676C2.17804 2.65172 2.8517 2.4216 3.6518 2.31403C4.42244 2.21042 5.40228 2.21043 6.61791 2.21045ZM3.82946 3.63547C3.17722 3.72316 2.83182 3.88356 2.58581 4.12957C2.3398 4.37558 2.1794 4.72098 2.09171 5.37322C2.00144 6.04465 2.00002 6.93453 2.00002 8.21045C2.00002 9.48638 2.00144 10.3763 2.09171 11.0477C2.1794 11.6999 2.3398 12.0453 2.58581 12.2913C2.83182 12.5373 3.17722 12.6977 3.82946 12.7854C4.50088 12.8757 5.39076 12.8771 6.66669 12.8771H9.33336C10.6093 12.8771 11.4992 12.8757 12.1706 12.7854C12.8228 12.6977 13.1682 12.5373 13.4142 12.2913C13.6602 12.0453 13.8206 11.6999 13.9083 11.0477C13.9986 10.3763 14 9.48638 14 8.21045C14 6.93453 13.9986 6.04465 13.9083 5.37322C13.8206 4.72098 13.6602 4.37558 13.4142 4.12957C13.1682 3.88356 12.8228 3.72316 12.1706 3.63547C11.4992 3.5452 10.6093 3.54378 9.33336 3.54378H6.66669C5.39076 3.54378 4.50088 3.5452 3.82946 3.63547ZM8.00002 4.87712C8.36821 4.87712 8.66669 5.17559 8.66669 5.54378V5.61591C8.80966 5.65378 8.9489 5.70628 9.08214 5.7729C9.39707 5.93037 9.66903 6.16199 9.87461 6.44785C9.95617 6.56125 10 6.69741 10 6.83709V6.87709C10 7.24528 9.70157 7.54376 9.33338 7.54376C9.05832 7.54376 8.82217 7.37718 8.7203 7.13941C8.6531 7.0684 8.57382 7.00945 8.48586 6.96547C8.36413 6.90461 8.22945 6.87424 8.09339 6.87696L8.08004 6.87709H8.00572C8.00382 6.87711 8.00192 6.87712 8.00002 6.87712C7.99812 6.87712 7.99622 6.87711 7.99432 6.87709H7.60004C7.52932 6.87709 7.46149 6.90519 7.41148 6.9552C7.36147 7.00521 7.33338 7.07304 7.33338 7.14376V7.14843C7.33297 7.20696 7.3523 7.26392 7.38829 7.31008C7.42427 7.35625 7.47478 7.38892 7.53164 7.40282L7.53507 7.40366L8.79219 7.71795C9.13662 7.8062 9.44204 8.00622 9.66061 8.28665C9.87918 8.56709 9.99856 8.9121 10 9.26765L10.0001 9.27041C10.0001 9.69456 9.83235 10.1015 9.5335 10.4025C9.29692 10.6408 8.99334 10.7973 8.66669 10.8537V10.8771C8.66669 11.2453 8.36821 11.5438 8.00002 11.5438C7.63183 11.5438 7.33336 11.2453 7.33336 10.8771V10.7957C7.18283 10.7534 7.03673 10.6949 6.89769 10.621C6.58348 10.4538 6.31481 10.2125 6.11501 9.91803C5.90831 9.61333 5.98775 9.19876 6.29245 8.99206C6.59714 8.78536 7.01171 8.8648 7.21841 9.16949C7.29638 9.28443 7.40122 9.3786 7.52384 9.44382C7.6462 9.5089 7.78255 9.5432 7.92113 9.54376H8.39696C8.46852 9.54282 8.53688 9.51385 8.58734 9.46304C8.63786 9.41216 8.66635 9.34349 8.66671 9.27183C8.66616 9.21183 8.64587 9.15366 8.60897 9.10631C8.57206 9.05896 8.5206 9.02509 8.46254 9.0099L7.21512 8.69804L7.2132 8.69757C6.86554 8.61215 6.55675 8.41214 6.33665 8.12974C6.11657 7.84738 5.99801 7.49914 6.00005 7.14119C6.00072 6.71777 6.16922 6.31184 6.46867 6.01239C6.70512 5.77594 7.00795 5.62114 7.33336 5.56614V5.54378C7.33336 5.17559 7.63183 4.87712 8.00002 4.87712ZM3.33335 8.21045C3.33335 7.84226 3.63183 7.54378 4.00002 7.54378H4.00669C4.37488 7.54378 4.67335 7.84226 4.67335 8.21045C4.67335 8.57864 4.37488 8.87712 4.00669 8.87712H4.00002C3.63183 8.87712 3.33335 8.57864 3.33335 8.21045ZM11.3334 8.21045C11.3334 7.84226 11.6318 7.54378 12 7.54378H12.0067C12.3749 7.54378 12.6734 7.84226 12.6734 8.21045C12.6734 8.57864 12.3749 8.87712 12.0067 8.87712H12C11.6318 8.87712 11.3334 8.57864 11.3334 8.21045Z" fill="white"/>
</svg>
