<svg width="25" height="24" viewBox="0 0 25 24" fill="none" xmlns="http://www.w3.org/2000/svg">
<path d="M16.5 2H8.5C6.9087 2 5.38258 2.63214 4.25736 3.75736C3.13214 4.88258 2.5 6.4087 2.5 8V16C2.5 17.5913 3.13214 19.1174 4.25736 20.2426C5.38258 21.3679 6.9087 22 8.5 22H16.5C18.0913 22 19.6174 21.3679 20.7426 20.2426C21.8679 19.1174 22.5 17.5913 22.5 16V8C22.5 6.4087 21.8679 4.88258 20.7426 3.75736C19.6174 2.63214 18.0913 2 16.5 2ZM17.71 11.21L15.77 13.15C15.2935 13.606 14.6595 13.8605 14 13.8605C13.3405 13.8605 12.7065 13.606 12.23 13.15L11.36 12.29C11.2646 12.1943 11.1351 12.1403 11 12.14C10.9346 12.1404 10.8699 12.1538 10.8098 12.1796C10.7497 12.2054 10.6954 12.2429 10.65 12.29L8.71 14.23C8.61656 14.3227 8.50574 14.396 8.3839 14.4458C8.26207 14.4955 8.13161 14.5208 8 14.52C7.73766 14.5189 7.48626 14.4147 7.3 14.23C7.11375 14.0426 7.00921 13.7892 7.00921 13.525C7.00921 13.2608 7.11375 13.0074 7.3 12.82L9.23 10.88C9.70528 10.4217 10.3398 10.1656 11 10.1656C11.6602 10.1656 12.2947 10.4217 12.77 10.88L13.65 11.75C13.6954 11.7971 13.7497 11.8346 13.8098 11.8604C13.8699 11.8862 13.9346 11.8996 14 11.9C14.1351 11.8997 14.2646 11.8457 14.36 11.75L16.3 9.82C16.4874 9.63375 16.7408 9.52921 17.005 9.52921C17.2692 9.52921 17.5226 9.63375 17.71 9.82C17.8902 10.0065 17.991 10.2557 17.991 10.515C17.991 10.7743 17.8902 11.0235 17.71 11.21Z" fill="#1E7791"/>
</svg>
