<svg width="25" height="24" viewBox="0 0 25 24" fill="none" xmlns="http://www.w3.org/2000/svg">
<path fill-rule="evenodd" clip-rule="evenodd" d="M8.5 4C6.29086 4 4.5 5.79086 4.5 8V16C4.5 18.2091 6.29086 20 8.5 20H16.5C18.7091 20 20.5 18.2091 20.5 16V8C20.5 5.79086 18.7091 4 16.5 4H8.5ZM2.5 8C2.5 4.68629 5.18629 2 8.5 2H16.5C19.8137 2 22.5 4.68629 22.5 8V16C22.5 19.3137 19.8137 22 16.5 22H8.5C5.18629 22 2.5 19.3137 2.5 16V8Z" fill="#5F5F5F"/>
<path fill-rule="evenodd" clip-rule="evenodd" d="M17.7071 9.79289C18.0976 10.1834 18.0976 10.8166 17.7071 11.2071L15.769 13.1452C15.5379 13.3785 15.2629 13.5638 14.9599 13.6904C14.6558 13.8174 14.3295 13.8829 14 13.8829C13.6705 13.8829 13.3442 13.8174 13.0401 13.6904C12.7371 13.5638 12.4621 13.3785 12.231 13.1452L11.3486 12.2628C11.303 12.2167 11.2487 12.18 11.1889 12.155C11.1291 12.13 11.0649 12.1171 11 12.1171C10.9351 12.1171 10.8709 12.13 10.8111 12.155C10.7513 12.18 10.697 12.2166 10.6514 12.2628L10.6471 12.2671L8.70711 14.2071C8.31658 14.5976 7.68342 14.5976 7.29289 14.2071C6.90237 13.8166 6.90237 13.1834 7.29289 12.7929L9.23101 10.8548C9.46211 10.6215 9.73708 10.4362 10.0401 10.3096C10.3442 10.1826 10.6705 10.1171 11 10.1171C11.3295 10.1171 11.6558 10.1826 11.9599 10.3096C12.2629 10.4362 12.5379 10.6215 12.769 10.8548L13.6514 11.7372C13.697 11.7833 13.7513 11.82 13.8111 11.845C13.8709 11.87 13.9351 11.8829 14 11.8829C14.0649 11.8829 14.1291 11.87 14.1889 11.845C14.2487 11.82 14.303 11.7834 14.3486 11.7372L14.3529 11.7329L16.2929 9.79289C16.6834 9.40237 17.3166 9.40237 17.7071 9.79289Z" fill="#5F5F5F"/>
</svg>
