<svg width="24" height="24" viewBox="0 0 24 24" fill="none" xmlns="http://www.w3.org/2000/svg">
<path fill-rule="evenodd" clip-rule="evenodd" d="M9.63664 18.6092C10.056 18.3212 10.6293 18.4277 10.9173 18.847C11.0228 19.0006 11.1671 19.1219 11.3345 19.1987C11.3466 19.2043 11.3586 19.2101 11.3705 19.2162C11.6606 19.365 11.9929 19.4062 12.3096 19.3331C12.6263 19.2601 12.9087 19.0769 13.1066 18.8142C13.4127 18.4079 13.9902 18.3267 14.3965 18.6327C14.8028 18.9388 14.884 19.5163 14.578 19.9226C14.1205 20.5299 13.4644 20.9572 12.7238 21.1281C11.9895 21.2975 11.2198 21.2039 10.5475 20.8643C10.0846 20.6478 9.68825 20.3112 9.39884 19.8899C9.11086 19.4705 9.21732 18.8972 9.63664 18.6092Z" fill="#0F0F0F"/>
<path fill-rule="evenodd" clip-rule="evenodd" d="M12 4.63158C10.7787 4.63158 9.60729 5.11677 8.74363 5.98043C7.87998 6.84408 7.39478 8.01545 7.39478 9.23684V9.93684C7.39392 10.9136 7.0052 11.8509 6.31408 12.5412L5.98291 12.8723C5.70827 13.1465 5.55322 13.5191 5.55268 13.9071V14.2197C5.55268 14.6081 5.70697 14.9806 5.98161 15.2553C6.25625 15.5299 6.62875 15.6842 7.01715 15.6842H16.9829C17.3713 15.6842 17.7438 15.5299 18.0185 15.2553C18.2898 14.984 18.4437 14.6172 18.4473 14.2338C18.4348 13.9221 18.3223 13.6224 18.1263 13.3793L18.1137 13.3632L17.4097 12.4489C16.8909 11.7988 16.6073 10.9921 16.6053 10.1601L16.6053 10.1579V9.23684C16.6053 8.01545 16.1201 6.84408 15.2565 5.98043C14.3928 5.11677 13.2214 4.63158 12 4.63158ZM7.44107 4.67786C8.65018 3.46875 10.2901 2.78947 12 2.78947C13.71 2.78947 15.3499 3.46875 16.559 4.67786C17.7681 5.88698 18.4474 7.52689 18.4474 9.23684V10.1566C18.4487 10.5739 18.5915 10.9784 18.8527 11.3039L18.864 11.3183L19.5675 12.232C20.0139 12.7897 20.2672 13.4773 20.2891 14.1915C20.2894 14.2009 20.2895 14.2103 20.2895 14.2197C20.2895 15.0967 19.9411 15.9377 19.321 16.5578C18.7009 17.1779 17.8599 17.5263 16.9829 17.5263H7.01715C6.14019 17.5263 5.29915 17.1779 4.67905 16.5578C4.05894 15.9377 3.71057 15.0967 3.71057 14.2197L3.71057 13.9056C3.71152 13.029 4.0605 12.1887 4.6808 11.5693C4.68078 11.5693 4.68081 11.5693 4.6808 11.5693L5.01192 11.2382C5.3574 10.8931 5.55216 10.4246 5.55268 9.93637V9.23684C5.55268 7.52689 6.23195 5.88698 7.44107 4.67786Z" fill="#0F0F0F"/>
</svg>
