<svg width="21" height="22" viewBox="0 0 21 22" fill="none" xmlns="http://www.w3.org/2000/svg">
<path fill-rule="evenodd" clip-rule="evenodd" d="M8.25465 17.2787C8.653 17.0051 9.19771 17.1062 9.4713 17.5046C9.57152 17.6505 9.70864 17.7658 9.8676 17.8387C9.87913 17.844 9.89055 17.8496 9.90184 17.8554C10.1774 17.9967 10.4931 18.0359 10.7939 17.9665C11.0949 17.897 11.3631 17.723 11.5511 17.4735C11.8419 17.0875 12.3905 17.0103 12.7765 17.3011C13.1625 17.5918 13.2397 18.1404 12.9489 18.5264C12.5143 19.1034 11.891 19.5093 11.1874 19.6716C10.4898 19.8326 9.75863 19.7437 9.11994 19.421C8.68026 19.2154 8.30368 18.8956 8.02875 18.4953C7.75516 18.097 7.85631 17.5523 8.25465 17.2787Z" fill="#1E7791"/>
<path fill-rule="evenodd" clip-rule="evenodd" d="M10.5 4C9.33968 4 8.22688 4.46094 7.40641 5.28141C6.58594 6.10188 6.125 7.21468 6.125 8.375V9.04C6.12418 9.96795 5.7549 10.8584 5.09833 11.5141L4.78372 11.8287C4.52282 12.0892 4.37551 12.4431 4.375 12.8118V13.1087C4.375 13.4777 4.52158 13.8316 4.78249 14.0925C5.0434 14.3534 5.39727 14.5 5.76625 14.5H15.2337C15.6027 14.5 15.9566 14.3534 16.2175 14.0925C16.4753 13.8348 16.6214 13.4863 16.6249 13.1222C16.613 12.826 16.5061 12.5413 16.32 12.3103L16.308 12.2951L15.6392 11.4265C15.1463 10.8088 14.8769 10.0425 14.875 9.25214L14.875 9.25V8.375C14.875 7.21468 14.4141 6.10188 13.5936 5.28141C12.7731 4.46094 11.6603 4 10.5 4ZM6.16897 4.04397C7.31763 2.89531 8.87555 2.25 10.5 2.25C12.1245 2.25 13.6824 2.89531 14.831 4.04397C15.9797 5.19263 16.625 6.75055 16.625 8.375V9.24878C16.6262 9.64519 16.7619 10.0295 17.01 10.3387L17.0208 10.3524L17.6891 11.2204C18.1132 11.7502 18.3538 12.4035 18.3746 13.082C18.3749 13.0909 18.375 13.0998 18.375 13.1087C18.375 13.9419 18.044 14.7409 17.4549 15.3299C16.8659 15.919 16.0669 16.25 15.2337 16.25H5.76625C4.93314 16.25 4.13415 15.919 3.54505 15.3299C2.95595 14.7409 2.625 13.9419 2.625 13.1087L2.625 12.8103C2.62591 11.9776 2.95744 11.1792 3.54671 10.5908C3.5467 10.5909 3.54673 10.5908 3.54671 10.5908L3.86128 10.2763C4.18949 9.94848 4.37451 9.50341 4.375 9.03955V8.375C4.375 6.75055 5.02031 5.19263 6.16897 4.04397Z" fill="#1E7791"/>
</svg>
