<svg width="27" height="25" viewBox="0 0 27 25" fill="none" xmlns="http://www.w3.org/2000/svg">
<path d="M13.7937 17.3994C10.9306 17.3994 8.47999 17.6195 7.50652 17.9292C7.21366 18.0215 7.05273 18.1226 7.05273 18.2282C7.05273 18.2894 7.10644 18.3489 7.20955 18.4057C7.66334 18.6604 9.07016 18.8715 10.9514 18.9789C11.8136 19.0286 12.779 19.0561 13.7938 19.0561C17.0199 19.0561 19.7138 18.7775 20.3739 18.4057C20.4771 18.3489 20.5307 18.2894 20.5307 18.2282C20.5307 17.7703 17.5149 17.3994 13.7937 17.3994Z" fill="#C5C4C3"/>
<path d="M16.7692 16.7888C17.0875 16.944 17.2711 17.1261 17.2711 17.3209C17.2711 17.8925 15.6923 18.3565 13.7445 18.3565C11.7951 18.3565 10.2163 17.8925 10.2163 17.3209C10.2163 17.1166 10.4174 16.9266 10.7658 16.7666C10.6913 16.8664 10.6518 16.9709 10.6518 17.0786C10.6518 17.7199 16.8673 17.7199 16.8673 17.0786C16.8674 16.9789 16.8341 16.8823 16.7692 16.7888Z" fill="#C5C4C3"/>
<path d="M14.9385 14.3125C15.6875 14.6387 14.967 15.3212 14.967 15.3212C14.9575 15.326 14.948 15.3292 14.9385 15.3339V14.3125Z" fill="#C5C4C3"/>
<path d="M14.9389 14.3129V15.3343C13.6404 15.8823 12.7536 15.4389 12.5825 15.3407V14.2812C13.7686 15.1095 14.8882 14.2923 14.8882 14.2923C14.9056 14.2987 14.9231 14.305 14.9389 14.3129Z" fill="#C5C4C3"/>
<path d="M12.552 15.3213C11.9582 14.6229 12.579 14.2793 12.579 14.2793C12.5806 14.2793 12.5806 14.2809 12.5822 14.2809V15.3403C12.5615 15.3276 12.552 15.3213 12.552 15.3213Z" fill="#C5C4C3"/>
<path d="M14.9385 12.9492C15.7081 13.2723 14.9796 13.9627 14.9796 13.9627C14.9654 13.969 14.9511 13.9754 14.9385 13.9801V12.9492Z" fill="#C5C4C3"/>
<path d="M14.9384 12.949V13.9798C13.6113 14.5356 12.7166 14.0527 12.582 13.9735V12.9267C12.5884 12.922 12.5916 12.9204 12.5916 12.9204C13.7792 13.7518 14.9004 12.9331 14.9004 12.9331C14.913 12.9379 14.9257 12.9426 14.9384 12.949Z" fill="#C5C4C3"/>
<path d="M12.5821 12.9272V13.974C12.571 13.9661 12.5647 13.9629 12.5647 13.9629C12.0151 13.3152 12.506 12.9731 12.5821 12.9272Z" fill="#C5C4C3"/>
<path d="M13.7446 16.286C13.4025 16.286 13.0716 16.3003 12.758 16.3272C12.6946 16.2274 12.6471 16.1166 12.6187 15.9978C12.9718 15.9455 13.3566 15.917 13.7588 15.917C14.1626 15.917 14.549 15.9455 14.9022 15.9978C14.8737 16.1165 14.8246 16.2274 14.7612 16.3287C14.4398 16.3019 14.0977 16.286 13.7446 16.286Z" fill="#C5C4C3"/>
<path d="M13.7591 15.9167C13.3569 15.9167 12.9721 15.9452 12.6189 15.9975C12.5952 15.9057 12.5825 15.8091 12.5825 15.7093V15.3403C12.7536 15.4385 13.6404 15.8819 14.9389 15.334V15.7093C14.9389 15.8091 14.9262 15.9057 14.9024 15.9975C14.5493 15.9452 14.1629 15.9167 13.7591 15.9167Z" fill="#C5C4C3"/>
<path d="M12.6184 15.9976C12.6469 16.1163 12.6944 16.2272 12.7578 16.327C11.9248 16.3983 11.2201 16.5566 10.7656 16.7672C11.0269 16.414 11.7205 16.1306 12.6184 15.9976Z" fill="#C5C4C3"/>
<path d="M16.8674 17.0794C16.8674 17.7207 10.6519 17.7207 10.6519 17.0794C10.6519 16.9717 10.6914 16.8672 10.7659 16.7674C11.2203 16.5568 11.925 16.3984 12.758 16.3271C12.9654 16.6644 13.336 16.8877 13.7604 16.8877C14.1832 16.8877 14.5537 16.6645 14.7612 16.3287C15.6084 16.4047 16.3226 16.571 16.7691 16.788V16.7896C16.8341 16.883 16.8674 16.9796 16.8674 17.0794Z" fill="#C5C4C3"/>
<path d="M16.7692 16.7878C16.3226 16.5708 15.6084 16.4045 14.7612 16.3285C14.8246 16.2272 14.8737 16.1163 14.9022 15.9976C15.8174 16.1337 16.5206 16.4267 16.7692 16.7878Z" fill="#C5C4C3"/>
<path d="M14.761 16.3289C14.5536 16.6646 14.183 16.8879 13.7602 16.8879C13.3358 16.8879 12.9653 16.6646 12.7578 16.3273C13.0713 16.3004 13.4023 16.2861 13.7444 16.2861C14.0975 16.2861 14.4396 16.302 14.761 16.3289Z" fill="#C5C4C3"/>
<path d="M12.582 14.2808V13.9736C12.7166 14.0528 13.6113 14.5358 14.9384 13.98V14.3125C14.9225 14.3046 14.9052 14.2982 14.8877 14.2919C14.8877 14.2919 13.7681 15.109 12.582 14.2808Z" fill="#C5C4C3"/>
<path d="M12.5825 12.9271V12.3855C12.877 12.4299 13.1779 12.452 13.4836 12.452C13.984 12.452 14.4717 12.3918 14.9389 12.2778V12.9493C14.9263 12.943 14.9136 12.9382 14.9009 12.9334C14.9009 12.9334 13.7797 13.7522 12.5921 12.9208C12.5921 12.9208 12.5889 12.9224 12.5825 12.9271Z" fill="#C5C4C3"/>
<path d="M19.6577 3.32422C21.2191 3.32422 22.4844 4.6386 22.4844 6.26018C22.4844 7.88176 21.2191 9.19614 19.6577 9.19614C19.417 9.19614 19.1842 9.16446 18.9609 9.10589C19.1525 8.73847 19.3077 8.34891 19.4217 7.94193C19.4962 7.9562 19.5722 7.96254 19.6482 7.96254C20.5176 7.96254 21.2223 7.1153 21.2223 6.07014C21.2223 5.02497 20.5192 4.17934 19.6498 4.17774V3.92752C19.6498 3.72481 19.6403 3.52374 19.6213 3.32576C19.6339 3.32422 19.645 3.32422 19.6577 3.32422Z" fill="#C5C4C3"/>
<path d="M7.52271 7.8656C7.63198 8.27732 7.784 8.67322 7.97245 9.04537C7.7856 9.08654 7.59396 9.10714 7.39603 9.10714C5.83463 9.10714 4.56934 7.79276 4.56934 6.17118C4.56934 4.56387 5.81088 3.25902 7.35327 3.23682C7.32793 3.46328 7.31525 3.69449 7.31525 3.92724V4.09193C6.47915 4.13629 5.81242 4.96446 5.81242 5.98114C5.81242 7.0263 6.51711 7.87353 7.3865 7.87353C7.4324 7.87353 7.47835 7.87034 7.52271 7.8656Z" fill="#C5C4C3"/>
<path d="M19.6214 3.32561C19.6182 3.29552 19.6151 3.26544 19.6103 3.23535H7.39621C7.38199 3.23535 7.36772 3.23535 7.35345 3.23695C7.3281 3.46341 7.31543 3.69462 7.31543 3.92737V4.09207V6.28372C7.31543 6.83005 7.38668 7.36056 7.52289 7.86573C7.63215 8.27745 7.78418 8.67335 7.97262 9.04551C8.85942 10.8049 10.5665 12.0875 12.5824 12.3853C12.877 12.4296 13.1778 12.4518 13.4835 12.4518C13.9839 12.4518 14.4717 12.3916 14.9388 12.2776C16.6887 11.8501 18.1503 10.6718 18.9611 9.10568C19.1527 8.73832 19.3079 8.34875 19.4219 7.94177C19.5708 7.41445 19.65 6.85705 19.65 6.28378V4.17758V3.92737C19.6499 3.72465 19.6404 3.52353 19.6214 3.32561Z" fill="#C5C4C3"/>
<path d="M18.877 0.94873H8.08812H5.51318V3.23543H7.35489H7.39605H19.6102H21.3822V0.94873H18.877Z" fill="#C5C4C3"/>
<path d="M15.7081 3.89888L15.4763 2.80127L15.2446 3.89888C15.136 4.41337 14.9387 4.85869 14.6792 5.17557C14.928 5.29788 15.1245 5.6269 15.2022 6.05145L15.4764 7.54986L15.7506 6.05145C15.8282 5.6269 16.0247 5.29788 16.2736 5.17557C16.0139 4.85874 15.8167 4.41337 15.7081 3.89888Z" fill="#F4F2ED"/>
<g clip-path="url(#clip0_1026_12417)">
<path d="M1.4801 18.6205C1.32949 18.4511 1.44977 18.1833 1.67647 18.1833H25.6276C25.8684 18.1833 25.9823 18.4802 25.8033 18.6413L23.3641 20.8366C23.1655 21.0153 23.1746 21.3296 23.3833 21.4965L25.7066 23.3551C25.9005 23.5102 25.7908 23.823 25.5424 23.823H1.74164C1.50757 23.823 1.39035 23.54 1.55586 23.3745L3.46422 21.4661C3.62632 21.304 3.63398 21.0437 3.48167 20.8723L1.4801 18.6205Z" fill="#C5C4C3" stroke="white" stroke-width="0.170237"/>
<path d="M8.90064 21.3956H8.4044V21.1953H8.90064C8.99674 21.1953 9.07456 21.18 9.13409 21.1494C9.19362 21.1188 9.237 21.0763 9.26421 21.0218C9.29228 20.9674 9.30631 20.9053 9.30631 20.8356C9.30631 20.7718 9.29228 20.7118 9.26421 20.6557C9.237 20.5996 9.19362 20.5545 9.13409 20.5205C9.07456 20.4856 8.99674 20.4682 8.90064 20.4682H8.4618V22.124H8.21559V20.2666H8.90064C9.04097 20.2666 9.15961 20.2909 9.25656 20.3393C9.35351 20.3878 9.42708 20.455 9.47725 20.5409C9.52743 20.6259 9.55252 20.7233 9.55252 20.833C9.55252 20.9521 9.52743 21.0537 9.47725 21.1379C9.42708 21.2221 9.35351 21.2863 9.25656 21.3305C9.15961 21.3739 9.04097 21.3956 8.90064 21.3956ZM10.0911 20.1646V22.124H9.85383V20.1646H10.0911ZM11.2905 21.888V21.1775C11.2905 21.123 11.2795 21.0758 11.2573 21.0359C11.2361 20.995 11.2038 20.9636 11.1604 20.9415C11.117 20.9193 11.0634 20.9083 10.9997 20.9083C10.9401 20.9083 10.8878 20.9185 10.8427 20.9389C10.7985 20.9593 10.7637 20.9861 10.7381 21.0193C10.7135 21.0524 10.7011 21.0882 10.7011 21.1264H10.4651C10.4651 21.0771 10.4779 21.0282 10.5034 20.9797C10.5289 20.9312 10.5655 20.8875 10.6131 20.8483C10.6616 20.8084 10.7194 20.7769 10.7866 20.7539C10.8547 20.7301 10.9303 20.7182 11.0137 20.7182C11.114 20.7182 11.2025 20.7352 11.279 20.7692C11.3564 20.8033 11.4168 20.8547 11.4602 20.9236C11.5044 20.9916 11.5265 21.0771 11.5265 21.18V21.823C11.5265 21.8689 11.5303 21.9178 11.538 21.9697C11.5465 22.0215 11.5588 22.0662 11.575 22.1036V22.124H11.3288C11.3169 22.0968 11.3075 22.0607 11.3007 22.0156C11.2939 21.9697 11.2905 21.9271 11.2905 21.888ZM11.3313 21.2872L11.3339 21.453H11.0953C11.0281 21.453 10.9682 21.4585 10.9155 21.4696C10.8627 21.4798 10.8185 21.4955 10.7828 21.5168C10.7471 21.5381 10.7199 21.5648 10.7011 21.5972C10.6824 21.6286 10.6731 21.6656 10.6731 21.7081C10.6731 21.7515 10.6829 21.7911 10.7024 21.8268C10.722 21.8625 10.7513 21.891 10.7904 21.9123C10.8304 21.9327 10.8793 21.9429 10.9371 21.9429C11.0094 21.9429 11.0732 21.9276 11.1285 21.8969C11.1838 21.8663 11.2276 21.8289 11.2599 21.7847C11.2931 21.7405 11.3109 21.6975 11.3135 21.6558L11.4143 21.7694C11.4083 21.8051 11.3921 21.8446 11.3658 21.888C11.3394 21.9314 11.3041 21.9731 11.2599 22.013C11.2165 22.0522 11.1646 22.0849 11.1043 22.1113C11.0447 22.1368 10.9775 22.1495 10.9027 22.1495C10.8092 22.1495 10.7271 22.1313 10.6565 22.0947C10.5868 22.0581 10.5323 22.0092 10.4932 21.948C10.4549 21.8859 10.4358 21.8166 10.4358 21.74C10.4358 21.666 10.4503 21.601 10.4792 21.5449C10.5081 21.4879 10.5498 21.4407 10.6042 21.4033C10.6586 21.365 10.7241 21.3361 10.8006 21.3165C10.8772 21.2969 10.9627 21.2872 11.0571 21.2872H11.3313ZM12.4823 20.7437V20.9249H11.736V20.7437H12.4823ZM11.9886 20.4082H12.2246V21.7821C12.2246 21.8289 12.2318 21.8642 12.2463 21.888C12.2607 21.9118 12.2794 21.9276 12.3024 21.9352C12.3253 21.9429 12.35 21.9467 12.3764 21.9467C12.3959 21.9467 12.4163 21.945 12.4376 21.9416C12.4597 21.9373 12.4763 21.9339 12.4874 21.9314L12.4886 22.124C12.4699 22.13 12.4453 22.1355 12.4146 22.1406C12.3849 22.1466 12.3487 22.1495 12.3062 22.1495C12.2484 22.1495 12.1952 22.1381 12.1468 22.1151C12.0983 22.0921 12.0596 22.0539 12.0307 22.0003C12.0026 21.9459 11.9886 21.8727 11.9886 21.7809V20.4082ZM13.0221 20.7437V22.124H12.7848V20.7437H13.0221ZM12.767 20.3776C12.767 20.3393 12.7785 20.307 12.8014 20.2806C12.8252 20.2543 12.8601 20.2411 12.906 20.2411C12.9511 20.2411 12.9856 20.2543 13.0094 20.2806C13.034 20.307 13.0464 20.3393 13.0464 20.3776C13.0464 20.4142 13.034 20.4456 13.0094 20.472C12.9856 20.4975 12.9511 20.5103 12.906 20.5103C12.8601 20.5103 12.8252 20.4975 12.8014 20.472C12.7785 20.4456 12.767 20.4142 12.767 20.3776ZM13.6436 21.0384V22.124H13.4076V20.7437H13.6309L13.6436 21.0384ZM13.5875 21.3816L13.4893 21.3777C13.4901 21.2833 13.5042 21.1962 13.5314 21.1162C13.5586 21.0354 13.5969 20.9653 13.6462 20.9057C13.6955 20.8462 13.7542 20.8003 13.8222 20.768C13.8911 20.7348 13.9672 20.7182 14.0506 20.7182C14.1186 20.7182 14.1799 20.7276 14.2343 20.7463C14.2887 20.7641 14.3351 20.793 14.3733 20.833C14.4125 20.873 14.4422 20.9249 14.4626 20.9887C14.483 21.0516 14.4933 21.1286 14.4933 21.2196V22.124H14.256V21.217C14.256 21.1447 14.2453 21.0869 14.2241 21.0435C14.2028 20.9993 14.1718 20.9674 14.131 20.9478C14.0901 20.9274 14.04 20.9172 13.9804 20.9172C13.9217 20.9172 13.8682 20.9295 13.8197 20.9542C13.7721 20.9789 13.7308 21.0129 13.6959 21.0563C13.6619 21.0996 13.6351 21.1494 13.6156 21.2055C13.5969 21.2608 13.5875 21.3195 13.5875 21.3816ZM15.7029 21.8051V20.7437H15.9401V22.124H15.7143L15.7029 21.8051ZM15.7475 21.5142L15.8457 21.5117C15.8457 21.6035 15.836 21.6886 15.8164 21.7668C15.7977 21.8442 15.7671 21.9114 15.7245 21.9684C15.682 22.0254 15.6263 22.07 15.5574 22.1023C15.4885 22.1338 15.4048 22.1495 15.3061 22.1495C15.2389 22.1495 15.1773 22.1398 15.1211 22.1202C15.0659 22.1006 15.0182 22.0704 14.9783 22.0296C14.9383 21.9888 14.9072 21.9356 14.8851 21.8702C14.8639 21.8047 14.8532 21.726 14.8532 21.6342V20.7437H15.0892V21.6367C15.0892 21.6988 15.0961 21.7502 15.1097 21.7911C15.1241 21.831 15.1433 21.8629 15.1671 21.8867C15.1917 21.9097 15.2189 21.9259 15.2487 21.9352C15.2793 21.9446 15.3108 21.9493 15.3431 21.9493C15.4435 21.9493 15.523 21.9301 15.5817 21.8918C15.6403 21.8527 15.6824 21.8004 15.708 21.7349C15.7343 21.6686 15.7475 21.595 15.7475 21.5142ZM16.5412 21.018V22.124H16.304V20.7437H16.5285L16.5412 21.018ZM16.4928 21.3816L16.3831 21.3777C16.3839 21.2833 16.3962 21.1962 16.42 21.1162C16.4439 21.0354 16.4792 20.9653 16.5259 20.9057C16.5727 20.8462 16.631 20.8003 16.7007 20.768C16.7704 20.7348 16.8512 20.7182 16.9431 20.7182C17.0077 20.7182 17.0672 20.7276 17.1217 20.7463C17.1761 20.7641 17.2233 20.7926 17.2633 20.8317C17.3033 20.8709 17.3343 20.921 17.3564 20.9823C17.3785 21.0435 17.3896 21.1175 17.3896 21.2042V22.124H17.1536V21.2157C17.1536 21.1434 17.1412 21.0856 17.1166 21.0422C17.0928 20.9989 17.0587 20.9674 17.0145 20.9478C16.9703 20.9274 16.9184 20.9172 16.8589 20.9172C16.7891 20.9172 16.7309 20.9295 16.6841 20.9542C16.6373 20.9789 16.5999 21.0129 16.5719 21.0563C16.5438 21.0996 16.5234 21.1494 16.5106 21.2055C16.4987 21.2608 16.4928 21.3195 16.4928 21.3816ZM17.387 21.2514L17.2288 21.2999C17.2297 21.2242 17.242 21.1515 17.2658 21.0818C17.2905 21.012 17.3258 20.95 17.3717 20.8955C17.4185 20.8411 17.4759 20.7982 17.5439 20.7667C17.612 20.7344 17.6898 20.7182 17.7774 20.7182C17.8514 20.7182 17.9169 20.728 17.9738 20.7475C18.0317 20.7671 18.0801 20.7973 18.1193 20.8381C18.1592 20.8781 18.1894 20.9295 18.2098 20.9925C18.2303 21.0554 18.2405 21.1303 18.2405 21.217V22.124H18.0032V21.2145C18.0032 21.1371 17.9909 21.0771 17.9662 21.0346C17.9424 20.9912 17.9084 20.961 17.8641 20.944C17.8208 20.9261 17.7689 20.9172 17.7085 20.9172C17.6566 20.9172 17.6107 20.9261 17.5707 20.944C17.5307 20.9619 17.4972 20.9865 17.4699 21.018C17.4427 21.0486 17.4219 21.0839 17.4074 21.1239C17.3938 21.1639 17.387 21.2064 17.387 21.2514Z" fill="white"/>
</g>
<defs>
<clipPath id="clip0_1026_12417">
<rect width="25.6322" height="5.80997" fill="white" transform="translate(0.901855 18.0981)"/>
</clipPath>
</defs>
</svg>
