<svg width="21" height="22" viewBox="0 0 21 22" fill="none" xmlns="http://www.w3.org/2000/svg">
<path fill-rule="evenodd" clip-rule="evenodd" d="M6.8041 4.1199C5.94912 4.23463 5.49731 4.44445 5.17676 4.76504C4.8562 5.08564 4.64639 5.53757 4.53167 6.39272C4.41363 7.27254 4.41178 8.43846 4.41178 10.1087V13.6005C4.41178 13.6271 4.41057 13.6537 4.40814 13.6803C4.32461 14.5924 4.3993 15.5119 4.62878 16.3983C4.75948 16.697 4.94487 16.9687 5.17556 17.1994C5.40623 17.4301 5.67789 17.6155 5.97643 17.7462C6.86267 17.9757 7.78204 18.0504 8.69399 17.9669C9.17522 17.9228 9.60108 18.2772 9.64516 18.7584C9.68924 19.2396 9.33486 19.6655 8.85363 19.7096C7.71659 19.8137 6.57011 19.7163 5.46696 19.4217C5.43008 19.4119 5.39389 19.3996 5.35861 19.385C4.82728 19.1655 4.34452 18.8433 3.93804 18.4367C3.53155 18.0302 3.20934 17.5474 2.98989 17.016C2.97532 16.9807 2.96308 16.9446 2.95324 16.9077C2.66224 15.8176 2.56365 14.6852 2.66178 13.5614L2.66178 10.0448C2.66176 8.45352 2.66174 7.16979 2.7972 6.16003C2.93779 5.11214 3.23858 4.22844 3.93924 3.52768C4.63992 2.82691 5.52354 2.52605 6.57135 2.38544C7.581 2.24996 8.86457 2.24998 10.4557 2.25L11.4394 2.25C12.6258 2.24999 13.5812 2.24998 14.3477 2.32756C15.139 2.40766 15.8245 2.57752 16.4323 2.98076L16.4405 2.9862C16.9128 3.30725 17.3201 3.71471 17.6411 4.18704L17.6466 4.19518C18.0498 4.80302 18.2196 5.48857 18.2996 6.27994C18.3772 7.04648 18.3772 8.00208 18.3772 9.18861V9.2357C18.3772 9.71894 17.9854 10.1107 17.5022 10.1107C17.0189 10.1107 16.6272 9.71894 16.6272 9.2357C16.6272 7.99105 16.6261 7.12422 16.5585 6.45613C16.4927 5.80588 16.371 5.43988 16.1908 5.16645C15.9952 4.87969 15.7476 4.63208 15.4609 4.4364C15.1875 4.2562 14.8216 4.13447 14.1715 4.06866C13.5035 4.00105 12.6368 4 11.3923 4H10.5195C8.84951 4 7.68377 4.00185 6.8041 4.1199ZM7.02595 7.48975C7.02595 7.0065 7.4177 6.61475 7.90095 6.61475H13.138C13.6212 6.61475 14.013 7.0065 14.013 7.48975C14.013 7.973 13.6212 8.36475 13.138 8.36475H7.90095C7.4177 8.36475 7.02595 7.973 7.02595 7.48975ZM7.02595 11.8545C7.02595 11.3712 7.4177 10.9795 7.90095 10.9795H11.3923C11.8755 10.9795 12.2673 11.3712 12.2673 11.8545C12.2673 12.3377 11.8755 12.7295 11.3923 12.7295H7.90095C7.4177 12.7295 7.02595 12.3377 7.02595 11.8545ZM16.6072 11.8526C16.6153 11.8524 16.6234 11.8523 16.6315 11.8524C16.8527 11.8529 17.0725 11.8879 17.2829 11.956C17.3099 11.9647 17.3364 11.9748 17.3624 11.9861C17.5875 12.084 17.792 12.2238 17.965 12.398C17.9656 12.3985 17.9661 12.399 17.9666 12.3995L18.697 13.13C18.7051 13.1381 18.713 13.1463 18.7207 13.1547C18.8764 13.3231 19.0033 13.516 19.0963 13.7257L19.1042 13.7439C19.2004 13.975 19.25 14.2229 19.25 14.4733C19.25 14.7236 19.2004 14.9715 19.1042 15.2026L19.0963 15.2209C19.0033 15.4305 18.8764 15.6234 18.7207 15.7918C18.7133 15.7999 18.7056 15.8078 18.6979 15.8156L15.5731 18.9495L15.5723 18.9503C15.332 19.1908 15.0472 19.3822 14.7337 19.5138L14.7219 19.5187C14.4048 19.6465 14.0662 19.7124 13.7243 19.7131H13.7228H12.7016L12.6846 19.7129C12.3433 19.7063 12.018 19.5677 11.7767 19.3264C11.5354 19.0851 11.3969 18.7597 11.3903 18.4186L11.3901 18.4016V17.3977L11.3901 17.3961C11.3907 17.0543 11.4567 16.7156 11.5845 16.3985L11.5912 16.3823C11.7224 16.0744 11.9086 15.7929 12.1406 15.5516L12.1535 15.5385L15.2854 12.4149C15.4583 12.241 15.6626 12.1014 15.8876 12.0035C15.8985 11.9988 15.9094 11.9943 15.9205 11.99C16.1398 11.9051 16.3721 11.8586 16.6072 11.8526ZM16.6399 13.6026C16.6165 13.6041 16.5933 13.6084 16.5709 13.6155C16.5545 13.6243 16.5395 13.6355 16.5264 13.6488L16.5228 13.6524L13.3968 16.7701C13.3164 16.8551 13.2513 16.9533 13.2045 17.0605C13.1623 17.1682 13.1404 17.2828 13.1401 17.3984V17.9631L13.7212 17.9631C13.721 17.9631 13.7215 17.9631 13.7212 17.9631C13.8376 17.9628 13.9536 17.9407 14.0618 17.8979C14.1634 17.8544 14.2557 17.7919 14.334 17.7138C14.3342 17.7136 14.3344 17.7134 14.3346 17.7132L17.4434 14.5953C17.4626 14.573 17.4789 14.5483 17.4917 14.5218C17.4972 14.5063 17.5 14.4898 17.5 14.4733C17.5 14.4567 17.4972 14.4403 17.4917 14.4247C17.4789 14.3983 17.4628 14.3737 17.4436 14.3515L16.7235 13.6313C16.7153 13.623 16.7064 13.6156 16.6968 13.6089C16.6781 13.6054 16.659 13.6033 16.6399 13.6026Z" fill="#1E7791"/>
</svg>
