<svg width="25" height="24" viewBox="0 0 25 24" fill="none" xmlns="http://www.w3.org/2000/svg">
<path fill-rule="evenodd" clip-rule="evenodd" d="M8.81206 15.0036C7.90506 15.6083 7.5 16.3338 7.5 17C7.5 17.6662 7.90506 18.3917 8.81206 18.9964C9.71207 19.5964 11.013 20 12.5 20C13.987 20 15.2879 19.5964 16.1879 18.9964C17.0949 18.3917 17.5 17.6662 17.5 17C17.5 16.3338 17.0949 15.6083 16.1879 15.0036C15.2879 14.4036 13.987 14 12.5 14C11.013 14 9.71207 14.4036 8.81206 15.0036ZM7.70266 13.3395C8.97422 12.4918 10.6733 12 12.5 12C14.3267 12 16.0258 12.4918 17.2973 13.3395C18.5619 14.1826 19.5 15.457 19.5 17C19.5 18.543 18.5619 19.8174 17.2973 20.6605C16.0258 21.5082 14.3267 22 12.5 22C10.6733 22 8.97422 21.5082 7.70266 20.6605C6.43809 19.8174 5.5 18.543 5.5 17C5.5 15.457 6.43809 14.1826 7.70266 13.3395Z" fill="#5F5F5F"/>
<path fill-rule="evenodd" clip-rule="evenodd" d="M12.5 4C11.1193 4 10 5.11929 10 6.5C10 7.88071 11.1193 9 12.5 9C13.8807 9 15 7.88071 15 6.5C15 5.11929 13.8807 4 12.5 4ZM8 6.5C8 4.01472 10.0147 2 12.5 2C14.9853 2 17 4.01472 17 6.5C17 8.98528 14.9853 11 12.5 11C10.0147 11 8 8.98528 8 6.5Z" fill="#5F5F5F"/>
</svg>
