<svg width="21" height="22" viewBox="0 0 21 22" fill="none" xmlns="http://www.w3.org/2000/svg">
<path fill-rule="evenodd" clip-rule="evenodd" d="M7.27305 13.6282C6.47942 14.1573 6.125 14.7921 6.125 15.375C6.125 15.9579 6.47942 16.5927 7.27305 17.1218C8.06056 17.6468 9.1989 18 10.5 18C11.8011 18 12.9394 17.6468 13.7269 17.1218C14.5206 16.5927 14.875 15.9579 14.875 15.375C14.875 14.7921 14.5206 14.1573 13.7269 13.6282C12.9394 13.1032 11.8011 12.75 10.5 12.75C9.1989 12.75 8.06056 13.1032 7.27305 13.6282ZM6.30233 12.1721C7.41494 11.4303 8.9016 11 10.5 11C12.0984 11 13.5851 11.4303 14.6977 12.1721C15.8042 12.9097 16.625 14.0249 16.625 15.375C16.625 16.7251 15.8042 17.8403 14.6977 18.5779C13.5851 19.3197 12.0984 19.75 10.5 19.75C8.9016 19.75 7.41494 19.3197 6.30233 18.5779C5.19583 17.8403 4.375 16.7251 4.375 15.375C4.375 14.0249 5.19583 12.9097 6.30233 12.1721Z" fill="#1E7791"/>
<path fill-rule="evenodd" clip-rule="evenodd" d="M10.5 4C9.29188 4 8.3125 4.97938 8.3125 6.1875C8.3125 7.39562 9.29188 8.375 10.5 8.375C11.7081 8.375 12.6875 7.39562 12.6875 6.1875C12.6875 4.97938 11.7081 4 10.5 4ZM6.5625 6.1875C6.5625 4.01288 8.32538 2.25 10.5 2.25C12.6746 2.25 14.4375 4.01288 14.4375 6.1875C14.4375 8.36212 12.6746 10.125 10.5 10.125C8.32538 10.125 6.5625 8.36212 6.5625 6.1875Z" fill="#1E7791"/>
</svg>
