<svg width="16" height="17" viewBox="0 0 16 17" fill="none" xmlns="http://www.w3.org/2000/svg">
<path fill-rule="evenodd" clip-rule="evenodd" d="M8.00016 3.16683C5.05464 3.16683 2.66683 5.55464 2.66683 8.50016C2.66683 11.4457 5.05464 13.8335 8.00016 13.8335C10.9457 13.8335 13.3335 11.4457 13.3335 8.50016C13.3335 5.55464 10.9457 3.16683 8.00016 3.16683ZM1.3335 8.50016C1.3335 4.81826 4.31826 1.8335 8.00016 1.8335C11.6821 1.8335 14.6668 4.81826 14.6668 8.50016C14.6668 12.1821 11.6821 15.1668 8.00016 15.1668C4.31826 15.1668 1.3335 12.1821 1.3335 8.50016Z" fill="#0F0F0F"/>
<path fill-rule="evenodd" clip-rule="evenodd" d="M8.19542 6.51954C8.00144 6.48096 7.80037 6.50076 7.61764 6.57645C7.43492 6.65213 7.27874 6.78031 7.16886 6.94476C7.05897 7.10921 7.00033 7.30255 7.00033 7.50033C7.00033 7.86852 6.70185 8.16699 6.33366 8.16699C5.96547 8.16699 5.66699 7.86852 5.66699 7.50033C5.66699 7.03884 5.80384 6.58771 6.06023 6.204C6.31662 5.82028 6.68104 5.52121 7.1074 5.34461C7.53376 5.168 8.00291 5.1218 8.45554 5.21183C8.90816 5.30186 9.32392 5.52409 9.65024 5.85041C9.97656 6.17673 10.1988 6.59249 10.2888 7.04512C10.3789 7.49774 10.3326 7.96689 10.156 8.39325C9.97944 8.81962 9.68037 9.18403 9.29666 9.44042C8.91294 9.69681 8.46182 9.83366 8.00033 9.83366C7.63214 9.83366 7.33366 9.53518 7.33366 9.16699C7.33366 8.7988 7.63214 8.50033 8.00033 8.50033C8.19811 8.50033 8.39145 8.44168 8.5559 8.3318C8.72035 8.22192 8.84852 8.06574 8.92421 7.88301C8.99989 7.70028 9.0197 7.49922 8.98111 7.30524C8.94253 7.11126 8.84729 6.93307 8.70743 6.79322C8.56758 6.65337 8.3894 6.55813 8.19542 6.51954Z" fill="#0F0F0F"/>
<path fill-rule="evenodd" clip-rule="evenodd" d="M7.3335 11.1667C7.3335 10.7985 7.63197 10.5 8.00016 10.5H8.00683C8.37502 10.5 8.6735 10.7985 8.6735 11.1667C8.6735 11.5349 8.37502 11.8333 8.00683 11.8333H8.00016C7.63197 11.8333 7.3335 11.5349 7.3335 11.1667Z" fill="#0F0F0F"/>
</svg>
