<svg width="32" height="32" viewBox="0 0 32 32" fill="none" xmlns="http://www.w3.org/2000/svg">
<rect width="32" height="32" rx="6" fill="#ECF0FF"/>
<path fill-rule="evenodd" clip-rule="evenodd" d="M13.8932 7.64196C13.347 7.23573 12.6839 7.01736 12.0032 7.01955L11.9982 7.01955C11.7431 7.01909 11.4974 7.11617 11.3115 7.29092C11.1365 7.4554 11.0269 7.67698 11.0019 7.91483C11.0118 8.055 11.0465 8.19243 11.1045 8.32071C11.1689 8.46322 11.2607 8.59163 11.3748 8.69862C11.4888 8.8056 11.6228 8.88906 11.7692 8.94422C11.9155 8.99938 12.0713 9.02516 12.2275 9.02008L12.2438 9.01955H14.6252C14.7095 9.01953 14.7945 9.01953 14.8804 9.01953C14.7065 8.46947 14.3625 7.98776 13.8968 7.6446L13.8932 7.64196ZM9.40556 9.38924C9.36092 9.30952 9.31966 9.22779 9.28191 9.14425C9.1093 8.76225 9.01367 8.34997 9.0005 7.93099L8.99906 7.88524L9.0018 7.83955C9.04773 7.07551 9.38396 6.35791 9.94167 5.83367C10.4988 5.30999 11.2348 5.01881 11.9993 5.01955L12.0018 5.01955L11.9968 5.01956L11.9993 5.01955C13.1106 5.01651 14.193 5.37301 15.085 6.0358C15.431 6.29103 15.7382 6.59043 16 6.9244C16.2618 6.59044 16.569 6.29105 16.915 6.03582C17.807 5.37299 18.8895 5.01649 20.0008 5.01955C20.7653 5.01884 21.5013 5.31002 22.0583 5.83367C22.616 6.35791 22.9523 7.07551 22.9982 7.83955L23.0009 7.88524L22.9995 7.93099C22.9863 8.34997 22.8907 8.76225 22.7181 9.14425C22.6803 9.22779 22.6391 9.30952 22.5944 9.38924C23.3355 9.59759 23.9845 9.93301 24.5355 10.484C25.3381 11.2866 25.6833 12.2971 25.8446 13.4972C26.0001 14.6532 26 16.1229 26 17.9464V18.0927C26 19.9161 26.0001 21.3859 25.8446 22.5419C25.6833 23.742 25.3381 24.7525 24.5355 25.5551C23.733 26.3576 22.7225 26.7028 21.5223 26.8642C20.3664 27.0196 18.8966 27.0196 17.0731 27.0195H14.9269C13.1034 27.0196 11.6336 27.0196 10.4777 26.8642C9.27752 26.7028 8.26702 26.3576 7.46447 25.5551C6.66191 24.7525 6.31672 23.742 6.15537 22.5419C5.99995 21.3859 5.99997 19.9162 6 18.0927V17.9464C5.99997 16.1229 5.99995 14.6532 6.15537 13.4972C6.31672 12.2971 6.66191 11.2866 7.46447 10.484C8.01546 9.93301 8.66446 9.59759 9.40556 9.38924ZM17 25.0195C18.9139 25.0195 20.2487 25.0174 21.2558 24.882C22.2342 24.7505 22.7523 24.5099 23.1213 24.1409C23.4903 23.7718 23.7309 23.2537 23.8625 22.2754C23.9729 21.4537 23.9947 20.4139 23.999 19.0195H17V25.0195ZM15 19.0195L15 25.0195C13.0861 25.0195 11.7513 25.0174 10.7442 24.882C9.76579 24.7505 9.2477 24.5099 8.87868 24.1409C8.50966 23.7718 8.26907 23.2537 8.13753 22.2754C8.02706 21.4537 8.0053 20.4139 8.00104 19.0195H15ZM17 17.0195H23.999C23.9947 15.6251 23.9729 14.5854 23.8625 13.7637C23.7309 12.7853 23.4903 12.2672 23.1213 11.8982C22.7523 11.5292 22.2342 11.2886 21.2558 11.1571C20.2914 11.0274 19.0265 11.02 17.2404 11.0196H17V17.0195ZM15 11.0196V17.0195H8.00104C8.0053 15.6251 8.02706 14.5854 8.13753 13.7637C8.26907 12.7853 8.50966 12.2672 8.87868 11.8982C9.2477 11.5292 9.76579 11.2886 10.7442 11.1571C11.7086 11.0274 12.9735 11.02 14.7596 11.0196H15ZM17.3748 9.01955H19.7562L19.7725 9.02008C19.9288 9.02516 20.0845 8.99938 20.2308 8.94422C20.3772 8.88906 20.5112 8.8056 20.6252 8.69862C20.7393 8.59163 20.8311 8.46322 20.8955 8.32071C20.9535 8.19243 20.9882 8.055 20.9981 7.91483C20.9731 7.67698 20.8635 7.4554 20.6885 7.29092C20.5026 7.11617 20.2569 7.01909 20.0018 7.01955L19.9968 7.01955C19.3161 7.01736 18.653 7.23573 18.1068 7.64196L18.1032 7.64461C17.6375 7.98777 17.2935 8.46947 17.1196 9.01953C17.2055 9.01953 17.2905 9.01953 17.3748 9.01955Z" fill="#1E7791"/>
</svg>
