<svg width="25" height="24" viewBox="0 0 25 24" fill="none" xmlns="http://www.w3.org/2000/svg">
<path fill-rule="evenodd" clip-rule="evenodd" d="M10.3932 3.64196C9.84702 3.23573 9.18392 3.01736 8.50322 3.01955L8.4982 3.01955C8.24306 3.01909 7.99739 3.11617 7.81149 3.29092C7.63651 3.4554 7.52693 3.67698 7.5019 3.91483C7.51183 4.055 7.54652 4.19243 7.60449 4.32071C7.66888 4.46322 7.76072 4.59163 7.87477 4.69862C7.98882 4.8056 8.12284 4.88906 8.26917 4.94422C8.41549 4.99938 8.57125 5.02516 8.72754 5.02008L8.74377 5.01955H11.1252C11.2095 5.01953 11.2945 5.01953 11.3804 5.01953C11.2065 4.46947 10.8625 3.98776 10.3968 3.6446L10.3932 3.64196ZM5.90556 5.38924C5.86092 5.30952 5.81966 5.22779 5.78191 5.14425C5.6093 4.76225 5.51367 4.34997 5.5005 3.93099L5.49906 3.88524L5.5018 3.83955C5.54773 3.07551 5.88396 2.35791 6.44167 1.83367C6.99877 1.30999 7.73477 1.01881 8.49929 1.01955L8.5018 1.01955L8.49678 1.01956L8.49929 1.01955C9.61055 1.01651 10.693 1.37301 11.585 2.0358C11.931 2.29103 12.2382 2.59043 12.5 2.9244C12.7618 2.59044 13.069 2.29105 13.415 2.03582C14.307 1.37299 15.3895 1.01649 16.5008 1.01955C17.2653 1.01884 18.0013 1.31002 18.5583 1.83367C19.116 2.35791 19.4523 3.07551 19.4982 3.83955L19.5009 3.88524L19.4995 3.93099C19.4863 4.34997 19.3907 4.76225 19.2181 5.14425C19.1803 5.22779 19.1391 5.30952 19.0944 5.38924C19.8355 5.59759 20.4845 5.93301 21.0355 6.484C21.8381 7.28655 22.1833 8.29705 22.3446 9.4972C22.5001 10.6532 22.5 12.1229 22.5 13.9464V14.0927C22.5 15.9161 22.5001 17.3859 22.3446 18.5419C22.1833 19.742 21.8381 20.7525 21.0355 21.5551C20.233 22.3576 19.2225 22.7028 18.0223 22.8642C16.8664 23.0196 15.3966 23.0196 13.5731 23.0195H11.4269C9.6034 23.0196 8.13363 23.0196 6.97767 22.8642C5.77752 22.7028 4.76702 22.3576 3.96447 21.5551C3.16191 20.7525 2.81672 19.742 2.65537 18.5419C2.49995 17.3859 2.49997 15.9162 2.5 14.0927V13.9464C2.49997 12.1229 2.49995 10.6532 2.65537 9.4972C2.81672 8.29705 3.16191 7.28655 3.96447 6.484C4.51546 5.93301 5.16446 5.59759 5.90556 5.38924ZM13.5 21.0195C15.4139 21.0195 16.7487 21.0174 17.7558 20.882C18.7342 20.7505 19.2523 20.5099 19.6213 20.1409C19.9903 19.7718 20.2309 19.2537 20.3625 18.2754C20.4729 17.4537 20.4947 16.4139 20.499 15.0195H13.5V21.0195ZM11.5 15.0195L11.5 21.0195C9.58611 21.0195 8.2513 21.0174 7.24416 20.882C6.26579 20.7505 5.7477 20.5099 5.37868 20.1409C5.00966 19.7718 4.76907 19.2537 4.63753 18.2754C4.52706 17.4537 4.5053 16.4139 4.50104 15.0195H11.5ZM13.5 13.0195H20.499C20.4947 11.6251 20.4729 10.5854 20.3625 9.76369C20.2309 8.78532 19.9903 8.26723 19.6213 7.89821C19.2523 7.52919 18.7342 7.2886 17.7558 7.15706C16.7914 7.0274 15.5265 7.01995 13.7404 7.01955H13.5V13.0195ZM11.5 7.01955V13.0195H4.50104C4.5053 11.6251 4.52706 10.5854 4.63753 9.76369C4.76907 8.78532 5.00966 8.26723 5.37868 7.89821C5.7477 7.52919 6.26579 7.2886 7.24416 7.15706C8.20859 7.0274 9.4735 7.01995 11.2596 7.01955H11.5ZM13.8748 5.01955H16.2562L16.2725 5.02008C16.4288 5.02516 16.5845 4.99938 16.7308 4.94422C16.8772 4.88906 17.0112 4.8056 17.1252 4.69862C17.2393 4.59163 17.3311 4.46322 17.3955 4.32071C17.4535 4.19243 17.4882 4.055 17.4981 3.91483C17.4731 3.67698 17.3635 3.4554 17.1885 3.29092C17.0026 3.11617 16.7569 3.01909 16.5018 3.01955L16.4968 3.01955C15.8161 3.01736 15.153 3.23573 14.6068 3.64196L14.6032 3.64461C14.1375 3.98777 13.7935 4.46947 13.6196 5.01953C13.7055 5.01953 13.7905 5.01953 13.8748 5.01955Z" fill="#5F5F5F"/>
</svg>
