<svg width="25" height="24" viewBox="0 0 25 24" fill="none" xmlns="http://www.w3.org/2000/svg">
<path d="M3.5 17C3.5 18.8638 3.5 19.7956 3.80448 20.5307C4.21046 21.5108 4.98915 22.2895 5.96927 22.6955C6.70435 23 7.63623 23 9.5 23H10.8333C11.2243 23 11.4197 23 11.5544 22.8967C11.589 22.8701 11.6201 22.839 11.6467 22.8044C11.75 22.6697 11.75 22.4743 11.75 22.0833V17.25C11.75 16.7786 11.75 16.5429 11.6036 16.3964C11.4571 16.25 11.2214 16.25 10.75 16.25L4.25 16.25C4.01703 16.25 3.90054 16.25 3.80866 16.2881C3.68614 16.3388 3.58881 16.4361 3.53806 16.5587C3.5 16.6505 3.5 16.767 3.5 17Z" fill="#1E7791"/>
<path d="M21.5 17C21.5 18.8638 21.5 19.7957 21.1955 20.5307C20.7895 21.5108 20.0108 22.2895 19.0307 22.6955C18.2956 23 17.3638 23 15.5 23H14.1667C13.7757 23 13.5803 23 13.4456 22.8967C13.411 22.8701 13.3799 22.839 13.3533 22.8044C13.25 22.6697 13.25 22.4743 13.25 22.0833L13.25 17.25C13.25 16.7786 13.25 16.5429 13.3964 16.3964C13.5429 16.25 13.7786 16.25 14.25 16.25L20.75 16.25C20.983 16.25 21.0995 16.25 21.1913 16.2881C21.3139 16.3388 21.4112 16.4361 21.4619 16.5587C21.5 16.6505 21.5 16.767 21.5 17Z" fill="#1E7791"/>
<path d="M21.5 14C21.5 12.1362 21.5 11.2044 21.1955 10.4693C20.7895 9.48915 20.0108 8.71046 19.0307 8.30448C18.2956 8 17.3638 8 15.5 8H14.1667C13.7757 8 13.5803 8 13.4456 8.10332C13.411 8.12992 13.3799 8.16095 13.3533 8.19562C13.25 8.33027 13.25 8.52574 13.25 8.91667V13.75C13.25 14.2214 13.25 14.4571 13.3964 14.6036C13.5429 14.75 13.7786 14.75 14.25 14.75H20.75C20.983 14.75 21.0995 14.75 21.1913 14.7119C21.3139 14.6612 21.4112 14.5639 21.4619 14.4413C21.5 14.3495 21.5 14.233 21.5 14Z" fill="#1E7791"/>
<path d="M3.5 14C3.5 12.1362 3.5 11.2044 3.80448 10.4693C4.21046 9.48915 4.98915 8.71046 5.96927 8.30448C6.70435 8 7.63623 8 9.5 8H10.8333C11.2243 8 11.4197 8 11.5544 8.10332C11.589 8.12992 11.6201 8.16095 11.6467 8.19562C11.75 8.33027 11.75 8.52574 11.75 8.91667V13.75C11.75 14.2214 11.75 14.4571 11.6036 14.6036C11.4571 14.75 11.2214 14.75 10.75 14.75H4.25C4.01703 14.75 3.90054 14.75 3.80866 14.7119C3.68614 14.6612 3.58881 14.5639 3.53806 14.4413C3.5 14.3495 3.5 14.233 3.5 14Z" fill="#1E7791"/>
<path d="M16.5 1.00021C15.3897 0.995093 14.3068 1.34552 13.41 2.00021C13.0834 2.24699 12.7879 2.5324 12.53 2.85021C12.2601 2.53304 11.9548 2.24785 11.62 2.00021C10.7143 1.34068 9.62037 0.990073 8.5 1.00021C7.72305 0.999692 6.97619 1.30062 6.41664 1.83965C5.85709 2.37869 5.52849 3.11378 5.5 3.89021C5.50909 4.30785 5.60038 4.7196 5.76865 5.10194C5.93692 5.48429 6.17887 5.82973 6.48068 6.11854C6.78249 6.40735 7.13825 6.63387 7.52762 6.78515C7.917 6.93643 8.33237 7.00951 8.75 7.00021H16.24C17.0844 7.01901 17.9018 6.70216 18.5129 6.11915C19.1241 5.53614 19.479 4.73457 19.5 3.89021C19.4715 3.11378 19.1429 2.37869 18.5834 1.83965C18.0238 1.30062 17.277 0.999692 16.5 1.00021ZM8.75 5.00021C8.43756 5.01667 8.13121 4.90941 7.89727 4.70167C7.66332 4.49393 7.5206 4.20241 7.5 3.89021C7.52719 3.64449 7.64443 3.41756 7.82911 3.2532C8.01378 3.08884 8.25279 2.99871 8.5 3.00021C9.18043 2.99733 9.8435 3.21484 10.39 3.62021C10.8657 3.95809 11.217 4.44299 11.39 5.00021H8.75ZM16.24 5.00021H13.59C13.763 4.44299 14.1143 3.95809 14.59 3.62021C15.142 3.21071 15.8127 2.99298 16.5 3.00021C16.7472 2.99871 16.9862 3.08884 17.1709 3.2532C17.3556 3.41756 17.4728 3.64449 17.5 3.89021C17.4794 4.20424 17.3353 4.49733 17.0992 4.70535C16.863 4.91338 16.5541 5.0194 16.24 5.00021Z" fill="#1E7791"/>
</svg>
