<svg width="21" height="22" viewBox="0 0 21 22" fill="none" xmlns="http://www.w3.org/2000/svg">
<path d="M14.875 7.5875V6.625C14.875 5.46468 14.4141 4.35188 13.5936 3.53141C12.7731 2.71094 11.6603 2.25 10.5 2.25C9.33968 2.25 8.22689 2.71094 7.40642 3.53141C6.58595 4.35188 6.125 5.46468 6.125 6.625V7.5875C5.13681 7.78921 4.24867 8.32616 3.61087 9.10746C2.97307 9.88876 2.62479 10.8664 2.625 11.875V15.375C2.625 16.5353 3.08595 17.6481 3.90642 18.4686C4.72689 19.2891 5.83968 19.75 7 19.75H14C15.1603 19.75 16.2731 19.2891 17.0936 18.4686C17.9141 17.6481 18.375 16.5353 18.375 15.375V11.875C18.3752 10.8664 18.027 9.88876 17.3892 9.10746C16.7514 8.32616 15.8632 7.78921 14.875 7.5875ZM7.875 6.625C7.875 5.92881 8.15157 5.26113 8.64386 4.76884C9.13614 4.27656 9.80381 4 10.5 4C11.1962 4 11.8639 4.27656 12.3562 4.76884C12.8485 5.26113 13.125 5.92881 13.125 6.625V7.5H7.875V6.625ZM16.625 15.375C16.625 16.0712 16.3485 16.7389 15.8562 17.2312C15.3639 17.7234 14.6962 18 14 18H7C6.30381 18 5.63614 17.7234 5.14386 17.2312C4.65157 16.7389 4.375 16.0712 4.375 15.375V11.875C4.375 11.1788 4.65157 10.5111 5.14386 10.0188C5.63614 9.52656 6.30381 9.25 7 9.25H14C14.6962 9.25 15.3639 9.52656 15.8562 10.0188C16.3485 10.5111 16.625 11.1788 16.625 11.875V15.375Z" fill="#1E7791"/>
<path d="M10.5 15.375C10.2679 15.375 10.0454 15.2828 9.88129 15.1187C9.7172 14.9546 9.625 14.7321 9.625 14.5V12.75C9.625 12.5179 9.7172 12.2954 9.88129 12.1313C10.0454 11.9672 10.2679 11.875 10.5 11.875C10.7321 11.875 10.9546 11.9672 11.1187 12.1313C11.2828 12.2954 11.375 12.5179 11.375 12.75V14.5C11.375 14.7321 11.2828 14.9546 11.1187 15.1187C10.9546 15.2828 10.7321 15.375 10.5 15.375Z" fill="#1E7791"/>
</svg>
