<svg width="21" height="22" viewBox="0 0 21 22" fill="none" xmlns="http://www.w3.org/2000/svg">
<path fill-rule="evenodd" clip-rule="evenodd" d="M7.97134 2.25L13.029 2.25C13.7961 2.25079 14.5495 2.45334 15.2135 2.83732C15.8773 3.22111 16.4285 3.77265 16.8119 4.43663C16.8119 4.43658 16.8119 4.43667 16.8119 4.43663C16.8121 4.43691 16.8123 4.43732 16.8125 4.43761L18.8948 8.03461C19.4141 8.93656 19.6875 9.95916 19.6875 11C19.6875 12.0408 19.4141 13.0634 18.8948 13.9654L18.8938 13.9671L16.8125 17.5624C16.8123 17.5627 16.8122 17.563 16.812 17.5633C16.812 17.5633 16.812 17.5632 16.812 17.5633C16.4285 18.2272 15.8773 18.7789 15.2135 19.1627C14.5495 19.5467 13.7961 19.7492 13.029 19.75H7.97134C7.20427 19.7492 6.45091 19.5467 5.78684 19.1627C5.12283 18.7787 4.57145 18.2269 4.18798 17.5626C4.18794 17.5625 4.18801 17.5626 4.18798 17.5626L2.10648 13.9582C1.58658 13.0592 1.3125 12.0385 1.3125 11C1.3125 9.9615 1.58624 8.94135 2.10614 8.04242L4.18787 4.43761C4.57135 3.77327 5.12283 3.22126 5.78684 2.83732C6.45091 2.45334 7.20427 2.25079 7.97134 2.25ZM7.97271 4C7.51278 4.00055 7.06106 4.12203 6.66283 4.35229C6.26447 4.58263 5.93364 4.91373 5.70354 5.31239L3.6216 8.91758C3.25558 9.55028 3.0625 10.269 3.0625 11C3.0625 11.731 3.25524 12.4491 3.62127 13.0818L5.70343 16.6874C5.93353 17.0861 6.26447 17.4174 6.66283 17.6477C7.06118 17.878 7.51306 17.9995 7.97314 18H13.0272C13.4873 17.9995 13.9392 17.878 14.3375 17.6477C14.7359 17.4174 15.0667 17.0863 15.2968 16.6876L15.2974 16.6866L17.3782 13.0921C17.3781 13.0922 17.3783 13.092 17.3782 13.0921C17.7445 12.4559 17.9375 11.7342 17.9375 11C17.9375 10.2658 17.7447 9.5445 17.3785 8.90829C17.3784 8.90816 17.3785 8.90843 17.3785 8.90829L15.2974 5.31337L15.2968 5.31239C15.0667 4.91373 14.7359 4.58263 14.3375 4.35229C13.9393 4.12203 13.4876 4.00055 13.0276 4H7.97271Z" fill="#1E7791"/>
<path fill-rule="evenodd" clip-rule="evenodd" d="M10.5 9.25C9.5335 9.25 8.75 10.0335 8.75 11C8.75 11.9665 9.5335 12.75 10.5 12.75C11.4665 12.75 12.25 11.9665 12.25 11C12.25 10.0335 11.4665 9.25 10.5 9.25ZM7 11C7 9.067 8.567 7.5 10.5 7.5C12.433 7.5 14 9.067 14 11C14 12.933 12.433 14.5 10.5 14.5C8.567 14.5 7 12.933 7 11Z" fill="#1E7791"/>
</svg>
