<svg width="91" height="86" viewBox="0 0 91 86" fill="none" xmlns="http://www.w3.org/2000/svg">
<path d="M46.0938 60.4556C36.0023 60.4556 27.3646 61.2312 23.9335 62.3228C22.9012 62.6481 22.334 63.0046 22.334 63.3767C22.334 63.5925 22.5233 63.8021 22.8867 64.0022C24.4862 64.9 29.4448 65.6443 36.0755 66.0228C39.1148 66.198 42.5175 66.2949 46.0944 66.2949C57.4654 66.2949 66.9606 65.3129 69.2869 64.0022C69.651 63.8021 69.8396 63.5925 69.8396 63.3767C69.8396 61.7629 59.21 60.4556 46.0938 60.4556Z" fill="#9F9595"/>
<path d="M56.5818 58.3043C57.7037 58.8513 58.351 59.4931 58.351 60.1797C58.351 62.1947 52.7862 63.8302 45.9207 63.8302C39.0497 63.8302 33.4849 62.1947 33.4849 60.1797C33.4849 59.4597 34.1937 58.7899 35.4216 58.2261C35.1592 58.5778 35.0198 58.946 35.0198 59.3257C35.0198 61.5862 56.9277 61.5862 56.9277 59.3257C56.9278 58.9742 56.8105 58.6337 56.5818 58.3043Z" fill="#9F9595"/>
<path d="M50.1289 49.5762C52.7691 50.7259 50.2293 53.1317 50.2293 53.1317C50.1959 53.1484 50.1623 53.1596 50.1289 53.1763V49.5762Z" fill="#9F9595"/>
<path d="M50.1292 49.5765V53.1767C45.5523 55.108 42.4266 53.5451 41.8237 53.199V49.4648C46.0044 52.3841 49.9505 49.5039 49.9505 49.5039C50.012 49.5262 50.0734 49.5485 50.1292 49.5765Z" fill="#9F9595"/>
<path d="M41.7178 53.1316C39.6247 50.6701 41.8127 49.459 41.8127 49.459C41.8184 49.459 41.8184 49.4646 41.824 49.4646V53.1988C41.7512 53.1539 41.7178 53.1316 41.7178 53.1316Z" fill="#9F9595"/>
<path d="M50.1289 44.77C52.8415 45.9087 50.274 48.3422 50.274 48.3422C50.2237 48.3646 50.1736 48.3869 50.1289 48.4036V44.77Z" fill="#9F9595"/>
<path d="M50.1292 44.7695V48.4031C45.4517 50.3622 42.2982 48.6599 41.8237 48.3808V44.6913C41.8461 44.6746 41.8573 44.6689 41.8573 44.6689C46.0435 47.5993 49.9953 44.7136 49.9953 44.7136C50.0398 44.7305 50.0845 44.7472 50.1292 44.7695Z" fill="#9F9595"/>
<path d="M41.8238 44.6934V48.3829C41.7848 48.3549 41.7624 48.3438 41.7624 48.3438C39.8255 46.0608 41.5558 44.8551 41.8238 44.6934Z" fill="#9F9595"/>
<path d="M45.9203 56.5321C44.7146 56.5321 43.5481 56.5824 42.4428 56.6772C42.2195 56.3255 42.0521 55.9349 41.9517 55.5162C43.1964 55.3319 44.5528 55.2314 45.9704 55.2314C47.3938 55.2314 48.7556 55.3319 50.0003 55.5162C49.8999 55.9347 49.7269 56.3255 49.5035 56.6826C48.3705 56.588 47.1648 56.5321 45.9203 56.5321Z" fill="#9F9595"/>
<path d="M45.9708 55.2303C44.553 55.2303 43.1968 55.3307 41.9521 55.515C41.8684 55.1913 41.8237 54.8508 41.8237 54.4991V53.1986C42.4266 53.5447 45.5523 55.1075 50.1292 53.1763V54.4991C50.1292 54.8508 50.0845 55.1913 50.0008 55.515C48.7561 55.3307 47.3942 55.2303 45.9708 55.2303Z" fill="#9F9595"/>
<path d="M41.9519 55.5142C42.0523 55.9327 42.2197 56.3235 42.4431 56.6752C39.5071 56.9265 37.0233 57.4845 35.4214 58.227C36.3424 56.9821 38.7871 55.983 41.9519 55.5142Z" fill="#9F9595"/>
<path d="M56.9274 59.3282C56.9274 61.5887 35.0195 61.5887 35.0195 59.3282C35.0195 58.9487 35.159 58.5803 35.4214 58.2285C37.0233 57.4862 39.5071 56.9281 42.443 56.6768C43.1743 57.8656 44.4804 58.6527 45.9762 58.6527C47.4664 58.6527 48.7725 57.8657 49.5037 56.6824C52.49 56.9502 55.0072 57.5364 56.5812 58.3012V58.3068C56.8101 58.636 56.9274 58.9765 56.9274 59.3282Z" fill="#9F9595"/>
<path d="M56.5813 58.2994C55.0074 57.5348 52.49 56.9486 49.5039 56.6806C49.7273 56.3235 49.9003 55.9327 50.0007 55.5142C53.2266 55.9941 55.705 57.0267 56.5813 58.2994Z" fill="#9F9595"/>
<path d="M49.5041 56.682C48.7728 57.8653 47.4667 58.6523 45.9765 58.6523C44.4807 58.6523 43.1746 57.8653 42.4434 56.6763C43.5484 56.5815 44.7151 56.5312 45.9208 56.5312C47.1653 56.5312 48.371 56.5872 49.5041 56.682Z" fill="#9F9595"/>
<path d="M41.8237 49.4636V48.3809C42.2982 48.6599 45.4517 50.3622 50.1292 48.4032V49.5753C50.0732 49.5473 50.012 49.525 49.9505 49.5027C49.9505 49.5027 46.0044 52.3829 41.8237 49.4636Z" fill="#9F9595"/>
<path d="M41.8237 44.6927V42.7838C42.8618 42.9401 43.9224 43.0182 44.9997 43.0182C46.7636 43.0182 48.4826 42.8061 50.1294 42.4043V44.771C50.0847 44.7487 50.04 44.732 49.9953 44.7151C49.9953 44.7151 46.0435 47.6009 41.8573 44.6704C41.8573 44.6704 41.8461 44.676 41.8237 44.6927Z" fill="#9F9595"/>
<path d="M66.7625 10.8457C72.266 10.8457 76.7257 15.4785 76.7257 21.1941C76.7257 26.9097 72.266 31.5425 66.7625 31.5425C65.914 31.5425 65.0936 31.4308 64.3066 31.2243C64.9819 29.9293 65.529 28.5562 65.9309 27.1217C66.1932 27.172 66.4611 27.1944 66.7291 27.1944C69.7934 27.1944 72.2772 24.2081 72.2772 20.5242C72.2772 16.8404 69.7991 13.8597 66.7347 13.8541V12.9722C66.7347 12.2577 66.7011 11.549 66.6341 10.8511C66.6786 10.8457 66.7178 10.8457 66.7625 10.8457Z" fill="#9F9595"/>
<path d="M23.9903 26.8527C24.3755 28.3039 24.9113 29.6993 25.5755 31.011C24.9169 31.1561 24.2414 31.2287 23.5438 31.2287C18.0403 31.2287 13.5806 26.5959 13.5806 20.8804C13.5806 15.2151 17.9566 10.6159 23.3931 10.5376C23.3038 11.3358 23.2591 12.1508 23.2591 12.9711V13.5516C20.3121 13.708 17.9621 16.627 17.9621 20.2105C17.9621 23.8944 20.4459 26.8806 23.5102 26.8806C23.672 26.8806 23.834 26.8694 23.9903 26.8527Z" fill="#9F9595"/>
<path d="M66.6342 10.8504C66.6229 10.7443 66.6119 10.6383 66.5952 10.5322H23.544C23.4939 10.5322 23.4436 10.5322 23.3933 10.5379C23.304 11.3361 23.2593 12.151 23.2593 12.9714V13.5519V21.2768C23.2593 23.2025 23.5104 25.0724 23.9905 26.8529C24.3756 28.3041 24.9115 29.6996 25.5757 31.0113C28.7014 37.2126 34.7184 41.7335 41.8238 42.7829C42.862 42.9392 43.9224 43.0173 44.9998 43.0173C46.7636 43.0173 48.4828 42.8052 50.1294 42.4034C56.2971 40.8965 61.449 36.7436 64.3067 31.2234C64.9822 29.9285 65.5291 28.5554 65.9309 27.1209C66.4557 25.2623 66.7348 23.2976 66.7348 21.277V13.8533V12.9714C66.7346 12.2569 66.701 11.548 66.6342 10.8504Z" fill="#9F9595"/>
<path d="M64.0107 2.47266H25.9831H16.9072V10.5326H23.3987H23.5438H66.5951H72.8409V2.47266H64.0107Z" fill="#9F9595"/>
<path d="M52.8418 12.8697L52.025 9.00098L51.2082 12.8697C50.8253 14.6831 50.1301 16.2528 49.2153 17.3697C50.0924 17.8008 50.7849 18.9605 51.0588 20.4569L52.0252 25.7383L52.9916 20.4569C53.2654 18.9605 53.9579 17.8008 54.835 17.3697C53.9198 16.2529 53.2247 14.6831 52.8418 12.8697Z" fill="#F4F2ED"/>
<g clip-path="url(#clip0_1020_11960)">
<path d="M2.69243 64.7607C2.16157 64.1635 2.58553 63.2195 3.38457 63.2195H87.8051C88.6538 63.2195 89.0554 64.2661 88.4246 64.8338L79.8271 72.5716C79.127 73.2017 79.1592 74.3092 79.8946 74.8976L88.0834 81.4486C88.767 81.9955 88.3803 83.0978 87.5049 83.0978H3.6143C2.78927 83.0978 2.3761 82.1003 2.95948 81.5169L9.68587 74.7905C10.2572 74.2192 10.2842 73.3015 9.74737 72.6976L2.69243 64.7607Z" fill="#9F9595" stroke="white" stroke-width="0.600033"/>
<path d="M38.2491 74.879C38.2491 74.7261 38.2252 74.5912 38.1772 74.4743C38.1322 74.3544 38.0513 74.2465 37.9344 74.1506C37.8205 74.0547 37.6616 73.9632 37.4578 73.8763C37.2569 73.7894 37.0021 73.7009 36.6934 73.611C36.3696 73.5151 36.0774 73.4087 35.8166 73.2918C35.5558 73.1719 35.3324 73.0355 35.1466 72.8826C34.9607 72.7297 34.8184 72.5543 34.7194 72.3565C34.6205 72.1587 34.571 71.9323 34.571 71.6775C34.571 71.4227 34.6235 71.1874 34.7284 70.9716C34.8333 70.7558 34.9832 70.5684 35.1781 70.4095C35.3759 70.2477 35.6112 70.1218 35.884 70.0318C36.1568 69.9419 36.4611 69.8969 36.7968 69.8969C37.2884 69.8969 37.7051 69.9914 38.0468 70.1802C38.3915 70.3661 38.6538 70.6104 38.8337 70.9131C39.0135 71.2129 39.1035 71.5337 39.1035 71.8754H38.2401C38.2401 71.6296 38.1877 71.4122 38.0828 71.2234C37.9779 71.0315 37.819 70.8817 37.6061 70.7738C37.3933 70.6628 37.1235 70.6074 36.7968 70.6074C36.488 70.6074 36.2332 70.6538 36.0324 70.7468C35.8315 70.8397 35.6817 70.9656 35.5827 71.1245C35.4868 71.2833 35.4389 71.4647 35.4389 71.6685C35.4389 71.8064 35.4673 71.9323 35.5243 72.0462C35.5842 72.1572 35.6757 72.2606 35.7986 72.3565C35.9245 72.4524 36.0834 72.5409 36.2752 72.6218C36.47 72.7027 36.7024 72.7807 36.9721 72.8556C37.3439 72.9605 37.6646 73.0774 37.9344 73.2063C38.2042 73.3352 38.426 73.4806 38.5999 73.6425C38.7767 73.8014 38.9071 73.9827 38.991 74.1866C39.078 74.3874 39.1214 74.6152 39.1214 74.87C39.1214 75.1368 39.0675 75.3781 38.9596 75.5939C38.8517 75.8098 38.6973 75.9941 38.4964 76.147C38.2956 76.2999 38.0543 76.4183 37.7725 76.5022C37.4937 76.5832 37.182 76.6236 36.8373 76.6236C36.5345 76.6236 36.2362 76.5817 35.9425 76.4977C35.6517 76.4138 35.3864 76.2879 35.1466 76.12C34.9098 75.9522 34.7194 75.7453 34.5755 75.4995C34.4347 75.2507 34.3642 74.9629 34.3642 74.6362H35.2275C35.2275 74.861 35.271 75.0544 35.3579 75.2162C35.4449 75.3751 35.5633 75.507 35.7131 75.6119C35.866 75.7168 36.0384 75.7948 36.2302 75.8457C36.4251 75.8937 36.6274 75.9177 36.8373 75.9177C37.14 75.9177 37.3963 75.8757 37.6061 75.7918C37.816 75.7078 37.9749 75.5879 38.0828 75.4321C38.1937 75.2762 38.2491 75.0918 38.2491 74.879ZM41.0288 71.6685V76.5337H40.1925V71.6685H41.0288ZM40.1295 70.3781C40.1295 70.2432 40.17 70.1293 40.2509 70.0363C40.3349 69.9434 40.4578 69.8969 40.6196 69.8969C40.7785 69.8969 40.8999 69.9434 40.9838 70.0363C41.0708 70.1293 41.1142 70.2432 41.1142 70.3781C41.1142 70.507 41.0708 70.6179 40.9838 70.7108C40.8999 70.8007 40.7785 70.8457 40.6196 70.8457C40.4578 70.8457 40.3349 70.8007 40.2509 70.7108C40.17 70.6179 40.1295 70.507 40.1295 70.3781ZM43.2914 69.6272V76.5337H42.4551V69.6272H43.2914ZM46.1295 75.7828L47.4605 71.6685H48.3103L46.5612 76.5337H46.0036L46.1295 75.7828ZM45.0189 71.6685L46.3903 75.8053L46.4847 76.5337H45.9272L44.1646 71.6685H45.0189ZM51.09 76.6236C50.7512 76.6236 50.444 76.5667 50.1682 76.4528C49.8954 76.3358 49.6601 76.1725 49.4623 75.9626C49.2674 75.7528 49.1175 75.504 49.0126 75.2162C48.9077 74.9285 48.8552 74.6137 48.8552 74.272V74.0831C48.8552 73.6874 48.9137 73.3352 49.0306 73.0265C49.1475 72.7147 49.3064 72.4509 49.5072 72.2351C49.7081 72.0193 49.9359 71.8559 50.1907 71.745C50.4455 71.6341 50.7093 71.5786 50.9821 71.5786C51.3298 71.5786 51.6295 71.6386 51.8813 71.7585C52.1361 71.8784 52.3445 72.0462 52.5064 72.2621C52.6682 72.4749 52.7881 72.7267 52.8661 73.0175C52.944 73.3052 52.983 73.62 52.983 73.9617V74.3349H49.3499V73.656H52.1511V73.593C52.1391 73.3772 52.0942 73.1674 52.0162 72.9635C51.9413 72.7597 51.8214 72.5918 51.6565 72.4599C51.4917 72.328 51.2668 72.2621 50.9821 72.2621C50.7932 72.2621 50.6193 72.3025 50.4605 72.3835C50.3016 72.4614 50.1652 72.5783 50.0513 72.7342C49.9374 72.8901 49.849 73.0804 49.786 73.3052C49.7231 73.5301 49.6916 73.7894 49.6916 74.0831V74.272C49.6916 74.5028 49.7231 74.7201 49.786 74.924C49.852 75.1248 49.9464 75.3017 50.0693 75.4545C50.1952 75.6074 50.3466 75.7273 50.5234 75.8143C50.7033 75.9012 50.9071 75.9447 51.1349 75.9447C51.4287 75.9447 51.6775 75.8847 51.8813 75.7648C52.0852 75.6449 52.2635 75.4845 52.4164 75.2837L52.92 75.6839C52.8151 75.8427 52.6817 75.9941 52.5198 76.138C52.358 76.2819 52.1586 76.3988 51.9218 76.4887C51.688 76.5787 51.4107 76.6236 51.09 76.6236ZM54.8094 72.4329V76.5337H53.9776V71.6685H54.7869L54.8094 72.4329ZM56.3292 71.6416L56.3247 72.415C56.2558 72.4 56.1898 72.391 56.1269 72.388C56.0669 72.382 55.998 72.379 55.92 72.379C55.7282 72.379 55.5588 72.409 55.4119 72.4689C55.265 72.5289 55.1406 72.6128 55.0387 72.7207C54.9368 72.8286 54.8559 72.9575 54.7959 73.1074C54.739 73.2543 54.7015 73.4162 54.6835 73.593L54.4497 73.7279C54.4497 73.4341 54.4782 73.1584 54.5351 72.9006C54.5951 72.6428 54.6865 72.415 54.8094 72.2171C54.9323 72.0163 55.0882 71.8604 55.277 71.7495C55.4689 71.6356 55.6967 71.5786 55.9605 71.5786C56.0204 71.5786 56.0894 71.5861 56.1673 71.6011C56.2453 71.6131 56.2992 71.6266 56.3292 71.6416Z" fill="white"/>
</g>
<defs>
<clipPath id="clip0_1020_11960">
<rect width="90.3459" height="20.4784" fill="white" transform="translate(0.654297 62.9194)"/>
</clipPath>
</defs>
</svg>
