<svg width="21" height="22" viewBox="0 0 21 22" fill="none" xmlns="http://www.w3.org/2000/svg">
<path d="M13.1214 3.12503C12.2426 3.12174 11.3797 3.35914 10.6262 3.81148C9.87279 4.26382 9.25759 4.91383 8.84736 5.69101C8.43713 6.46819 8.24754 7.34285 8.29915 8.22014C8.35077 9.09742 8.64161 9.94382 9.14013 10.6675L3.31263 16.5125C3.19223 16.6354 3.1107 16.791 3.07823 16.9599C3.04576 17.1288 3.0638 17.3035 3.13009 17.4623C3.19638 17.621 3.30798 17.7566 3.45094 17.8523C3.5939 17.9479 3.76188 17.9993 3.93388 18C4.04904 18.0007 4.16319 17.9786 4.2698 17.9351C4.37641 17.8915 4.47337 17.8274 4.55513 17.7463L4.80888 17.4925L5.93763 18.6213C6.01939 18.7024 6.11636 18.7665 6.22296 18.8101C6.32957 18.8536 6.44373 18.8757 6.55888 18.875C6.67404 18.8757 6.78819 18.8536 6.8948 18.8101C7.00141 18.7665 7.09837 18.7024 7.18013 18.6213L9.34138 16.46C9.42339 16.3787 9.48849 16.2819 9.53291 16.1753C9.57734 16.0687 9.60021 15.9543 9.60021 15.8388C9.60021 15.7233 9.57734 15.6089 9.53291 15.5023C9.48849 15.3957 9.42339 15.2989 9.34138 15.2175L8.21263 14.0888L10.4001 11.9013C11.1961 12.4649 12.1461 12.7703 13.1214 12.7763C14.3977 12.7763 15.6218 12.2693 16.5243 11.3667C17.4269 10.4642 17.9339 9.24014 17.9339 7.96378C17.9339 6.68743 17.4269 5.46335 16.5243 4.56083C15.6218 3.65831 14.3977 3.15128 13.1214 3.15128V3.12503ZM6.55888 16.7663L6.05138 16.2588L6.97888 15.3313L7.48638 15.8388L6.55888 16.7663ZM13.1214 11C12.5157 11 11.9236 10.8204 11.4199 10.4839C10.9163 10.1474 10.5238 9.6691 10.292 9.1095C10.0602 8.5499 9.99956 7.93414 10.1177 7.34007C10.2359 6.746 10.5276 6.20032 10.9559 5.77202C11.3842 5.34372 11.9299 5.05205 12.5239 4.93388C13.118 4.81571 13.7338 4.87636 14.2934 5.10815C14.853 5.33995 15.3312 5.73247 15.6678 6.2361C16.0043 6.73973 16.1839 7.33183 16.1839 7.93753C16.1839 8.74976 15.8612 9.52872 15.2869 10.103C14.7126 10.6774 13.9336 11 13.1214 11Z" fill="#1E7791"/>
</svg>
