<svg width="81" height="27" viewBox="0 0 81 27" fill="none" xmlns="http://www.w3.org/2000/svg">
<rect y="3" width="21" height="21" rx="3" fill="#1E7791"/>
<path d="M27.64 6.54V19.18H34V21H25.68V6.54H27.64ZM48.4661 13.76C48.4661 18.16 45.5861 21.24 41.4861 21.24C37.4061 21.24 34.5661 18.16 34.5661 13.76C34.5661 9.38 37.4261 6.28 41.5061 6.28C45.6061 6.28 48.4661 9.36 48.4661 13.76ZM46.4061 13.76C46.4061 10.4 44.4461 8.18 41.5061 8.18C38.5661 8.18 36.6261 10.4 36.6261 13.76C36.6261 17.12 38.5661 19.36 41.5061 19.36C44.4461 19.36 46.4061 17.1 46.4061 13.76ZM57.173 8.14C54.053 8.14 52.173 10.44 52.173 13.86C52.173 17.36 54.213 19.38 57.193 19.38C59.653 19.38 61.633 18.12 61.633 15.2V14.78H56.793V13.04H63.473V21.02H61.833L61.693 19.06C60.913 20.32 59.153 21.24 57.033 21.24C52.933 21.24 50.113 18.28 50.113 13.82C50.113 9.42 52.953 6.3 57.213 6.3C60.373 6.3 62.833 8.12 63.313 10.9H61.233C60.693 9.06 59.093 8.14 57.173 8.14ZM79.3059 13.76C79.3059 18.16 76.4259 21.24 72.3259 21.24C68.2459 21.24 65.4059 18.16 65.4059 13.76C65.4059 9.38 68.2659 6.28 72.3459 6.28C76.4459 6.28 79.3059 9.36 79.3059 13.76ZM77.2459 13.76C77.2459 10.4 75.2859 8.18 72.3459 8.18C69.4059 8.18 67.4659 10.4 67.4659 13.76C67.4659 17.12 69.4059 19.36 72.3459 19.36C75.2859 19.36 77.2459 17.1 77.2459 13.76Z" fill="white"/>
</svg>
