<svg width="24" height="24" viewBox="0 0 24 24" fill="none" xmlns="http://www.w3.org/2000/svg">
<g opacity="0.5">
<path fill-rule="evenodd" clip-rule="evenodd" d="M10.4334 3.99987C10.0979 3.99431 9.77055 4.10289 9.50489 4.30783C9.24008 4.51211 9.0523 4.80003 8.97209 5.12465L8.76466 6H15.2353L15.0279 5.12461C14.9477 4.80001 14.7599 4.5121 14.4951 4.30783C14.2295 4.10289 13.9021 3.99431 13.5666 3.99987L13.55 4.00001H10.45L10.4334 3.99987ZM20 8C20.5523 8 21 7.55228 21 7C21 6.44772 20.5523 6 20 6H17.2907L16.9731 4.65942L16.9713 4.65224C16.7837 3.88595 16.3414 3.20613 15.7167 2.72426C15.0944 2.24422 14.3281 1.98901 13.5424 2.00001H10.4576C9.67193 1.98901 8.90556 2.24422 8.28328 2.72426C7.65863 3.20613 7.21625 3.88595 7.02868 4.65224L6.70928 6H4C3.44772 6 3 6.44772 3 7C3 7.55228 3.44772 8 4 8H7.49676L7.5 8.00001L7.49676 8M18.0907 9.00412C18.6407 9.05419 19.046 9.54065 18.9959 10.0907L18.3259 17.45C18.2132 18.6963 17.637 19.8558 16.7114 20.6981C15.7862 21.5401 14.5789 22.0046 13.3279 22H10.6321C9.38111 22.0046 8.17383 21.5401 7.24857 20.6981C6.32281 19.8556 5.7467 18.6966 5.63406 17.45L5.63364 17.4453L5.00364 10.0853C4.95654 9.53501 5.36444 9.05075 5.91471 9.00364C6.46499 8.95654 6.94925 9.36444 6.99636 9.91471L7.62594 17.27L7.62614 17.2722C7.6942 18.0193 8.03973 18.7139 8.59465 19.2188C9.1501 19.7243 9.87494 20.0031 10.6259 20L10.63 20L13.33 20L13.3341 20C14.0851 20.0031 14.8099 19.7243 15.3654 19.2188C15.9208 18.7134 16.2665 18.018 16.3341 17.27L17.0041 9.90934C17.0542 9.35933 17.5406 8.95405 18.0907 9.00412ZM11 12C11 11.4477 11.4477 11 12 11C12.5523 11 13 11.4477 13 12V15C13 15.5523 12.5523 16 12 16C11.4477 16 11 15.5523 11 15V12Z" fill="#0F0F0F"/>
</g>
</svg>
