<svg width="24" height="25" viewBox="0 0 24 25" fill="none" xmlns="http://www.w3.org/2000/svg">
<path d="M12 22.8721C15.866 22.8721 19 20.6335 19 17.8721C19 15.1106 15.866 12.8721 12 12.8721C8.13401 12.8721 5 15.1106 5 17.8721C5 20.6335 8.13401 22.8721 12 22.8721Z" fill="#1E7791"/>
<path d="M12 11.8721C14.4853 11.8721 16.5 9.85735 16.5 7.37207C16.5 4.88679 14.4853 2.87207 12 2.87207C9.51472 2.87207 7.5 4.88679 7.5 7.37207C7.5 9.85735 9.51472 11.8721 12 11.8721Z" fill="#1E7791"/>
<path d="M7.00014 10.7217C6.59436 10.8553 6.16594 10.9064 5.74014 10.8717C4.94449 10.7749 4.21989 10.366 3.72573 9.73497C3.23157 9.10391 3.00834 8.30239 3.10514 7.50674C3.20195 6.71109 3.61086 5.98649 4.24192 5.49233C4.87298 4.99817 5.67449 4.77494 6.47014 4.87174V4.94174C6.1463 5.71028 5.98623 6.53788 6.00014 7.37174C6.0073 8.53908 6.35483 9.67897 7.00014 10.6517V10.7217Z" fill="#1E7791"/>
<path d="M3.5 17.8716C3.50432 19.0409 3.88668 20.1775 4.59 21.1116L4.53 21.1816C2.41 20.3916 1 18.9816 1 17.3716C1 15.3716 3.07 13.7616 6 13.1416V13.2316C5.24645 13.7526 4.62704 14.4447 4.1925 15.2512C3.75796 16.0577 3.52065 16.9557 3.5 17.8716Z" fill="#1E7791"/>
<path d="M17 10.7218C17.3906 10.8455 17.8014 10.893 18.21 10.8618C18.6033 10.8171 18.984 10.6954 19.3303 10.5037C19.6765 10.3119 19.9817 10.0538 20.2282 9.74414C20.4747 9.43446 20.6579 9.07925 20.7671 8.69879C20.8764 8.31834 20.9096 7.92009 20.865 7.52678C20.8204 7.13347 20.6987 6.7528 20.5069 6.40652C20.3151 6.06024 20.0571 5.75511 19.7474 5.50858C19.4377 5.26204 19.0825 5.07891 18.702 4.96964C18.3216 4.86038 17.9233 4.82713 17.53 4.87178V4.94178C17.9253 5.86214 18.0839 6.86682 17.9913 7.86419C17.8987 8.86157 17.5579 9.8199 17 10.6518V10.7218Z" fill="#1E7791"/>
<path d="M20.4902 17.8716C20.4859 19.0409 20.1036 20.1775 19.4002 21.1116L19.4602 21.1816C21.5802 20.3916 22.9902 18.9816 22.9902 17.3716C22.9902 15.3716 20.9202 13.7616 17.9902 13.1416V13.2316C18.7438 13.7526 19.3632 14.4447 19.7977 15.2512C20.2323 16.0577 20.4696 16.9557 20.4902 17.8716Z" fill="#1E7791"/>
</svg>
