<svg width="24" height="24" viewBox="0 0 24 24" fill="none" xmlns="http://www.w3.org/2000/svg">
<path d="M17.2 16.4998H22.41C22.4812 16.4973 22.5521 16.5107 22.6174 16.539C22.6828 16.5673 22.7411 16.6098 22.788 16.6634C22.8349 16.717 22.8693 16.7804 22.8887 16.8489C22.9081 16.9175 22.9119 16.9895 22.9 17.0598C22.6515 18.4441 21.9246 19.6972 20.8462 20.6001C19.7678 21.5031 18.4065 21.9984 17 21.9998H7C5.4087 21.9998 3.88258 21.3676 2.75736 20.2424C1.63214 19.1172 1 17.5911 1 15.9998V7.99976C1 6.40846 1.63214 4.88233 2.75736 3.75712C3.88258 2.6319 5.4087 1.99976 7 1.99976H17C18.4051 2.00065 19.7652 2.49462 20.8434 3.39555C21.9216 4.29648 22.6494 5.54723 22.9 6.92976C22.9117 7.00047 22.9078 7.07289 22.8884 7.14191C22.8691 7.21093 22.8349 7.27487 22.7882 7.32922C22.7414 7.38358 22.6834 7.42702 22.618 7.45648C22.5527 7.48595 22.4817 7.50072 22.41 7.49976H17C16.3713 7.50094 15.7499 7.63353 15.1755 7.88904C14.6011 8.14454 14.0865 8.5173 13.6646 8.9834C13.2428 9.4495 12.9231 9.99864 12.7259 10.5956C12.5288 11.1925 12.4587 11.8241 12.52 12.4498C12.665 13.5824 13.2226 14.6218 14.0861 15.369C14.9496 16.1163 16.0583 16.5188 17.2 16.4998Z" fill="#1E7791"/>
<path d="M17.0001 8.99976C16.5552 8.99967 16.1159 9.09853 15.7139 9.2892C15.3119 9.47986 14.9573 9.75755 14.6759 10.1022C14.3945 10.4467 14.1932 10.8496 14.0867 11.2816C13.9802 11.7136 13.9711 12.1638 14.0601 12.5998C14.2181 13.2898 14.6082 13.9046 15.1652 14.3415C15.7222 14.7784 16.4123 15.0107 17.1201 14.9998H22.5001C22.6319 14.9972 22.7576 14.9437 22.8508 14.8505C22.9441 14.7573 22.9976 14.6316 23.0001 14.4998V9.49976C23.0001 9.36715 22.9474 9.23997 22.8537 9.1462C22.7599 9.05243 22.6327 8.99976 22.5001 8.99976H17.0001ZM17.0001 12.9998C16.8023 12.9998 16.609 12.9411 16.4446 12.8312C16.2801 12.7213 16.1519 12.5652 16.0762 12.3824C16.0006 12.1997 15.9808 11.9986 16.0193 11.8047C16.0579 11.6107 16.1532 11.4325 16.293 11.2926C16.4329 11.1528 16.6111 11.0576 16.805 11.019C16.999 10.9804 17.2001 11.0002 17.3828 11.0759C17.5655 11.1516 17.7217 11.2797 17.8316 11.4442C17.9415 11.6086 18.0001 11.802 18.0001 11.9998C18.0001 12.265 17.8948 12.5193 17.7072 12.7069C17.5197 12.8944 17.2653 12.9998 17.0001 12.9998Z" fill="#1E7791"/>
</svg>
