<svg width="24" height="24" viewBox="0 0 24 24" fill="none" xmlns="http://www.w3.org/2000/svg">
<path d="M17 2H7C5.4087 2 3.88258 2.63214 2.75736 3.75736C1.63214 4.88258 1 6.4087 1 8V16C1 17.5913 1.63214 19.1174 2.75736 20.2426C3.88258 21.3679 5.4087 22 7 22H17C18.5913 22 20.1174 21.3679 21.2426 20.2426C22.3679 19.1174 23 17.5913 23 16V8C23 6.4087 22.3679 4.88258 21.2426 3.75736C20.1174 2.63214 18.5913 2 17 2ZM21 14H17C16.4696 14 15.9609 13.7893 15.5858 13.4142C15.2107 13.0391 15 12.5304 15 12C15 11.4696 15.2107 10.9609 15.5858 10.5858C15.9609 10.2107 16.4696 10 17 10H21V14ZM17 8C15.9391 8 14.9217 8.42143 14.1716 9.17157C13.4214 9.92172 13 10.9391 13 12C13 13.0609 13.4214 14.0783 14.1716 14.8284C14.9217 15.5786 15.9391 16 17 16H21C21 17.0609 20.5786 18.0783 19.8284 18.8284C19.0783 19.5786 18.0609 20 17 20H7C5.93913 20 4.92172 19.5786 4.17157 18.8284C3.42143 18.0783 3 17.0609 3 16V8C3 6.93913 3.42143 5.92172 4.17157 5.17157C4.92172 4.42143 5.93913 4 7 4H17C18.0609 4 19.0783 4.42143 19.8284 5.17157C20.5786 5.92172 21 6.93913 21 8H17Z" fill="#5F5F5F"/>
<path d="M17 12.9999C16.8684 13.0007 16.7379 12.9755 16.6161 12.9257C16.4943 12.8759 16.3835 12.8026 16.29 12.7099C16.1973 12.6165 16.124 12.5057 16.0742 12.3838C16.0245 12.262 15.9993 12.1315 16 11.9999C16.0011 11.7376 16.1053 11.4862 16.29 11.2999C16.4284 11.1578 16.6059 11.0601 16.8 11.0191C16.9941 10.9781 17.196 10.9958 17.38 11.0699C17.5642 11.1456 17.7216 11.2745 17.8321 11.4402C17.9425 11.6059 18.001 11.8008 18 11.9999C18.0029 12.1333 17.9791 12.2659 17.93 12.3899C17.8755 12.5084 17.8011 12.6166 17.71 12.7099C17.6166 12.8026 17.5058 12.8759 17.3839 12.9257C17.2621 12.9755 17.1316 13.0007 17 12.9999Z" fill="#5F5F5F"/>
</svg>
